<svg xmlns="http://www.w3.org/2000/svg" xmlns:xlink="http://www.w3.org/1999/xlink" viewBox="0 0 1269.01 330.8"><defs><style>.cls-1{fill:none;}.cls-2{clip-path:url(#clip-path);}.cls-3{fill:#fff;}.cls-4{clip-path:url(#clip-path-2);}</style><clipPath id="clip-path" transform="translate(-26.34 -24.49)"><rect class="cls-1" width="1321.7" height="379.74"/></clipPath><clipPath id="clip-path-2" transform="translate(-26.34 -24.49)"><rect class="cls-1" width="1321.7" height="379.74"/></clipPath></defs><title>Asset 1</title><g id="Layer_2" data-name="Layer 2"><g id="Layer_1-2" data-name="Layer 1"><g class="cls-2"><polygon class="cls-3" points="409.8 49.66 460.04 49.66 530.46 209.3 601.36 49.66 647.84 49.66 529.05 300.85 409.8 49.66"/><g class="cls-4"><path class="cls-3" d="M705.64,209.84q3.76,33.81,23,55.41t51.18,21.59q23.94,0,41.55-12.91t25.12-36.86l39,12.68q-11.75,36.17-40.62,56.11T778,325.81q-27.71,0-49.77-9.86a110.77,110.77,0,0,1-37.56-27,120.31,120.31,0,0,1-23.94-40.85q-8.46-23.7-8.46-51.88a142.93,142.93,0,0,1,8.69-50.48,124.49,124.49,0,0,1,24.18-40.37,109.43,109.43,0,0,1,37.09-26.77Q749.77,69,776.07,69q28.63,0,49.77,10.8a109.36,109.36,0,0,1,35.21,27.93,114.46,114.46,0,0,1,20.9,39,148.55,148.55,0,0,1,6.8,44.37,120.14,120.14,0,0,1-1.4,18.78ZM775.6,108q-29.11,0-47.42,19t-22.54,50H843.21a87.39,87.39,0,0,0-5.87-26.53,67.29,67.29,0,0,0-13.85-21.83,69.27,69.27,0,0,0-20.89-15,62.73,62.73,0,0,0-27-5.63" transform="translate(-26.34 -24.49)"/><path class="cls-3" d="M915,74.15h45.55v38H962q12.19-20.66,31.45-31.92T1043.22,69v43.66q-42.74,0-62.21,20.9t-19.49,63.62V324.65H915Z" transform="translate(-26.34 -24.49)"/><path class="cls-3" d="M1249.34,278.86h-1.41q-15,24-35.45,35.45t-48.59,11.5a119.84,119.84,0,0,1-86.39-36.15,121.75,121.75,0,0,1-25.83-40.61q-9.39-23.72-9.39-51.88t9.39-51.65a124.39,124.39,0,0,1,25.59-40.38,116.78,116.78,0,0,1,38.5-26.53A120.27,120.27,0,0,1,1163.89,69a109.54,109.54,0,0,1,47.89,10.56,86,86,0,0,1,35.68,31.69h1.41V74.15h46.48v246.5h-46Zm-80.76,8.45a74.4,74.4,0,0,0,31.93-6.81,78.53,78.53,0,0,0,25.35-18.78,87.34,87.34,0,0,0,16.91-28.4,103.3,103.3,0,0,0,6.1-36.15,101.36,101.36,0,0,0-6.1-35.92,88,88,0,0,0-16.91-28.17,75.89,75.89,0,0,0-25.35-18.55,80.29,80.29,0,0,0-63.62,0,72.82,72.82,0,0,0-25.35,18.55,89.79,89.79,0,0,0-16.67,28.17,101.14,101.14,0,0,0-6.1,35.92,103.07,103.07,0,0,0,6.1,36.15,89.16,89.16,0,0,0,16.67,28.4,75.66,75.66,0,0,0,57,25.59" transform="translate(-26.34 -24.49)"/><path class="cls-3" d="M220.84,117.49a40.8,40.8,0,1,1-40.8,40.8,40.8,40.8,0,0,1,40.8-40.8" transform="translate(-26.34 -24.49)"/><rect class="cls-3" y="301.1" width="389" height="29.7"/><path class="cls-3" d="M415.34,250.69v29.6H266.14v-24.8h.1c.4-.2.9-.4,1.3-.6s1-.5,1.5-.8a4.67,4.67,0,0,0,1-.5c1.2-.7,2.4-1.3,3.6-2l1.5-.9a105.9,105.9,0,1,0-108.2,0l1.5.9c1.2.7,2.4,1.4,3.6,2,.3.2.7.3,1,.5a10.93,10.93,0,0,0,1.5.8.1.1,0,0,1,.1.1,11.73,11.73,0,0,0,1.1.5l.1,24.8H26.34v-29.6h95.4a134.85,134.85,0,1,1,198.3,0Z" transform="translate(-26.34 -24.49)"/></g></g></g></g></svg>