<svg xmlns="http://www.w3.org/2000/svg" xmlns:xlink="http://www.w3.org/1999/xlink" viewBox="0 0 1269.01 330.8"><defs><style>.cls-1{fill:none;}.cls-2{clip-path:url(#clip-path);}.cls-3{fill:#fff;}.cls-4{clip-path:url(#clip-path-2);}.cls-5{clip-path:url(#clip-path-3);}.cls-6{fill:url(#linear-gradient);}.cls-7{clip-path:url(#clip-path-4);}.cls-8{fill:url(#linear-gradient-2);}.cls-9{clip-path:url(#clip-path-5);}.cls-10{fill:url(#linear-gradient-3);}</style><clipPath id="clip-path" transform="translate(-26.34 -24.49)"><rect class="cls-1" width="1321.7" height="379.74"/></clipPath><clipPath id="clip-path-2" transform="translate(-26.34 -24.49)"><rect class="cls-1" width="1321.7" height="379.74"/></clipPath><clipPath id="clip-path-3" transform="translate(-26.34 -24.49)"><path class="cls-1" d="M180,158.29a40.8,40.8,0,1,0,40.8-40.8,40.8,40.8,0,0,0-40.8,40.8"/></clipPath><linearGradient id="linear-gradient" x1="-2680.95" y1="387.13" x2="-2679.95" y2="387.13" gradientTransform="translate(-123506.42 -856332.38) rotate(-90) scale(319.53)" gradientUnits="userSpaceOnUse"><stop offset="0" stop-color="#4697d2"/><stop offset="1" stop-color="#6ec38a"/></linearGradient><clipPath id="clip-path-4" transform="translate(-26.34 -24.49)"><rect class="cls-1" x="26.34" y="325.59" width="389" height="29.7"/></clipPath><linearGradient id="linear-gradient-2" x1="-2680.95" y1="387.27" x2="-2679.95" y2="387.27" gradientTransform="translate(-121466.67 -841892.33) rotate(-90) scale(314.15)" xlink:href="#linear-gradient"/><clipPath id="clip-path-5" transform="translate(-26.34 -24.49)"><path class="cls-1" d="M86,159.29a134.45,134.45,0,0,0,35.7,91.4H26.34v29.6h149.5l-.1-24.8a11.73,11.73,0,0,1-1.1-.5.1.1,0,0,0-.1-.1,10.93,10.93,0,0,1-1.5-.8c-.3-.2-.7-.3-1-.5-1.2-.6-2.4-1.3-3.6-2l-1.5-.9a105.9,105.9,0,1,1,108.2,0l-1.5.9c-1.2.7-2.4,1.3-3.6,2a4.67,4.67,0,0,1-1,.5c-.5.3-1,.5-1.5.8s-.9.4-1.3.6h-.1v24.8h149.2v-29.6H320a134.84,134.84,0,1,0-234-91.4"/></clipPath><linearGradient id="linear-gradient-3" x1="-2680.95" y1="387.13" x2="-2679.95" y2="387.13" gradientTransform="translate(-123506.15 -856324.35) rotate(-90) scale(319.53)" xlink:href="#linear-gradient"/></defs><title>Asset 5</title><g id="Layer_2" data-name="Layer 2"><g id="Layer_1-2" data-name="Layer 1"><g class="cls-2"><polygon class="cls-3" points="409.8 49.66 460.04 49.66 530.46 209.3 601.36 49.66 647.84 49.66 529.05 300.85 409.8 49.66"/><g class="cls-4"><path class="cls-3" d="M705.64,209.84q3.76,33.81,23,55.4t51.18,21.6q23.94,0,41.55-12.91t25.12-36.86l39,12.68q-11.75,36.17-40.62,56.11T778,325.81q-27.71,0-49.77-9.86a110.77,110.77,0,0,1-37.56-27,120.31,120.31,0,0,1-23.94-40.85q-8.46-23.7-8.46-51.88a142.93,142.93,0,0,1,8.69-50.48,124.39,124.39,0,0,1,24.18-40.37,109.43,109.43,0,0,1,37.09-26.77Q749.77,69,776.07,69q28.63,0,49.77,10.8a109.36,109.36,0,0,1,35.21,27.93,114.46,114.46,0,0,1,20.9,39,148.55,148.55,0,0,1,6.8,44.37,120.14,120.14,0,0,1-1.4,18.78ZM775.6,108q-29.11,0-47.42,19t-22.54,50H843.21a87.39,87.39,0,0,0-5.87-26.53,67.29,67.29,0,0,0-13.85-21.83,69.27,69.27,0,0,0-20.89-15,62.73,62.73,0,0,0-27-5.63" transform="translate(-26.34 -24.49)"/><path class="cls-3" d="M915,74.15h45.55v38H962q12.19-20.66,31.45-31.92T1043.22,69v43.66q-42.74,0-62.21,20.9t-19.49,63.62V324.65H915Z" transform="translate(-26.34 -24.49)"/><path class="cls-3" d="M1249.34,278.86h-1.41q-15,24-35.45,35.45t-48.59,11.5a119.84,119.84,0,0,1-86.39-36.15,121.75,121.75,0,0,1-25.83-40.61q-9.39-23.7-9.39-51.88t9.39-51.65a124.39,124.39,0,0,1,25.59-40.38,116.78,116.78,0,0,1,38.5-26.53A120.27,120.27,0,0,1,1163.89,69a109.54,109.54,0,0,1,47.89,10.56,86,86,0,0,1,35.68,31.69h1.41V74.15h46.48v246.5h-46Zm-80.76,8.45a74.26,74.26,0,0,0,31.93-6.81,78.53,78.53,0,0,0,25.35-18.78,87.34,87.34,0,0,0,16.91-28.4,103.3,103.3,0,0,0,6.1-36.15,101.36,101.36,0,0,0-6.1-35.92,88,88,0,0,0-16.91-28.17,75.89,75.89,0,0,0-25.35-18.55,80.29,80.29,0,0,0-63.62,0,72.82,72.82,0,0,0-25.35,18.55,89.79,89.79,0,0,0-16.67,28.17,101.14,101.14,0,0,0-6.1,35.92,103.07,103.07,0,0,0,6.1,36.15,89.16,89.16,0,0,0,16.67,28.4,75.66,75.66,0,0,0,57,25.59" transform="translate(-26.34 -24.49)"/></g><g class="cls-5"><rect class="cls-6" x="153.7" y="93" width="81.6" height="81.6"/></g><g class="cls-7"><rect class="cls-8" y="301.1" width="389" height="29.7"/></g><g class="cls-9"><rect class="cls-10" width="389" height="255.8"/></g></g></g></g></svg>