<svg id="white" xmlns="http://www.w3.org/2000/svg" viewBox="0 0 640 640"><defs><style>.cls-1{fill:#fff;}</style></defs><title>VERA_</title><path class="cls-1" d="M320,0C143.27,0,0,143.27,0,320S143.27,640,320,640,640,496.73,640,320,496.73,0,320,0ZM542.24,509H97.76V475.06H542.24ZM273.38,283.89A46.62,46.62,0,1,1,320,330.51,46.62,46.62,0,0,1,273.38,283.89Zm268.86,139.4H371.76V395h.12c.45-.23,1-.46,1.48-.69s1.14-.57,1.72-.91a5.52,5.52,0,0,0,1.14-.57c1.37-.8,2.74-1.49,4.11-2.29l1.72-1a121,121,0,1,0-123.64,0l1.72,1c1.37.8,2.74,1.6,4.11,2.29.34.23.8.34,1.14.57a12.4,12.4,0,0,0,1.72.91.11.11,0,0,1,.11.12c.34.22.8.34,1.26.57l.11,28.33H97.76V389.47h109a154.09,154.09,0,1,1,226.59,0H542.24Z"/></svg>