<svg id="white" xmlns="http://www.w3.org/2000/svg" xmlns:xlink="http://www.w3.org/1999/xlink" viewBox="0 0 640 640"><defs><style>.cls-1{fill:url(#linear-gradient);}.cls-2{fill:#fff;}</style><linearGradient id="linear-gradient" x1="418.67" y1="-98.67" x2="1058.67" y2="-98.67" gradientTransform="translate(418.67 1058.67) rotate(-90)" gradientUnits="userSpaceOnUse"><stop offset="0" stop-color="#009ffc"/><stop offset="1" stop-color="#29f49a"/></linearGradient></defs><title>VERA_</title><circle class="cls-1" cx="320" cy="320" r="320"/><circle class="cls-2" cx="320" cy="283.89" r="46.62"/><rect class="cls-2" x="97.76" y="475.06" width="444.49" height="33.94"/><path class="cls-2" d="M542.24,389.47V423.3H371.76V395h.12c.45-.23,1-.46,1.48-.69s1.14-.57,1.72-.91a6.07,6.07,0,0,0,1.14-.57c1.37-.8,2.74-1.49,4.11-2.29l1.72-1a121,121,0,1,0-123.64,0l1.72,1c1.37.8,2.74,1.6,4.11,2.29.34.22.8.34,1.14.57a12.4,12.4,0,0,0,1.72.91.11.11,0,0,1,.11.12c.34.22.8.34,1.26.57l.11,28.34H97.76V389.47h109a154.09,154.09,0,1,1,226.59,0Z"/></svg>