<svg xmlns="http://www.w3.org/2000/svg" viewBox="0 0 18 24"><defs><style>.cls-1{fill:#fff;}</style></defs><g id="Layer_2" data-name="Layer 2"><g id="Line_Files_Folders"><path class="cls-1" d="M11,0H2A2,2,0,0,0,0,2V22a2,2,0,0,0,2,2H16a2,2,0,0,0,2-2V7Zm1,3.83L14.17,6H12ZM16,22H2V2h8V6a2,2,0,0,0,2,2h4Z"/><rect class="cls-1" x="8" y="18" width="6" height="2"/><rect class="cls-1" x="8" y="14" width="6" height="2"/><rect class="cls-1" x="8" y="10" width="6" height="2"/><rect class="cls-1" x="4" y="18" width="2" height="2"/><rect class="cls-1" x="4" y="14" width="2" height="2"/><rect class="cls-1" x="4" y="10" width="2" height="2"/></g></g></svg>