<svg width="959" height="492" viewBox="0 0 959 492" fill="none" xmlns="http://www.w3.org/2000/svg">
<path d="M815.051 168.785H826.992V170.895H817.383V176.121H825.832V178.172H817.383V186H815.051V168.785ZM831.196 182.66C831.196 183.27 831.419 183.75 831.864 184.102C832.309 184.453 832.837 184.629 833.446 184.629C834.188 184.629 834.907 184.457 835.602 184.113C836.774 183.543 837.36 182.609 837.36 181.312V179.613C837.102 179.777 836.77 179.914 836.364 180.023C835.958 180.133 835.559 180.211 835.169 180.258L833.891 180.422C833.126 180.523 832.551 180.684 832.169 180.902C831.52 181.27 831.196 181.855 831.196 182.66ZM836.305 178.395C836.79 178.332 837.114 178.129 837.278 177.785C837.372 177.598 837.419 177.328 837.419 176.977C837.419 176.258 837.161 175.738 836.645 175.418C836.137 175.09 835.407 174.926 834.454 174.926C833.352 174.926 832.571 175.223 832.11 175.816C831.852 176.145 831.684 176.633 831.606 177.281H829.637C829.676 175.734 830.176 174.66 831.137 174.059C832.106 173.449 833.227 173.145 834.501 173.145C835.977 173.145 837.176 173.426 838.098 173.988C839.012 174.551 839.469 175.426 839.469 176.613V183.844C839.469 184.062 839.512 184.238 839.598 184.371C839.692 184.504 839.883 184.57 840.172 184.57C840.266 184.57 840.372 184.566 840.489 184.559C840.606 184.543 840.731 184.523 840.864 184.5V186.059C840.536 186.152 840.286 186.211 840.114 186.234C839.942 186.258 839.708 186.27 839.411 186.27C838.684 186.27 838.157 186.012 837.829 185.496C837.657 185.223 837.536 184.836 837.465 184.336C837.036 184.898 836.419 185.387 835.614 185.801C834.809 186.215 833.922 186.422 832.954 186.422C831.79 186.422 830.837 186.07 830.094 185.367C829.36 184.656 828.993 183.77 828.993 182.707C828.993 181.543 829.356 180.641 830.083 180C830.809 179.359 831.762 178.965 832.942 178.816L836.305 178.395ZM844.552 182.062C844.615 182.766 844.79 183.305 845.079 183.68C845.611 184.359 846.532 184.699 847.845 184.699C848.626 184.699 849.314 184.531 849.907 184.195C850.501 183.852 850.798 183.324 850.798 182.613C850.798 182.074 850.56 181.664 850.083 181.383C849.779 181.211 849.177 181.012 848.279 180.785L846.603 180.363C845.532 180.098 844.743 179.801 844.236 179.473C843.329 178.902 842.876 178.113 842.876 177.105C842.876 175.918 843.302 174.957 844.154 174.223C845.013 173.488 846.165 173.121 847.611 173.121C849.501 173.121 850.865 173.676 851.7 174.785C852.224 175.488 852.478 176.246 852.462 177.059H850.47C850.431 176.582 850.263 176.148 849.966 175.758C849.482 175.203 848.642 174.926 847.447 174.926C846.65 174.926 846.044 175.078 845.63 175.383C845.224 175.688 845.021 176.09 845.021 176.59C845.021 177.137 845.29 177.574 845.829 177.902C846.142 178.098 846.603 178.27 847.212 178.418L848.607 178.758C850.122 179.125 851.138 179.48 851.654 179.824C852.474 180.363 852.884 181.211 852.884 182.367C852.884 183.484 852.458 184.449 851.607 185.262C850.763 186.074 849.474 186.48 847.74 186.48C845.872 186.48 844.548 186.059 843.767 185.215C842.993 184.363 842.579 183.312 842.525 182.062H844.552ZM856.08 169.945H858.213V173.449H860.217V175.172H858.213V183.363C858.213 183.801 858.361 184.094 858.658 184.242C858.822 184.328 859.096 184.371 859.478 184.371C859.58 184.371 859.689 184.371 859.807 184.371C859.924 184.363 860.06 184.352 860.217 184.336V186C859.975 186.07 859.721 186.121 859.455 186.152C859.197 186.184 858.916 186.199 858.611 186.199C857.627 186.199 856.959 185.949 856.607 185.449C856.256 184.941 856.08 184.285 856.08 183.48V175.172H854.381V173.449H856.08V169.945ZM867.924 173.168C868.815 173.168 869.678 173.379 870.514 173.801C871.35 174.215 871.987 174.754 872.424 175.418C872.846 176.051 873.127 176.789 873.268 177.633C873.393 178.211 873.456 179.133 873.456 180.398H864.256C864.295 181.672 864.596 182.695 865.159 183.469C865.721 184.234 866.592 184.617 867.772 184.617C868.874 184.617 869.752 184.254 870.409 183.527C870.784 183.105 871.049 182.617 871.206 182.062H873.28C873.225 182.523 873.042 183.039 872.729 183.609C872.424 184.172 872.081 184.633 871.698 184.992C871.057 185.617 870.264 186.039 869.319 186.258C868.811 186.383 868.237 186.445 867.596 186.445C866.034 186.445 864.71 185.879 863.624 184.746C862.538 183.605 861.995 182.012 861.995 179.965C861.995 177.949 862.542 176.312 863.635 175.055C864.729 173.797 866.159 173.168 867.924 173.168ZM871.288 178.723C871.202 177.809 871.002 177.078 870.69 176.531C870.112 175.516 869.147 175.008 867.795 175.008C866.827 175.008 866.014 175.359 865.358 176.062C864.702 176.758 864.354 177.645 864.315 178.723H871.288ZM876.476 173.449H878.48V175.617C878.644 175.195 879.046 174.684 879.687 174.082C880.327 173.473 881.066 173.168 881.902 173.168C881.941 173.168 882.007 173.172 882.101 173.18C882.195 173.188 882.355 173.203 882.581 173.227V175.453C882.456 175.43 882.339 175.414 882.23 175.406C882.128 175.398 882.015 175.395 881.89 175.395C880.827 175.395 880.011 175.738 879.441 176.426C878.87 177.105 878.585 177.891 878.585 178.781V186H876.476V173.449Z" fill="white"/>
<path d="M822.082 232.316C824.262 232.316 825.953 232.891 827.156 234.039C828.359 235.188 829.027 236.492 829.16 237.953H826.887C826.629 236.844 826.113 235.965 825.34 235.316C824.574 234.668 823.496 234.344 822.105 234.344C820.41 234.344 819.039 234.941 817.992 236.137C816.953 237.324 816.434 239.148 816.434 241.609C816.434 243.625 816.902 245.262 817.84 246.52C818.785 247.77 820.191 248.395 822.059 248.395C823.777 248.395 825.086 247.734 825.984 246.414C826.461 245.719 826.816 244.805 827.051 243.672H829.324C829.121 245.484 828.449 247.004 827.309 248.23C825.941 249.707 824.098 250.445 821.777 250.445C819.777 250.445 818.098 249.84 816.738 248.629C814.949 247.027 814.055 244.555 814.055 241.211C814.055 238.672 814.727 236.59 816.07 234.965C817.523 233.199 819.527 232.316 822.082 232.316ZM832.251 232.727H834.36V239.148C834.86 238.516 835.309 238.07 835.708 237.812C836.387 237.367 837.235 237.145 838.251 237.145C840.071 237.145 841.305 237.781 841.954 239.055C842.305 239.75 842.481 240.715 842.481 241.949V250H840.313V242.09C840.313 241.168 840.196 240.492 839.962 240.062C839.579 239.375 838.86 239.031 837.805 239.031C836.93 239.031 836.137 239.332 835.426 239.934C834.715 240.535 834.36 241.672 834.36 243.344V250H832.251V232.727ZM851.197 237.168C852.087 237.168 852.95 237.379 853.786 237.801C854.622 238.215 855.259 238.754 855.697 239.418C856.118 240.051 856.4 240.789 856.54 241.633C856.665 242.211 856.728 243.133 856.728 244.398H847.529C847.568 245.672 847.868 246.695 848.431 247.469C848.993 248.234 849.865 248.617 851.044 248.617C852.146 248.617 853.025 248.254 853.681 247.527C854.056 247.105 854.322 246.617 854.478 246.062H856.552C856.497 246.523 856.314 247.039 856.001 247.609C855.697 248.172 855.353 248.633 854.97 248.992C854.329 249.617 853.536 250.039 852.591 250.258C852.083 250.383 851.509 250.445 850.868 250.445C849.306 250.445 847.982 249.879 846.896 248.746C845.81 247.605 845.267 246.012 845.267 243.965C845.267 241.949 845.814 240.312 846.907 239.055C848.001 237.797 849.431 237.168 851.197 237.168ZM854.56 242.723C854.474 241.809 854.275 241.078 853.962 240.531C853.384 239.516 852.419 239.008 851.068 239.008C850.099 239.008 849.286 239.359 848.63 240.062C847.974 240.758 847.626 241.645 847.587 242.723H854.56ZM861.307 246.66C861.307 247.27 861.529 247.75 861.975 248.102C862.42 248.453 862.947 248.629 863.557 248.629C864.299 248.629 865.018 248.457 865.713 248.113C866.885 247.543 867.471 246.609 867.471 245.312V243.613C867.213 243.777 866.881 243.914 866.475 244.023C866.068 244.133 865.67 244.211 865.279 244.258L864.002 244.422C863.236 244.523 862.662 244.684 862.279 244.902C861.631 245.27 861.307 245.855 861.307 246.66ZM866.416 242.395C866.9 242.332 867.225 242.129 867.389 241.785C867.482 241.598 867.529 241.328 867.529 240.977C867.529 240.258 867.271 239.738 866.756 239.418C866.248 239.09 865.518 238.926 864.564 238.926C863.463 238.926 862.682 239.223 862.221 239.816C861.963 240.145 861.795 240.633 861.717 241.281H859.748C859.787 239.734 860.287 238.66 861.248 238.059C862.217 237.449 863.338 237.145 864.611 237.145C866.088 237.145 867.287 237.426 868.209 237.988C869.123 238.551 869.58 239.426 869.58 240.613V247.844C869.58 248.062 869.623 248.238 869.709 248.371C869.803 248.504 869.994 248.57 870.283 248.57C870.377 248.57 870.482 248.566 870.6 248.559C870.717 248.543 870.842 248.523 870.975 248.5V250.059C870.646 250.152 870.396 250.211 870.225 250.234C870.053 250.258 869.818 250.27 869.521 250.27C868.795 250.27 868.268 250.012 867.939 249.496C867.768 249.223 867.646 248.836 867.576 248.336C867.146 248.898 866.529 249.387 865.725 249.801C864.92 250.215 864.033 250.422 863.064 250.422C861.9 250.422 860.947 250.07 860.205 249.367C859.471 248.656 859.103 247.77 859.103 246.707C859.103 245.543 859.467 244.641 860.193 244C860.92 243.359 861.873 242.965 863.053 242.816L866.416 242.395ZM878.706 248.582C879.69 248.582 880.506 248.172 881.155 247.352C881.811 246.523 882.139 245.289 882.139 243.648C882.139 242.648 881.995 241.789 881.706 241.07C881.159 239.688 880.159 238.996 878.706 238.996C877.245 238.996 876.245 239.727 875.706 241.188C875.417 241.969 875.272 242.961 875.272 244.164C875.272 245.133 875.417 245.957 875.706 246.637C876.252 247.934 877.252 248.582 878.706 248.582ZM873.245 237.508H875.295V239.172C875.717 238.602 876.178 238.16 876.678 237.848C877.389 237.379 878.225 237.145 879.186 237.145C880.608 237.145 881.815 237.691 882.807 238.785C883.799 239.871 884.295 241.426 884.295 243.449C884.295 246.184 883.581 248.137 882.151 249.309C881.245 250.051 880.19 250.422 878.987 250.422C878.042 250.422 877.249 250.215 876.608 249.801C876.233 249.566 875.815 249.164 875.354 248.594V255.004H873.245V237.508ZM892.355 237.168C893.245 237.168 894.109 237.379 894.945 237.801C895.78 238.215 896.417 238.754 896.855 239.418C897.277 240.051 897.558 240.789 897.698 241.633C897.823 242.211 897.886 243.133 897.886 244.398H888.687C888.726 245.672 889.027 246.695 889.589 247.469C890.152 248.234 891.023 248.617 892.202 248.617C893.304 248.617 894.183 248.254 894.839 247.527C895.214 247.105 895.48 246.617 895.636 246.062H897.71C897.655 246.523 897.472 247.039 897.159 247.609C896.855 248.172 896.511 248.633 896.128 248.992C895.488 249.617 894.695 250.039 893.749 250.258C893.241 250.383 892.667 250.445 892.027 250.445C890.464 250.445 889.14 249.879 888.054 248.746C886.968 247.605 886.425 246.012 886.425 243.965C886.425 241.949 886.972 240.312 888.066 239.055C889.159 237.797 890.589 237.168 892.355 237.168ZM895.718 242.723C895.632 241.809 895.433 241.078 895.12 240.531C894.542 239.516 893.577 239.008 892.226 239.008C891.257 239.008 890.445 239.359 889.788 240.062C889.132 240.758 888.784 241.645 888.745 242.723H895.718ZM900.906 237.449H902.91V239.617C903.074 239.195 903.476 238.684 904.117 238.082C904.758 237.473 905.496 237.168 906.332 237.168C906.371 237.168 906.437 237.172 906.531 237.18C906.625 237.188 906.785 237.203 907.012 237.227V239.453C906.887 239.43 906.769 239.414 906.66 239.406C906.558 239.398 906.445 239.395 906.32 239.395C905.258 239.395 904.441 239.738 903.871 240.426C903.301 241.105 903.015 241.891 903.015 242.781V250H900.906V237.449Z" fill="white"/>
<path d="M815.355 296.785H817.711V314H815.355V296.785ZM821.587 301.449H823.59V303.23C824.184 302.496 824.813 301.969 825.477 301.648C826.141 301.328 826.88 301.168 827.692 301.168C829.473 301.168 830.676 301.789 831.301 303.031C831.645 303.711 831.817 304.684 831.817 305.949V314H829.673V306.09C829.673 305.324 829.559 304.707 829.333 304.238C828.958 303.457 828.278 303.066 827.294 303.066C826.794 303.066 826.383 303.117 826.063 303.219C825.485 303.391 824.977 303.734 824.54 304.25C824.188 304.664 823.958 305.094 823.848 305.539C823.747 305.977 823.696 306.605 823.696 307.426V314H821.587V301.449ZM835.728 297.945H837.861V301.449H839.865V303.172H837.861V311.363C837.861 311.801 838.009 312.094 838.306 312.242C838.47 312.328 838.743 312.371 839.126 312.371C839.228 312.371 839.337 312.371 839.454 312.371C839.572 312.363 839.708 312.352 839.865 312.336V314C839.622 314.07 839.368 314.121 839.103 314.152C838.845 314.184 838.564 314.199 838.259 314.199C837.275 314.199 836.607 313.949 836.255 313.449C835.904 312.941 835.728 312.285 835.728 311.48V303.172H834.029V301.449H835.728V297.945ZM847.572 301.168C848.463 301.168 849.326 301.379 850.162 301.801C850.998 302.215 851.635 302.754 852.072 303.418C852.494 304.051 852.775 304.789 852.916 305.633C853.041 306.211 853.103 307.133 853.103 308.398H843.904C843.943 309.672 844.244 310.695 844.807 311.469C845.369 312.234 846.24 312.617 847.42 312.617C848.521 312.617 849.4 312.254 850.057 311.527C850.432 311.105 850.697 310.617 850.853 310.062H852.928C852.873 310.523 852.689 311.039 852.377 311.609C852.072 312.172 851.728 312.633 851.346 312.992C850.705 313.617 849.912 314.039 848.967 314.258C848.459 314.383 847.885 314.445 847.244 314.445C845.682 314.445 844.357 313.879 843.271 312.746C842.185 311.605 841.642 310.012 841.642 307.965C841.642 305.949 842.189 304.312 843.283 303.055C844.377 301.797 845.807 301.168 847.572 301.168ZM850.935 306.723C850.85 305.809 850.65 305.078 850.338 304.531C849.76 303.516 848.795 303.008 847.443 303.008C846.475 303.008 845.662 303.359 845.006 304.062C844.35 304.758 844.002 305.645 843.963 306.723H850.935ZM856.124 301.449H858.127V303.617C858.292 303.195 858.694 302.684 859.335 302.082C859.975 301.473 860.713 301.168 861.549 301.168C861.588 301.168 861.655 301.172 861.749 301.18C861.842 301.188 862.002 301.203 862.229 301.227V303.453C862.104 303.43 861.987 303.414 861.877 303.406C861.776 303.398 861.663 303.395 861.538 303.395C860.475 303.395 859.659 303.738 859.088 304.426C858.518 305.105 858.233 305.891 858.233 306.781V314H856.124V301.449ZM869.398 312.641C870.796 312.641 871.753 312.113 872.269 311.059C872.792 309.996 873.054 308.816 873.054 307.52C873.054 306.348 872.866 305.395 872.491 304.66C871.898 303.504 870.874 302.926 869.421 302.926C868.132 302.926 867.195 303.418 866.609 304.402C866.023 305.387 865.73 306.574 865.73 307.965C865.73 309.301 866.023 310.414 866.609 311.305C867.195 312.195 868.124 312.641 869.398 312.641ZM869.48 301.086C871.097 301.086 872.464 301.625 873.581 302.703C874.698 303.781 875.257 305.367 875.257 307.461C875.257 309.484 874.765 311.156 873.78 312.477C872.796 313.797 871.269 314.457 869.198 314.457C867.472 314.457 866.101 313.875 865.085 312.711C864.07 311.539 863.562 309.969 863.562 308C863.562 305.891 864.097 304.211 865.167 302.961C866.237 301.711 867.675 301.086 869.48 301.086ZM883.433 312.582C884.418 312.582 885.234 312.172 885.883 311.352C886.539 310.523 886.867 309.289 886.867 307.648C886.867 306.648 886.722 305.789 886.433 305.07C885.887 303.688 884.887 302.996 883.433 302.996C881.972 302.996 880.972 303.727 880.433 305.188C880.144 305.969 880 306.961 880 308.164C880 309.133 880.144 309.957 880.433 310.637C880.98 311.934 881.98 312.582 883.433 312.582ZM877.972 301.508H880.023V303.172C880.445 302.602 880.906 302.16 881.406 301.848C882.117 301.379 882.953 301.145 883.914 301.145C885.336 301.145 886.543 301.691 887.535 302.785C888.527 303.871 889.023 305.426 889.023 307.449C889.023 310.184 888.308 312.137 886.879 313.309C885.972 314.051 884.918 314.422 883.715 314.422C882.769 314.422 881.976 314.215 881.336 313.801C880.961 313.566 880.543 313.164 880.082 312.594V319.004H877.972V301.508ZM897.082 301.168C897.973 301.168 898.836 301.379 899.672 301.801C900.508 302.215 901.145 302.754 901.582 303.418C902.004 304.051 902.286 304.789 902.426 305.633C902.551 306.211 902.614 307.133 902.614 308.398H893.415C893.454 309.672 893.754 310.695 894.317 311.469C894.879 312.234 895.75 312.617 896.93 312.617C898.032 312.617 898.911 312.254 899.567 311.527C899.942 311.105 900.207 310.617 900.364 310.062H902.438C902.383 310.523 902.2 311.039 901.887 311.609C901.582 312.172 901.239 312.633 900.856 312.992C900.215 313.617 899.422 314.039 898.477 314.258C897.969 314.383 897.395 314.445 896.754 314.445C895.192 314.445 893.868 313.879 892.782 312.746C891.696 311.605 891.153 310.012 891.153 307.965C891.153 305.949 891.7 304.312 892.793 303.055C893.887 301.797 895.317 301.168 897.082 301.168ZM900.446 306.723C900.36 305.809 900.161 305.078 899.848 304.531C899.27 303.516 898.305 303.008 896.954 303.008C895.985 303.008 895.172 303.359 894.516 304.062C893.86 304.758 893.512 305.645 893.473 306.723H900.446ZM905.634 301.449H907.638V303.617C907.802 303.195 908.204 302.684 908.845 302.082C909.485 301.473 910.224 301.168 911.06 301.168C911.099 301.168 911.165 301.172 911.259 301.18C911.353 301.188 911.513 301.203 911.739 301.227V303.453C911.614 303.43 911.497 303.414 911.388 303.406C911.286 303.398 911.173 303.395 911.048 303.395C909.985 303.395 909.169 303.738 908.599 304.426C908.028 305.105 907.743 305.891 907.743 306.781V314H905.634V301.449ZM915.545 310.66C915.545 311.27 915.767 311.75 916.213 312.102C916.658 312.453 917.185 312.629 917.795 312.629C918.537 312.629 919.256 312.457 919.951 312.113C921.123 311.543 921.709 310.609 921.709 309.312V307.613C921.451 307.777 921.119 307.914 920.713 308.023C920.306 308.133 919.908 308.211 919.517 308.258L918.24 308.422C917.474 308.523 916.9 308.684 916.517 308.902C915.869 309.27 915.545 309.855 915.545 310.66ZM920.654 306.395C921.138 306.332 921.463 306.129 921.627 305.785C921.72 305.598 921.767 305.328 921.767 304.977C921.767 304.258 921.51 303.738 920.994 303.418C920.486 303.09 919.756 302.926 918.802 302.926C917.701 302.926 916.92 303.223 916.459 303.816C916.201 304.145 916.033 304.633 915.955 305.281H913.986C914.025 303.734 914.525 302.66 915.486 302.059C916.455 301.449 917.576 301.145 918.849 301.145C920.326 301.145 921.525 301.426 922.447 301.988C923.361 302.551 923.818 303.426 923.818 304.613V311.844C923.818 312.062 923.861 312.238 923.947 312.371C924.041 312.504 924.232 312.57 924.521 312.57C924.615 312.57 924.72 312.566 924.838 312.559C924.955 312.543 925.08 312.523 925.213 312.5V314.059C924.885 314.152 924.635 314.211 924.463 314.234C924.291 314.258 924.056 314.27 923.76 314.27C923.033 314.27 922.506 314.012 922.177 313.496C922.006 313.223 921.885 312.836 921.814 312.336C921.385 312.898 920.767 313.387 919.963 313.801C919.158 314.215 918.271 314.422 917.302 314.422C916.138 314.422 915.185 314.07 914.443 313.367C913.709 312.656 913.342 311.77 913.342 310.707C913.342 309.543 913.705 308.641 914.431 308C915.158 307.359 916.111 306.965 917.291 306.816L920.654 306.395ZM927.483 296.727H929.534V302.973C929.995 302.371 930.545 301.914 931.186 301.602C931.827 301.281 932.522 301.121 933.272 301.121C934.834 301.121 936.1 301.66 937.069 302.738C938.045 303.809 938.534 305.391 938.534 307.484C938.534 309.469 938.053 311.117 937.092 312.43C936.131 313.742 934.799 314.398 933.096 314.398C932.143 314.398 931.338 314.168 930.682 313.707C930.291 313.434 929.873 312.996 929.428 312.395V314H927.483V296.727ZM932.967 312.535C934.108 312.535 934.959 312.082 935.522 311.176C936.092 310.27 936.377 309.074 936.377 307.59C936.377 306.27 936.092 305.176 935.522 304.309C934.959 303.441 934.127 303.008 933.026 303.008C932.065 303.008 931.221 303.363 930.495 304.074C929.776 304.785 929.416 305.957 929.416 307.59C929.416 308.77 929.565 309.727 929.862 310.461C930.416 311.844 931.452 312.535 932.967 312.535ZM941.425 296.785H943.534V314H941.425V296.785ZM952.297 301.168C953.187 301.168 954.05 301.379 954.886 301.801C955.722 302.215 956.359 302.754 956.797 303.418C957.218 304.051 957.5 304.789 957.64 305.633C957.765 306.211 957.828 307.133 957.828 308.398H948.629C948.668 309.672 948.968 310.695 949.531 311.469C950.093 312.234 950.965 312.617 952.144 312.617C953.246 312.617 954.125 312.254 954.781 311.527C955.156 311.105 955.422 310.617 955.578 310.062H957.652C957.597 310.523 957.414 311.039 957.101 311.609C956.797 312.172 956.453 312.633 956.07 312.992C955.429 313.617 954.636 314.039 953.691 314.258C953.183 314.383 952.609 314.445 951.968 314.445C950.406 314.445 949.082 313.879 947.996 312.746C946.91 311.605 946.367 310.012 946.367 307.965C946.367 305.949 946.914 304.312 948.008 303.055C949.101 301.797 950.531 301.168 952.297 301.168ZM955.66 306.723C955.574 305.809 955.375 305.078 955.062 304.531C954.484 303.516 953.519 303.008 952.168 303.008C951.199 303.008 950.386 303.359 949.73 304.062C949.074 304.758 948.726 305.645 948.687 306.723H955.66Z" fill="white"/>
<path d="M817.359 360.785V371.426C817.359 372.676 817.594 373.715 818.062 374.543C818.758 375.793 819.93 376.418 821.578 376.418C823.555 376.418 824.898 375.742 825.609 374.391C825.992 373.656 826.184 372.668 826.184 371.426V360.785H828.551V370.453C828.551 372.57 828.266 374.199 827.695 375.34C826.648 377.418 824.672 378.457 821.766 378.457C818.859 378.457 816.887 377.418 815.848 375.34C815.277 374.199 814.992 372.57 814.992 370.453V360.785H817.359ZM837.548 376.582C838.532 376.582 839.348 376.172 839.997 375.352C840.653 374.523 840.981 373.289 840.981 371.648C840.981 370.648 840.837 369.789 840.548 369.07C840.001 367.688 839.001 366.996 837.548 366.996C836.087 366.996 835.087 367.727 834.548 369.188C834.258 369.969 834.114 370.961 834.114 372.164C834.114 373.133 834.258 373.957 834.548 374.637C835.094 375.934 836.094 376.582 837.548 376.582ZM832.087 365.508H834.137V367.172C834.559 366.602 835.02 366.16 835.52 365.848C836.231 365.379 837.067 365.145 838.028 365.145C839.45 365.145 840.657 365.691 841.649 366.785C842.641 367.871 843.137 369.426 843.137 371.449C843.137 374.184 842.423 376.137 840.993 377.309C840.087 378.051 839.032 378.422 837.829 378.422C836.883 378.422 836.09 378.215 835.45 377.801C835.075 377.566 834.657 377.164 834.196 376.594V383.004H832.087V365.508ZM850.4 365.227C851.384 365.227 852.243 365.469 852.978 365.953C853.376 366.227 853.782 366.625 854.197 367.148V365.566H856.142V376.98C856.142 378.574 855.907 379.832 855.439 380.754C854.564 382.457 852.911 383.309 850.482 383.309C849.13 383.309 847.993 383.004 847.072 382.395C846.15 381.793 845.634 380.848 845.525 379.559H847.669C847.771 380.121 847.974 380.555 848.279 380.859C848.755 381.328 849.505 381.562 850.529 381.562C852.146 381.562 853.204 380.992 853.704 379.852C854.001 379.18 854.138 377.98 854.115 376.254C853.693 376.895 853.185 377.371 852.591 377.684C851.997 377.996 851.212 378.152 850.236 378.152C848.876 378.152 847.685 377.672 846.661 376.711C845.646 375.742 845.138 374.145 845.138 371.918C845.138 369.816 845.65 368.176 846.673 366.996C847.704 365.816 848.947 365.227 850.4 365.227ZM854.197 371.672C854.197 370.117 853.876 368.965 853.236 368.215C852.595 367.465 851.779 367.09 850.786 367.09C849.302 367.09 848.286 367.785 847.74 369.176C847.45 369.918 847.306 370.891 847.306 372.094C847.306 373.508 847.591 374.586 848.161 375.328C848.74 376.062 849.513 376.43 850.482 376.43C851.997 376.43 853.064 375.746 853.681 374.379C854.025 373.605 854.197 372.703 854.197 371.672ZM859.748 365.449H861.752V367.617C861.916 367.195 862.318 366.684 862.959 366.082C863.6 365.473 864.338 365.168 865.174 365.168C865.213 365.168 865.279 365.172 865.373 365.18C865.467 365.188 865.627 365.203 865.853 365.227V367.453C865.728 367.43 865.611 367.414 865.502 367.406C865.4 367.398 865.287 367.395 865.162 367.395C864.1 367.395 863.283 367.738 862.713 368.426C862.143 369.105 861.857 369.891 861.857 370.781V378H859.748V365.449ZM869.659 374.66C869.659 375.27 869.881 375.75 870.327 376.102C870.772 376.453 871.299 376.629 871.909 376.629C872.651 376.629 873.37 376.457 874.065 376.113C875.237 375.543 875.823 374.609 875.823 373.312V371.613C875.565 371.777 875.233 371.914 874.827 372.023C874.42 372.133 874.022 372.211 873.631 372.258L872.354 372.422C871.588 372.523 871.014 372.684 870.631 372.902C869.983 373.27 869.659 373.855 869.659 374.66ZM874.768 370.395C875.252 370.332 875.577 370.129 875.741 369.785C875.835 369.598 875.881 369.328 875.881 368.977C875.881 368.258 875.624 367.738 875.108 367.418C874.6 367.09 873.87 366.926 872.917 366.926C871.815 366.926 871.034 367.223 870.573 367.816C870.315 368.145 870.147 368.633 870.069 369.281H868.1C868.139 367.734 868.639 366.66 869.6 366.059C870.569 365.449 871.69 365.145 872.963 365.145C874.44 365.145 875.639 365.426 876.561 365.988C877.475 366.551 877.932 367.426 877.932 368.613V375.844C877.932 376.062 877.975 376.238 878.061 376.371C878.155 376.504 878.346 376.57 878.635 376.57C878.729 376.57 878.835 376.566 878.952 376.559C879.069 376.543 879.194 376.523 879.327 376.5V378.059C878.999 378.152 878.749 378.211 878.577 378.234C878.405 378.258 878.17 378.27 877.874 378.27C877.147 378.27 876.62 378.012 876.292 377.496C876.12 377.223 875.999 376.836 875.928 376.336C875.499 376.898 874.881 377.387 874.077 377.801C873.272 378.215 872.385 378.422 871.417 378.422C870.252 378.422 869.299 378.07 868.557 377.367C867.823 376.656 867.456 375.77 867.456 374.707C867.456 373.543 867.819 372.641 868.545 372C869.272 371.359 870.225 370.965 871.405 370.816L874.768 370.395ZM883.097 371.871C883.097 373.215 883.382 374.34 883.952 375.246C884.523 376.152 885.437 376.605 886.695 376.605C887.671 376.605 888.472 376.188 889.097 375.352C889.73 374.508 890.046 373.301 890.046 371.73C890.046 370.145 889.722 368.973 889.073 368.215C888.425 367.449 887.624 367.066 886.671 367.066C885.609 367.066 884.745 367.473 884.081 368.285C883.425 369.098 883.097 370.293 883.097 371.871ZM886.273 365.227C887.234 365.227 888.038 365.43 888.687 365.836C889.062 366.07 889.488 366.48 889.964 367.066V360.727H891.991V378H890.093V376.254C889.601 377.027 889.019 377.586 888.347 377.93C887.675 378.273 886.905 378.445 886.038 378.445C884.64 378.445 883.429 377.859 882.405 376.688C881.382 375.508 880.87 373.941 880.87 371.988C880.87 370.16 881.335 368.578 882.265 367.242C883.202 365.898 884.538 365.227 886.273 365.227ZM897.098 374.66C897.098 375.27 897.32 375.75 897.765 376.102C898.211 376.453 898.738 376.629 899.348 376.629C900.09 376.629 900.808 376.457 901.504 376.113C902.676 375.543 903.262 374.609 903.262 373.312V371.613C903.004 371.777 902.672 371.914 902.265 372.023C901.859 372.133 901.461 372.211 901.07 372.258L899.793 372.422C899.027 372.523 898.453 372.684 898.07 372.902C897.422 373.27 897.098 373.855 897.098 374.66ZM902.207 370.395C902.691 370.332 903.015 370.129 903.18 369.785C903.273 369.598 903.32 369.328 903.32 368.977C903.32 368.258 903.062 367.738 902.547 367.418C902.039 367.09 901.308 366.926 900.355 366.926C899.254 366.926 898.473 367.223 898.012 367.816C897.754 368.145 897.586 368.633 897.508 369.281H895.539C895.578 367.734 896.078 366.66 897.039 366.059C898.008 365.449 899.129 365.145 900.402 365.145C901.879 365.145 903.078 365.426 904 365.988C904.914 366.551 905.371 367.426 905.371 368.613V375.844C905.371 376.062 905.414 376.238 905.5 376.371C905.594 376.504 905.785 376.57 906.074 376.57C906.168 376.57 906.273 376.566 906.39 376.559C906.508 376.543 906.633 376.523 906.765 376.5V378.059C906.437 378.152 906.187 378.211 906.015 378.234C905.844 378.258 905.609 378.27 905.312 378.27C904.586 378.27 904.058 378.012 903.73 377.496C903.558 377.223 903.437 376.836 903.367 376.336C902.937 376.898 902.32 377.387 901.515 377.801C900.711 378.215 899.824 378.422 898.855 378.422C897.691 378.422 896.738 378.07 895.996 377.367C895.262 376.656 894.894 375.77 894.894 374.707C894.894 373.543 895.258 372.641 895.984 372C896.711 371.359 897.664 370.965 898.844 370.816L902.207 370.395ZM909.036 360.727H911.086V366.973C911.547 366.371 912.098 365.914 912.739 365.602C913.379 365.281 914.075 365.121 914.825 365.121C916.387 365.121 917.653 365.66 918.622 366.738C919.598 367.809 920.086 369.391 920.086 371.484C920.086 373.469 919.606 375.117 918.645 376.43C917.684 377.742 916.352 378.398 914.649 378.398C913.696 378.398 912.891 378.168 912.235 377.707C911.844 377.434 911.426 376.996 910.981 376.395V378H909.036V360.727ZM914.52 376.535C915.661 376.535 916.512 376.082 917.075 375.176C917.645 374.27 917.93 373.074 917.93 371.59C917.93 370.27 917.645 369.176 917.075 368.309C916.512 367.441 915.68 367.008 914.579 367.008C913.618 367.008 912.774 367.363 912.047 368.074C911.329 368.785 910.969 369.957 910.969 371.59C910.969 372.77 911.118 373.727 911.415 374.461C911.969 375.844 913.004 376.535 914.52 376.535ZM922.978 360.785H925.087V378H922.978V360.785ZM933.849 365.168C934.74 365.168 935.603 365.379 936.439 365.801C937.275 366.215 937.912 366.754 938.349 367.418C938.771 368.051 939.052 368.789 939.193 369.633C939.318 370.211 939.381 371.133 939.381 372.398H930.181C930.22 373.672 930.521 374.695 931.084 375.469C931.646 376.234 932.517 376.617 933.697 376.617C934.799 376.617 935.677 376.254 936.334 375.527C936.709 375.105 936.974 374.617 937.131 374.062H939.205C939.15 374.523 938.967 375.039 938.654 375.609C938.349 376.172 938.006 376.633 937.623 376.992C936.982 377.617 936.189 378.039 935.244 378.258C934.736 378.383 934.162 378.445 933.521 378.445C931.959 378.445 930.635 377.879 929.549 376.746C928.463 375.605 927.92 374.012 927.92 371.965C927.92 369.949 928.467 368.312 929.56 367.055C930.654 365.797 932.084 365.168 933.849 365.168ZM937.213 370.723C937.127 369.809 936.927 369.078 936.615 368.531C936.037 367.516 935.072 367.008 933.72 367.008C932.752 367.008 931.939 367.359 931.283 368.062C930.627 368.758 930.279 369.645 930.24 370.723H937.213Z" fill="white"/>
<path d="M789.266 465.355C789.266 463.715 788.888 462.263 788.133 461C787.391 459.737 786.18 459.105 784.5 459.105C782.482 459.105 781.095 460.062 780.34 461.977C779.949 462.992 779.754 464.281 779.754 465.844C779.754 468.318 780.411 470.056 781.727 471.059C782.508 471.645 783.432 471.938 784.5 471.938C786.049 471.938 787.228 471.339 788.035 470.141C788.855 468.943 789.266 467.348 789.266 465.355ZM786.102 454.242C788.589 454.242 790.691 455.16 792.41 456.996C794.142 458.832 795.008 461.527 795.008 465.082C795.008 468.832 794.161 471.69 792.469 473.656C790.789 475.622 788.621 476.605 785.965 476.605C784.272 476.605 782.866 476.182 781.746 475.336C781.134 474.867 780.535 474.184 779.949 473.285V484.379H774.441V454.711H779.773V457.855C780.372 456.931 781.01 456.202 781.688 455.668C782.924 454.717 784.396 454.242 786.102 454.242ZM809.202 472.074C810.829 472.074 812.079 471.495 812.952 470.336C813.824 469.177 814.26 467.53 814.26 465.395C814.26 463.259 813.824 461.618 812.952 460.473C812.079 459.314 810.829 458.734 809.202 458.734C807.574 458.734 806.317 459.314 805.432 460.473C804.56 461.618 804.123 463.259 804.123 465.395C804.123 467.53 804.56 469.177 805.432 470.336C806.317 471.495 807.574 472.074 809.202 472.074ZM820.1 465.395C820.1 468.52 819.202 471.195 817.405 473.422C815.608 475.635 812.88 476.742 809.221 476.742C805.562 476.742 802.834 475.635 801.038 473.422C799.241 471.195 798.342 468.52 798.342 465.395C798.342 462.322 799.241 459.659 801.038 457.406C802.834 455.154 805.562 454.027 809.221 454.027C812.88 454.027 815.608 455.154 817.405 457.406C819.202 459.659 820.1 462.322 820.1 465.395ZM830.388 476H824.821V447.211H830.388V476ZM836.378 447.309H841.847V462.816L848.78 454.809H855.675L848.234 462.953L855.968 476H849.249L844.152 466.898L841.847 469.301V476H836.378V447.309ZM871.041 465.648C870.689 465.87 870.331 466.052 869.966 466.195C869.615 466.326 869.127 466.449 868.502 466.566L867.252 466.801C866.08 467.009 865.24 467.263 864.732 467.562C863.873 468.07 863.443 468.858 863.443 469.926C863.443 470.876 863.703 471.566 864.224 471.996C864.758 472.413 865.403 472.621 866.158 472.621C867.356 472.621 868.456 472.27 869.459 471.566C870.474 470.863 871.002 469.581 871.041 467.719V465.648ZM867.662 463.051C868.69 462.921 869.426 462.758 869.869 462.562C870.663 462.224 871.06 461.697 871.06 460.98C871.06 460.108 870.754 459.509 870.142 459.184C869.543 458.845 868.658 458.676 867.486 458.676C866.171 458.676 865.24 459.001 864.693 459.652C864.302 460.134 864.042 460.785 863.912 461.605H858.541C858.658 459.743 859.179 458.214 860.103 457.016C861.574 455.141 864.101 454.203 867.681 454.203C870.012 454.203 872.082 454.665 873.892 455.59C875.702 456.514 876.607 458.259 876.607 460.824V470.59C876.607 471.267 876.62 472.087 876.646 473.051C876.685 473.78 876.796 474.275 876.978 474.535C877.16 474.796 877.434 475.01 877.798 475.18V476H871.744C871.574 475.57 871.457 475.167 871.392 474.789C871.327 474.411 871.275 473.982 871.236 473.5C870.468 474.333 869.582 475.043 868.58 475.629C867.382 476.319 866.028 476.664 864.517 476.664C862.59 476.664 860.995 476.117 859.732 475.023C858.482 473.917 857.857 472.354 857.857 470.336C857.857 467.719 858.866 465.824 860.884 464.652C861.991 464.014 863.619 463.559 865.767 463.285L867.662 463.051ZM890.02 454.203C891.309 454.203 892.454 454.49 893.457 455.062C894.46 455.622 895.273 456.404 895.898 457.406V447.25H901.543V476H896.133V473.051C895.339 474.314 894.434 475.232 893.418 475.805C892.402 476.378 891.139 476.664 889.629 476.664C887.142 476.664 885.046 475.661 883.34 473.656C881.647 471.638 880.801 469.053 880.801 465.902C880.801 462.27 881.634 459.411 883.301 457.328C884.98 455.245 887.22 454.203 890.02 454.203ZM891.23 471.977C892.806 471.977 894.004 471.391 894.824 470.219C895.645 469.047 896.055 467.53 896.055 465.668C896.055 463.064 895.397 461.202 894.082 460.082C893.275 459.405 892.337 459.066 891.27 459.066C889.642 459.066 888.444 459.685 887.676 460.922C886.921 462.146 886.543 463.669 886.543 465.492C886.543 467.458 886.927 469.034 887.695 470.219C888.477 471.391 889.655 471.977 891.23 471.977ZM916.772 472.074C918.399 472.074 919.649 471.495 920.522 470.336C921.394 469.177 921.83 467.53 921.83 465.395C921.83 463.259 921.394 461.618 920.522 460.473C919.649 459.314 918.399 458.734 916.772 458.734C915.144 458.734 913.888 459.314 913.002 460.473C912.13 461.618 911.694 463.259 911.694 465.395C911.694 467.53 912.13 469.177 913.002 470.336C913.888 471.495 915.144 472.074 916.772 472.074ZM927.67 465.395C927.67 468.52 926.772 471.195 924.975 473.422C923.178 475.635 920.45 476.742 916.791 476.742C913.133 476.742 910.405 475.635 908.608 473.422C906.811 471.195 905.913 468.52 905.913 465.395C905.913 462.322 906.811 459.659 908.608 457.406C910.405 455.154 913.133 454.027 916.791 454.027C920.45 454.027 923.178 455.154 924.975 457.406C926.772 459.659 927.67 462.322 927.67 465.395ZM930.087 458.871V454.906H933.055V448.969H938.563V454.906H942.02V458.871H938.563V470.121C938.563 470.993 938.674 471.54 938.895 471.762C939.117 471.97 939.794 472.074 940.927 472.074C941.096 472.074 941.272 472.074 941.454 472.074C941.649 472.061 941.838 472.048 942.02 472.035V476.195L939.384 476.293C936.753 476.384 934.957 475.928 933.993 474.926C933.368 474.288 933.055 473.305 933.055 471.977V458.871H930.087Z" fill="#9DF8C8"/>
<path d="M10.9961 26.7344C9.70703 26.7344 8.70443 27.138 7.98828 27.9453C7.28516 28.7526 6.84245 29.8464 6.66016 31.2266H15.3125C15.2214 29.7552 14.7721 28.6419 13.9648 27.8867C13.1706 27.1185 12.181 26.7344 10.9961 26.7344ZM10.9961 22.1445C12.7669 22.1445 14.362 22.4766 15.7812 23.1406C17.2005 23.8047 18.3724 24.8529 19.2969 26.2852C20.1302 27.5482 20.6706 29.013 20.918 30.6797C21.0612 31.6562 21.1198 33.0625 21.0938 34.8984H6.52344C6.60156 37.0339 7.27214 38.5312 8.53516 39.3906C9.30339 39.9245 10.2279 40.1914 11.3086 40.1914C12.4544 40.1914 13.3854 39.8659 14.1016 39.2148C14.4922 38.8633 14.8372 38.375 15.1367 37.75H20.8203C20.6771 39.013 20.0195 40.2956 18.8477 41.5977C17.0247 43.668 14.4727 44.7031 11.1914 44.7031C8.48307 44.7031 6.09375 43.8307 4.02344 42.0859C1.95312 40.3411 0.917969 37.5026 0.917969 33.5703C0.917969 29.8854 1.84896 27.0599 3.71094 25.0938C5.58594 23.1276 8.01432 22.1445 10.9961 22.1445ZM23.2758 26.8711V22.9062H26.2445V16.9688H31.7523V22.9062H35.2094V26.8711H31.7523V38.1211C31.7523 38.9935 31.863 39.5404 32.0844 39.7617C32.3057 39.9701 32.9828 40.0742 34.1156 40.0742C34.2849 40.0742 34.4607 40.0742 34.643 40.0742C34.8383 40.0612 35.0271 40.0482 35.2094 40.0352V44.1953L32.5727 44.293C29.9424 44.3841 28.1456 43.9284 27.182 42.9258C26.557 42.2878 26.2445 41.3047 26.2445 39.9766V26.8711H23.2758ZM51.1219 22.1641C52.437 22.1641 53.6284 22.3919 54.6961 22.8477C55.7768 23.3034 56.6622 24 57.3523 24.9375C57.9383 25.7318 58.2964 26.5521 58.4266 27.3984C58.5568 28.2318 58.6219 29.599 58.6219 31.5V44H52.9383V31.0508C52.9383 29.9049 52.743 28.9805 52.3523 28.2773C51.8445 27.2878 50.881 26.793 49.4617 26.793C47.9904 26.793 46.8706 27.2878 46.1023 28.2773C45.3471 29.2539 44.9695 30.6536 44.9695 32.4766V44H39.4227V15.3086H44.9695V25.4844C45.7768 24.2474 46.7078 23.388 47.7625 22.9062C48.8302 22.4115 49.95 22.1641 51.1219 22.1641ZM72.8352 26.7344C71.5461 26.7344 70.5435 27.138 69.8273 27.9453C69.1242 28.7526 68.6815 29.8464 68.4992 31.2266H77.1516C77.0604 29.7552 76.6112 28.6419 75.8039 27.8867C75.0096 27.1185 74.0201 26.7344 72.8352 26.7344ZM72.8352 22.1445C74.606 22.1445 76.201 22.4766 77.6203 23.1406C79.0396 23.8047 80.2115 24.8529 81.1359 26.2852C81.9693 27.5482 82.5096 29.013 82.757 30.6797C82.9003 31.6562 82.9589 33.0625 82.9328 34.8984H68.3625C68.4406 37.0339 69.1112 38.5312 70.3742 39.3906C71.1424 39.9245 72.0669 40.1914 73.1477 40.1914C74.2935 40.1914 75.2245 39.8659 75.9406 39.2148C76.3312 38.8633 76.6763 38.375 76.9758 37.75H82.6594C82.5161 39.013 81.8586 40.2956 80.6867 41.5977C78.8638 43.668 76.3117 44.7031 73.0305 44.7031C70.3221 44.7031 67.9328 43.8307 65.8625 42.0859C63.7922 40.3411 62.757 37.5026 62.757 33.5703C62.757 29.8854 63.688 27.0599 65.55 25.0938C67.425 23.1276 69.8534 22.1445 72.8352 22.1445ZM98.8648 22.2031C98.969 22.2031 99.0536 22.2096 99.1188 22.2227C99.1969 22.2227 99.3596 22.2292 99.607 22.2422V27.9453C99.2555 27.9062 98.943 27.8802 98.6695 27.8672C98.3961 27.8542 98.1747 27.8477 98.0055 27.8477C95.7659 27.8477 94.262 28.5768 93.4938 30.0352C93.0641 30.8555 92.8492 32.1185 92.8492 33.8242V44H87.2438V22.7109H92.5563V26.4219C93.4156 25.0026 94.1643 24.0326 94.8023 23.5117C95.844 22.6393 97.1982 22.2031 98.8648 22.2031ZM111.887 26.7344C110.598 26.7344 109.595 27.138 108.879 27.9453C108.176 28.7526 107.733 29.8464 107.551 31.2266H116.203C116.112 29.7552 115.663 28.6419 114.855 27.8867C114.061 27.1185 113.072 26.7344 111.887 26.7344ZM111.887 22.1445C113.658 22.1445 115.253 22.4766 116.672 23.1406C118.091 23.8047 119.263 24.8529 120.188 26.2852C121.021 27.5482 121.561 29.013 121.809 30.6797C121.952 31.6562 122.01 33.0625 121.984 34.8984H107.414C107.492 37.0339 108.163 38.5312 109.426 39.3906C110.194 39.9245 111.118 40.1914 112.199 40.1914C113.345 40.1914 114.276 39.8659 114.992 39.2148C115.383 38.8633 115.728 38.375 116.027 37.75H121.711C121.568 39.013 120.91 40.2956 119.738 41.5977C117.915 43.668 115.363 44.7031 112.082 44.7031C109.374 44.7031 106.984 43.8307 104.914 42.0859C102.844 40.3411 101.809 37.5026 101.809 33.5703C101.809 29.8854 102.74 27.0599 104.602 25.0938C106.477 23.1276 108.905 22.1445 111.887 22.1445ZM131.901 22.7109V35.543C131.901 36.7539 132.044 37.6654 132.33 38.2773C132.838 39.3581 133.834 39.8984 135.319 39.8984C137.22 39.8984 138.522 39.1302 139.225 37.5938C139.59 36.7604 139.772 35.6602 139.772 34.293V22.7109H145.416V44H140.006V40.9922C139.954 41.0573 139.824 41.2526 139.616 41.5781C139.407 41.9036 139.16 42.1901 138.873 42.4375C138.001 43.2188 137.155 43.7526 136.334 44.0391C135.527 44.3255 134.577 44.4688 133.483 44.4688C130.332 44.4688 128.209 43.3359 127.116 41.0703C126.504 39.8203 126.198 37.9779 126.198 35.543V22.7109H131.901ZM175.196 22.2422C176.134 22.2422 177.058 22.4245 177.97 22.7891C178.881 23.1536 179.708 23.7917 180.45 24.7031C181.049 25.4453 181.453 26.3568 181.661 27.4375C181.791 28.1536 181.856 29.2018 181.856 30.582L181.817 44H176.114V30.4453C176.114 29.638 175.984 28.974 175.723 28.4531C175.229 27.4635 174.317 26.9688 172.989 26.9688C171.453 26.9688 170.391 27.6068 169.805 28.8828C169.506 29.5599 169.356 30.3737 169.356 31.3242V44H163.751V31.3242C163.751 30.0612 163.621 29.1432 163.36 28.5703C162.891 27.5417 161.973 27.0273 160.606 27.0273C159.018 27.0273 157.95 27.5417 157.403 28.5703C157.104 29.1562 156.954 30.0286 156.954 31.1875V44H151.309V22.75H156.72V25.8555C157.41 24.7487 158.061 23.9609 158.673 23.4922C159.753 22.6589 161.153 22.2422 162.872 22.2422C164.499 22.2422 165.815 22.6003 166.817 23.3164C167.624 23.9805 168.236 24.8333 168.653 25.875C169.382 24.625 170.287 23.707 171.368 23.1211C172.514 22.5352 173.79 22.2422 175.196 22.2422Z" fill="#60C6ED"/>
<path d="M379.572 38.6543H381.535V44.582H388.996V38.6543H390.959V53H388.996V46.291H381.535V53H379.572V38.6543ZM394.042 42.5898H395.829V53H394.042V42.5898ZM394.042 38.6543H395.829V40.6465H394.042V38.6543ZM402.487 42.3555C403.307 42.3555 404.023 42.5573 404.635 42.9609C404.967 43.1888 405.306 43.5208 405.651 43.957V42.6387H407.272V52.1504C407.272 53.4785 407.077 54.5267 406.686 55.2949C405.957 56.7142 404.58 57.4238 402.555 57.4238C401.429 57.4238 400.482 57.1699 399.713 56.6621C398.945 56.1608 398.515 55.373 398.424 54.2988H400.211C400.296 54.7676 400.465 55.1289 400.719 55.3828C401.116 55.7734 401.741 55.9688 402.594 55.9688C403.942 55.9688 404.824 55.4935 405.241 54.543C405.488 53.9831 405.602 52.9837 405.582 51.5449C405.231 52.0788 404.808 52.4759 404.313 52.7363C403.818 52.9967 403.164 53.127 402.35 53.127C401.217 53.127 400.224 52.7266 399.371 51.9258C398.525 51.1185 398.102 49.7871 398.102 47.9316C398.102 46.1803 398.528 44.8132 399.381 43.8301C400.241 42.847 401.276 42.3555 402.487 42.3555ZM405.651 47.7266C405.651 46.431 405.384 45.4707 404.85 44.8457C404.316 44.2207 403.636 43.9082 402.809 43.9082C401.572 43.9082 400.726 44.4876 400.27 45.6465C400.029 46.265 399.909 47.0755 399.909 48.0781C399.909 49.2565 400.146 50.1549 400.621 50.7734C401.103 51.3854 401.748 51.6914 402.555 51.6914C403.818 51.6914 404.707 51.1217 405.221 49.9824C405.508 49.3379 405.651 48.5859 405.651 47.7266ZM410.228 38.6055H411.986V43.957C412.403 43.4297 412.777 43.0586 413.109 42.8438C413.675 42.4727 414.382 42.2871 415.228 42.2871C416.745 42.2871 417.774 42.8177 418.314 43.8789C418.607 44.4583 418.754 45.2624 418.754 46.291V53H416.947V46.4082C416.947 45.64 416.849 45.0768 416.654 44.7188C416.335 44.1458 415.736 43.8594 414.857 43.8594C414.128 43.8594 413.467 44.11 412.875 44.6113C412.282 45.1126 411.986 46.0599 411.986 47.4531V53H410.228V38.6055ZM427.879 39.6211H429.656V42.541H431.326V43.9766H429.656V50.8027C429.656 51.1673 429.78 51.4115 430.027 51.5352C430.164 51.6068 430.392 51.6426 430.711 51.6426C430.796 51.6426 430.887 51.6426 430.984 51.6426C431.082 51.6361 431.196 51.6263 431.326 51.6133V53C431.124 53.0586 430.913 53.1009 430.691 53.127C430.477 53.153 430.242 53.166 429.988 53.166C429.168 53.166 428.611 52.9577 428.318 52.541C428.025 52.1178 427.879 51.571 427.879 50.9004V43.9766H426.463V42.541H427.879V39.6211ZM433.443 42.541H435.112V44.3477C435.249 43.9961 435.585 43.5697 436.118 43.0684C436.652 42.5605 437.267 42.3066 437.964 42.3066C437.997 42.3066 438.052 42.3099 438.13 42.3164C438.208 42.3229 438.342 42.3359 438.53 42.3555V44.2109C438.426 44.1914 438.329 44.1784 438.237 44.1719C438.153 44.1654 438.058 44.1621 437.954 44.1621C437.069 44.1621 436.389 44.4486 435.913 45.0215C435.438 45.5879 435.2 46.2422 435.2 46.9844V53H433.443V42.541ZM441.702 50.2168C441.702 50.7246 441.887 51.125 442.258 51.418C442.629 51.7109 443.069 51.8574 443.577 51.8574C444.195 51.8574 444.794 51.7142 445.373 51.4277C446.35 50.9525 446.838 50.1745 446.838 49.0938V47.6777C446.623 47.8145 446.347 47.9284 446.008 48.0195C445.67 48.1107 445.338 48.1758 445.012 48.2148L443.948 48.3516C443.31 48.4362 442.831 48.5697 442.512 48.752C441.972 49.0579 441.702 49.5462 441.702 50.2168ZM445.959 46.6621C446.363 46.61 446.633 46.4408 446.77 46.1543C446.848 45.998 446.887 45.7734 446.887 45.4805C446.887 44.8815 446.672 44.4486 446.243 44.1816C445.819 43.9082 445.211 43.7715 444.416 43.7715C443.498 43.7715 442.847 44.0189 442.463 44.5137C442.248 44.7871 442.108 45.194 442.043 45.7344H440.403C440.435 44.4453 440.852 43.5501 441.653 43.0488C442.46 42.541 443.394 42.2871 444.455 42.2871C445.686 42.2871 446.685 42.5215 447.454 42.9902C448.215 43.459 448.596 44.1882 448.596 45.1777V51.2031C448.596 51.3854 448.632 51.5319 448.704 51.6426C448.782 51.7533 448.941 51.8086 449.182 51.8086C449.26 51.8086 449.348 51.8053 449.446 51.7988C449.543 51.7858 449.648 51.7695 449.758 51.75V53.0488C449.485 53.127 449.276 53.1758 449.133 53.1953C448.99 53.2148 448.795 53.2246 448.547 53.2246C447.942 53.2246 447.502 53.0098 447.229 52.5801C447.086 52.3522 446.985 52.0299 446.926 51.6133C446.568 52.082 446.054 52.4889 445.383 52.834C444.713 53.179 443.974 53.3516 443.166 53.3516C442.196 53.3516 441.402 53.0586 440.784 52.4727C440.172 51.8802 439.866 51.1413 439.866 50.2559C439.866 49.2858 440.168 48.5339 440.774 48C441.379 47.4661 442.174 47.1374 443.157 47.0137L445.959 46.6621ZM451.787 42.541H453.457V44.0254C453.951 43.4134 454.476 42.974 455.029 42.707C455.582 42.4401 456.198 42.3066 456.875 42.3066C458.359 42.3066 459.362 42.8242 459.882 43.8594C460.169 44.4258 460.312 45.2363 460.312 46.291V53H458.525V46.4082C458.525 45.7702 458.431 45.2559 458.242 44.8652C457.929 44.2142 457.363 43.8887 456.543 43.8887C456.126 43.8887 455.784 43.931 455.517 44.0156C455.035 44.1589 454.612 44.4453 454.248 44.875C453.955 45.2201 453.763 45.5781 453.671 45.9492C453.587 46.3138 453.545 46.8379 453.545 47.5215V53H451.787V42.541ZM464.264 49.7188C464.317 50.3047 464.463 50.7539 464.704 51.0664C465.147 51.6328 465.915 51.916 467.009 51.916C467.66 51.916 468.233 51.776 468.727 51.4961C469.222 51.2096 469.47 50.7702 469.47 50.1777C469.47 49.7285 469.271 49.3867 468.874 49.1523C468.62 49.0091 468.119 48.8431 467.37 48.6543L465.973 48.3027C465.082 48.0814 464.424 47.834 464.001 47.5605C463.246 47.0853 462.868 46.4277 462.868 45.5879C462.868 44.5983 463.223 43.7975 463.932 43.1855C464.649 42.5736 465.609 42.2676 466.813 42.2676C468.389 42.2676 469.525 42.7298 470.221 43.6543C470.658 44.2402 470.869 44.8717 470.856 45.5488H469.196C469.164 45.1517 469.024 44.7904 468.776 44.4648C468.373 44.0026 467.673 43.7715 466.677 43.7715C466.012 43.7715 465.508 43.8984 465.163 44.1523C464.824 44.4062 464.655 44.7415 464.655 45.1582C464.655 45.6139 464.88 45.9785 465.329 46.252C465.589 46.4147 465.973 46.5579 466.481 46.6816L467.643 46.9648C468.906 47.2708 469.753 47.5671 470.182 47.8535C470.866 48.3027 471.208 49.0091 471.208 49.9727C471.208 50.9036 470.853 51.7077 470.143 52.3848C469.44 53.0618 468.366 53.4004 466.921 53.4004C465.365 53.4004 464.261 53.0488 463.61 52.3457C462.966 51.6361 462.621 50.7604 462.575 49.7188H464.264ZM474.867 50.2168C474.867 50.7246 475.053 51.125 475.424 51.418C475.795 51.7109 476.234 51.8574 476.742 51.8574C477.361 51.8574 477.96 51.7142 478.539 51.4277C479.516 50.9525 480.004 50.1745 480.004 49.0938V47.6777C479.789 47.8145 479.512 47.9284 479.174 48.0195C478.835 48.1107 478.503 48.1758 478.178 48.2148L477.113 48.3516C476.475 48.4362 475.997 48.5697 475.678 48.752C475.137 49.0579 474.867 49.5462 474.867 50.2168ZM479.125 46.6621C479.529 46.61 479.799 46.4408 479.936 46.1543C480.014 45.998 480.053 45.7734 480.053 45.4805C480.053 44.8815 479.838 44.4486 479.408 44.1816C478.985 43.9082 478.376 43.7715 477.582 43.7715C476.664 43.7715 476.013 44.0189 475.629 44.5137C475.414 44.7871 475.274 45.194 475.209 45.7344H473.568C473.601 44.4453 474.018 43.5501 474.818 43.0488C475.626 42.541 476.56 42.2871 477.621 42.2871C478.852 42.2871 479.851 42.5215 480.619 42.9902C481.381 43.459 481.762 44.1882 481.762 45.1777V51.2031C481.762 51.3854 481.798 51.5319 481.869 51.6426C481.947 51.7533 482.107 51.8086 482.348 51.8086C482.426 51.8086 482.514 51.8053 482.611 51.7988C482.709 51.7858 482.813 51.7695 482.924 51.75V53.0488C482.65 53.127 482.442 53.1758 482.299 53.1953C482.156 53.2148 481.96 53.2246 481.713 53.2246C481.107 53.2246 480.668 53.0098 480.395 52.5801C480.251 52.3522 480.15 52.0299 480.092 51.6133C479.734 52.082 479.219 52.4889 478.549 52.834C477.878 53.179 477.139 53.3516 476.332 53.3516C475.362 53.3516 474.568 53.0586 473.949 52.4727C473.337 51.8802 473.031 51.1413 473.031 50.2559C473.031 49.2858 473.334 48.5339 473.939 48C474.545 47.4661 475.339 47.1374 476.322 47.0137L479.125 46.6621ZM488.986 42.2383C490.164 42.2383 491.121 42.5247 491.857 43.0977C492.599 43.6706 493.045 44.6569 493.195 46.0566H491.486C491.381 45.4121 491.144 44.8783 490.773 44.4551C490.402 44.0254 489.806 43.8105 488.986 43.8105C487.866 43.8105 487.065 44.3574 486.583 45.4512C486.271 46.1608 486.114 47.0365 486.114 48.0781C486.114 49.1263 486.336 50.0085 486.779 50.7246C487.221 51.4408 487.918 51.7988 488.868 51.7988C489.598 51.7988 490.174 51.5775 490.597 51.1348C491.027 50.6855 491.323 50.0736 491.486 49.2988H493.195C492.999 50.6855 492.511 51.7012 491.73 52.3457C490.948 52.9837 489.949 53.3027 488.732 53.3027C487.364 53.3027 486.274 52.8047 485.46 51.8086C484.646 50.806 484.239 49.556 484.239 48.0586C484.239 46.2227 484.685 44.7936 485.577 43.7715C486.469 42.7493 487.605 42.2383 488.986 42.2383ZM495.604 39.6211H497.381V42.541H499.051V43.9766H497.381V50.8027C497.381 51.1673 497.505 51.4115 497.752 51.5352C497.889 51.6068 498.117 51.6426 498.436 51.6426C498.521 51.6426 498.612 51.6426 498.709 51.6426C498.807 51.6361 498.921 51.6263 499.051 51.6133V53C498.849 53.0586 498.638 53.1009 498.416 53.127C498.202 53.153 497.967 53.166 497.713 53.166C496.893 53.166 496.336 52.9577 496.043 52.541C495.75 52.1178 495.604 51.571 495.604 50.9004V43.9766H494.188V42.541H495.604V39.6211ZM501.119 42.5898H502.906V53H501.119V42.5898ZM501.119 38.6543H502.906V40.6465H501.119V38.6543ZM510.022 51.8672C511.188 51.8672 511.985 51.4277 512.415 50.5488C512.851 49.6634 513.069 48.6803 513.069 47.5996C513.069 46.623 512.913 45.8288 512.6 45.2168C512.106 44.2533 511.253 43.7715 510.042 43.7715C508.968 43.7715 508.186 44.1816 507.698 45.002C507.21 45.8223 506.966 46.8118 506.966 47.9707C506.966 49.084 507.21 50.0117 507.698 50.7539C508.186 51.4961 508.961 51.8672 510.022 51.8672ZM510.091 42.2383C511.438 42.2383 512.578 42.6875 513.509 43.5859C514.44 44.4844 514.905 45.806 514.905 47.5508C514.905 49.237 514.495 50.6302 513.675 51.7305C512.854 52.8307 511.582 53.3809 509.856 53.3809C508.417 53.3809 507.275 52.8958 506.429 51.9258C505.582 50.9492 505.159 49.6406 505.159 48C505.159 46.2422 505.605 44.8424 506.497 43.8008C507.389 42.7591 508.587 42.2383 510.091 42.2383ZM517.305 42.541H518.975V44.0254C519.469 43.4134 519.993 42.974 520.547 42.707C521.1 42.4401 521.715 42.3066 522.393 42.3066C523.877 42.3066 524.88 42.8242 525.4 43.8594C525.687 44.4258 525.83 45.2363 525.83 46.291V53H524.043V46.4082C524.043 45.7702 523.949 45.2559 523.76 44.8652C523.447 44.2142 522.881 43.8887 522.061 43.8887C521.644 43.8887 521.302 43.931 521.035 44.0156C520.553 44.1589 520.13 44.4453 519.766 44.875C519.473 45.2201 519.281 45.5781 519.189 45.9492C519.105 46.3138 519.062 46.8379 519.062 47.5215V53H517.305V42.541ZM529.782 49.7188C529.835 50.3047 529.981 50.7539 530.222 51.0664C530.665 51.6328 531.433 51.916 532.527 51.916C533.178 51.916 533.751 51.776 534.245 51.4961C534.74 51.2096 534.988 50.7702 534.988 50.1777C534.988 49.7285 534.789 49.3867 534.392 49.1523C534.138 49.0091 533.637 48.8431 532.888 48.6543L531.491 48.3027C530.599 48.0814 529.942 47.834 529.519 47.5605C528.764 47.0853 528.386 46.4277 528.386 45.5879C528.386 44.5983 528.741 43.7975 529.45 43.1855C530.167 42.5736 531.127 42.2676 532.331 42.2676C533.907 42.2676 535.043 42.7298 535.739 43.6543C536.176 44.2402 536.387 44.8717 536.374 45.5488H534.714C534.682 45.1517 534.542 44.7904 534.294 44.4648C533.89 44.0026 533.191 43.7715 532.195 43.7715C531.53 43.7715 531.026 43.8984 530.681 44.1523C530.342 44.4062 530.173 44.7415 530.173 45.1582C530.173 45.6139 530.398 45.9785 530.847 46.252C531.107 46.4147 531.491 46.5579 531.999 46.6816L533.161 46.9648C534.424 47.2708 535.271 47.5671 535.7 47.8535C536.384 48.3027 536.726 49.0091 536.726 49.9727C536.726 50.9036 536.371 51.7077 535.661 52.3848C534.958 53.0618 533.884 53.4004 532.439 53.4004C530.883 53.4004 529.779 53.0488 529.128 52.3457C528.484 51.6361 528.139 50.7604 528.093 49.7188H529.782ZM379.729 66.9492C379.755 66.2201 379.882 65.6862 380.109 65.3477C380.52 64.7487 381.311 64.4492 382.482 64.4492C382.593 64.4492 382.707 64.4525 382.824 64.459C382.941 64.4655 383.075 64.4753 383.225 64.4883V66.0898C383.042 66.0768 382.909 66.0703 382.824 66.0703C382.746 66.0638 382.671 66.0605 382.6 66.0605C382.066 66.0605 381.747 66.2005 381.643 66.4805C381.538 66.7539 381.486 67.457 381.486 68.5898H383.225V69.9766H381.467V79H379.729V69.9766H378.273V68.5898H379.729V66.9492ZM389.511 68.3066C390.253 68.3066 390.973 68.4824 391.669 68.834C392.366 69.179 392.896 69.6283 393.261 70.1816C393.613 70.709 393.847 71.3242 393.964 72.0273C394.068 72.5091 394.12 73.2773 394.12 74.332H386.454C386.487 75.3932 386.738 76.2461 387.206 76.8906C387.675 77.5286 388.401 77.8477 389.384 77.8477C390.302 77.8477 391.034 77.5449 391.581 76.9395C391.894 76.5879 392.115 76.181 392.245 75.7188H393.974C393.928 76.1029 393.775 76.5326 393.515 77.0078C393.261 77.4766 392.974 77.8607 392.655 78.1602C392.122 78.681 391.461 79.0326 390.673 79.2148C390.25 79.319 389.771 79.3711 389.238 79.3711C387.935 79.3711 386.832 78.8991 385.927 77.9551C385.022 77.0046 384.57 75.6764 384.57 73.9707C384.57 72.291 385.025 70.9271 385.937 69.8789C386.848 68.8307 388.04 68.3066 389.511 68.3066ZM392.314 72.9355C392.242 72.1738 392.076 71.5651 391.816 71.1094C391.334 70.263 390.53 69.8398 389.404 69.8398C388.596 69.8398 387.919 70.1328 387.372 70.7188C386.825 71.2982 386.536 72.0371 386.503 72.9355H392.314ZM400.944 68.3066C401.686 68.3066 402.405 68.4824 403.102 68.834C403.799 69.179 404.329 69.6283 404.694 70.1816C405.045 70.709 405.28 71.3242 405.397 72.0273C405.501 72.5091 405.553 73.2773 405.553 74.332H397.887C397.92 75.3932 398.17 76.2461 398.639 76.8906C399.108 77.5286 399.834 77.8477 400.817 77.8477C401.735 77.8477 402.467 77.5449 403.014 76.9395C403.327 76.5879 403.548 76.181 403.678 75.7188H405.407C405.361 76.1029 405.208 76.5326 404.948 77.0078C404.694 77.4766 404.407 77.8607 404.088 78.1602C403.554 78.681 402.894 79.0326 402.106 79.2148C401.683 79.319 401.204 79.3711 400.67 79.3711C399.368 79.3711 398.265 78.8991 397.36 77.9551C396.455 77.0046 396.002 75.6764 396.002 73.9707C396.002 72.291 396.458 70.9271 397.37 69.8789C398.281 68.8307 399.472 68.3066 400.944 68.3066ZM403.746 72.9355C403.675 72.1738 403.509 71.5651 403.248 71.1094C402.767 70.263 401.963 69.8398 400.836 69.8398C400.029 69.8398 399.352 70.1328 398.805 70.7188C398.258 71.2982 397.968 72.0371 397.936 72.9355H403.746ZM409.066 75.7188C409.118 76.3047 409.265 76.7539 409.505 77.0664C409.948 77.6328 410.716 77.916 411.81 77.916C412.461 77.916 413.034 77.776 413.529 77.4961C414.024 77.2096 414.271 76.7702 414.271 76.1777C414.271 75.7285 414.073 75.3867 413.675 75.1523C413.421 75.0091 412.92 74.8431 412.171 74.6543L410.775 74.3027C409.883 74.0814 409.226 73.834 408.802 73.5605C408.047 73.0853 407.67 72.4277 407.67 71.5879C407.67 70.5983 408.024 69.7975 408.734 69.1855C409.45 68.5736 410.41 68.2676 411.615 68.2676C413.19 68.2676 414.326 68.7298 415.023 69.6543C415.459 70.2402 415.671 70.8717 415.658 71.5488H413.998C413.965 71.1517 413.825 70.7904 413.578 70.4648C413.174 70.0026 412.474 69.7715 411.478 69.7715C410.814 69.7715 410.31 69.8984 409.964 70.1523C409.626 70.4062 409.457 70.7415 409.457 71.1582C409.457 71.6139 409.681 71.9785 410.13 72.252C410.391 72.4147 410.775 72.5579 411.283 72.6816L412.445 72.9648C413.708 73.2708 414.554 73.5671 414.984 73.8535C415.668 74.3027 416.009 75.0091 416.009 75.9727C416.009 76.9036 415.655 77.7077 414.945 78.3848C414.242 79.0618 413.168 79.4004 411.722 79.4004C410.166 79.4004 409.063 79.0488 408.412 78.3457C407.767 77.6361 407.422 76.7604 407.377 75.7188H409.066ZM425.535 76.2168C425.535 76.7246 425.721 77.125 426.092 77.418C426.463 77.7109 426.902 77.8574 427.41 77.8574C428.029 77.8574 428.628 77.7142 429.207 77.4277C430.184 76.9525 430.672 76.1745 430.672 75.0938V73.6777C430.457 73.8145 430.18 73.9284 429.842 74.0195C429.503 74.1107 429.171 74.1758 428.846 74.2148L427.781 74.3516C427.143 74.4362 426.665 74.5697 426.346 74.752C425.805 75.0579 425.535 75.5462 425.535 76.2168ZM429.793 72.6621C430.197 72.61 430.467 72.4408 430.604 72.1543C430.682 71.998 430.721 71.7734 430.721 71.4805C430.721 70.8815 430.506 70.4486 430.076 70.1816C429.653 69.9082 429.044 69.7715 428.25 69.7715C427.332 69.7715 426.681 70.0189 426.297 70.5137C426.082 70.7871 425.942 71.194 425.877 71.7344H424.236C424.269 70.4453 424.686 69.5501 425.486 69.0488C426.294 68.541 427.228 68.2871 428.289 68.2871C429.52 68.2871 430.519 68.5215 431.287 68.9902C432.049 69.459 432.43 70.1882 432.43 71.1777V77.2031C432.43 77.3854 432.465 77.5319 432.537 77.6426C432.615 77.7533 432.775 77.8086 433.016 77.8086C433.094 77.8086 433.182 77.8053 433.279 77.7988C433.377 77.7858 433.481 77.7695 433.592 77.75V79.0488C433.318 79.127 433.11 79.1758 432.967 79.1953C432.824 79.2148 432.628 79.2246 432.381 79.2246C431.775 79.2246 431.336 79.0098 431.062 78.5801C430.919 78.3522 430.818 78.0299 430.76 77.6133C430.402 78.082 429.887 78.4889 429.217 78.834C428.546 79.179 427.807 79.3516 427 79.3516C426.03 79.3516 425.236 79.0586 424.617 78.4727C424.005 77.8802 423.699 77.1413 423.699 76.2559C423.699 75.2858 424.002 74.5339 424.607 74C425.213 73.4661 426.007 73.1374 426.99 73.0137L429.793 72.6621ZM435.669 68.541H437.339V70.3477C437.476 69.9961 437.811 69.5697 438.345 69.0684C438.879 68.5605 439.494 68.3066 440.191 68.3066C440.223 68.3066 440.279 68.3099 440.357 68.3164C440.435 68.3229 440.568 68.3359 440.757 68.3555V70.2109C440.653 70.1914 440.555 70.1784 440.464 70.1719C440.379 70.1654 440.285 70.1621 440.181 70.1621C439.295 70.1621 438.615 70.4486 438.14 71.0215C437.665 71.5879 437.427 72.2422 437.427 72.9844V79H435.669V68.541ZM446.936 68.3066C447.678 68.3066 448.398 68.4824 449.094 68.834C449.791 69.179 450.321 69.6283 450.686 70.1816C451.037 70.709 451.272 71.3242 451.389 72.0273C451.493 72.5091 451.545 73.2773 451.545 74.332H443.879C443.912 75.3932 444.162 76.2461 444.631 76.8906C445.1 77.5286 445.826 77.8477 446.809 77.8477C447.727 77.8477 448.459 77.5449 449.006 76.9395C449.319 76.5879 449.54 76.181 449.67 75.7188H451.399C451.353 76.1029 451.2 76.5326 450.94 77.0078C450.686 77.4766 450.399 77.8607 450.08 78.1602C449.547 78.681 448.886 79.0326 448.098 79.2148C447.675 79.319 447.196 79.3711 446.662 79.3711C445.36 79.3711 444.257 78.8991 443.352 77.9551C442.447 77.0046 441.995 75.6764 441.995 73.9707C441.995 72.291 442.45 70.9271 443.362 69.8789C444.273 68.8307 445.465 68.3066 446.936 68.3066ZM449.739 72.9355C449.667 72.1738 449.501 71.5651 449.241 71.1094C448.759 70.263 447.955 69.8398 446.829 69.8398C446.021 69.8398 445.344 70.1328 444.797 70.7188C444.25 71.2982 443.961 72.0371 443.928 72.9355H449.739ZM464.03 77.8672C465.195 77.8672 465.993 77.4277 466.423 76.5488C466.859 75.6634 467.077 74.6803 467.077 73.5996C467.077 72.623 466.921 71.8288 466.608 71.2168C466.113 70.2533 465.261 69.7715 464.05 69.7715C462.975 69.7715 462.194 70.1816 461.706 71.002C461.218 71.8223 460.973 72.8118 460.973 73.9707C460.973 75.084 461.218 76.0117 461.706 76.7539C462.194 77.4961 462.969 77.8672 464.03 77.8672ZM464.098 68.2383C465.446 68.2383 466.585 68.6875 467.516 69.5859C468.447 70.4844 468.913 71.806 468.913 73.5508C468.913 75.237 468.503 76.6302 467.682 77.7305C466.862 78.8307 465.589 79.3809 463.864 79.3809C462.425 79.3809 461.283 78.8958 460.436 77.9258C459.59 76.9492 459.167 75.6406 459.167 74C459.167 72.2422 459.613 70.8424 460.505 69.8008C461.397 68.7591 462.595 68.2383 464.098 68.2383ZM471.312 68.541H472.982V70.0254C473.477 69.4134 474.001 68.974 474.555 68.707C475.108 68.4401 475.723 68.3066 476.4 68.3066C477.885 68.3066 478.887 68.8242 479.408 69.8594C479.695 70.4258 479.838 71.2363 479.838 72.291V79H478.051V72.4082C478.051 71.7702 477.956 71.2559 477.768 70.8652C477.455 70.2142 476.889 69.8887 476.068 69.8887C475.652 69.8887 475.31 69.931 475.043 70.0156C474.561 70.1589 474.138 70.4453 473.773 70.875C473.48 71.2201 473.288 71.5781 473.197 71.9492C473.113 72.3138 473.07 72.8379 473.07 73.5215V79H471.312V68.541ZM482.794 64.6543H484.552V79H482.794V64.6543ZM494.032 68.541H495.975C495.728 69.2116 495.177 70.7415 494.325 73.1309C493.687 74.9277 493.153 76.3926 492.723 77.5254C491.707 80.1947 490.991 81.8223 490.575 82.4082C490.158 82.9941 489.442 83.2871 488.426 83.2871C488.179 83.2871 487.987 83.2773 487.85 83.2578C487.72 83.2383 487.557 83.2025 487.362 83.1504V81.5488C487.668 81.6335 487.889 81.6855 488.026 81.7051C488.162 81.7246 488.283 81.7344 488.387 81.7344C488.713 81.7344 488.95 81.679 489.1 81.5684C489.256 81.4642 489.386 81.334 489.491 81.1777C489.523 81.1257 489.64 80.8587 489.842 80.377C490.044 79.8952 490.19 79.5371 490.282 79.3027L486.414 68.541H488.407L491.209 77.0566L494.032 68.541ZM505.012 76.2168C505.012 76.7246 505.198 77.125 505.569 77.418C505.94 77.7109 506.38 77.8574 506.887 77.8574C507.506 77.8574 508.105 77.7142 508.684 77.4277C509.661 76.9525 510.149 76.1745 510.149 75.0938V73.6777C509.934 73.8145 509.658 73.9284 509.319 74.0195C508.981 74.1107 508.649 74.1758 508.323 74.2148L507.259 74.3516C506.621 74.4362 506.142 74.5697 505.823 74.752C505.283 75.0579 505.012 75.5462 505.012 76.2168ZM509.27 72.6621C509.674 72.61 509.944 72.4408 510.081 72.1543C510.159 71.998 510.198 71.7734 510.198 71.4805C510.198 70.8815 509.983 70.4486 509.554 70.1816C509.13 69.9082 508.522 69.7715 507.727 69.7715C506.809 69.7715 506.158 70.0189 505.774 70.5137C505.559 70.7871 505.419 71.194 505.354 71.7344H503.714C503.746 70.4453 504.163 69.5501 504.964 69.0488C505.771 68.541 506.705 68.2871 507.766 68.2871C508.997 68.2871 509.996 68.5215 510.764 68.9902C511.526 69.459 511.907 70.1882 511.907 71.1777V77.2031C511.907 77.3854 511.943 77.5319 512.014 77.6426C512.093 77.7533 512.252 77.8086 512.493 77.8086C512.571 77.8086 512.659 77.8053 512.757 77.7988C512.854 77.7858 512.958 77.7695 513.069 77.75V79.0488C512.796 79.127 512.587 79.1758 512.444 79.1953C512.301 79.2148 512.106 79.2246 511.858 79.2246C511.253 79.2246 510.813 79.0098 510.54 78.5801C510.397 78.3522 510.296 78.0299 510.237 77.6133C509.879 78.082 509.365 78.4889 508.694 78.834C508.024 79.179 507.285 79.3516 506.477 79.3516C505.507 79.3516 504.713 79.0586 504.095 78.4727C503.483 77.8802 503.177 77.1413 503.177 76.2559C503.177 75.2858 503.479 74.5339 504.085 74C504.69 73.4661 505.485 73.1374 506.468 73.0137L509.27 72.6621ZM515.537 66.9492C515.563 66.2201 515.69 65.6862 515.918 65.3477C516.328 64.7487 517.119 64.4492 518.291 64.4492C518.402 64.4492 518.516 64.4525 518.633 64.459C518.75 64.4655 518.883 64.4753 519.033 64.4883V66.0898C518.851 66.0768 518.717 66.0703 518.633 66.0703C518.555 66.0638 518.48 66.0605 518.408 66.0605C517.874 66.0605 517.555 66.2005 517.451 66.4805C517.347 66.7539 517.295 67.457 517.295 68.5898H519.033V69.9766H517.275V79H515.537V69.9766H514.082V68.5898H515.537V66.9492ZM521.052 66.9492C521.078 66.2201 521.205 65.6862 521.433 65.3477C521.843 64.7487 522.634 64.4492 523.806 64.4492C523.917 64.4492 524.03 64.4525 524.148 64.459C524.265 64.4655 524.398 64.4753 524.548 64.4883V66.0898C524.366 66.0768 524.232 66.0703 524.148 66.0703C524.07 66.0638 523.995 66.0605 523.923 66.0605C523.389 66.0605 523.07 66.2005 522.966 66.4805C522.862 66.7539 522.81 67.457 522.81 68.5898H524.548V69.9766H522.79V79H521.052V69.9766H519.597V68.5898H521.052V66.9492ZM530.629 77.8672C531.795 77.8672 532.592 77.4277 533.022 76.5488C533.458 75.6634 533.676 74.6803 533.676 73.5996C533.676 72.623 533.52 71.8288 533.207 71.2168C532.713 70.2533 531.86 69.7715 530.649 69.7715C529.575 69.7715 528.793 70.1816 528.305 71.002C527.817 71.8223 527.573 72.8118 527.573 73.9707C527.573 75.084 527.817 76.0117 528.305 76.7539C528.793 77.4961 529.568 77.8672 530.629 77.8672ZM530.698 68.2383C532.045 68.2383 533.185 68.6875 534.116 69.5859C535.047 70.4844 535.512 71.806 535.512 73.5508C535.512 75.237 535.102 76.6302 534.282 77.7305C533.461 78.8307 532.189 79.3809 530.463 79.3809C529.024 79.3809 527.882 78.8958 527.036 77.9258C526.189 76.9492 525.766 75.6406 525.766 74C525.766 72.2422 526.212 70.8424 527.104 69.8008C527.996 68.7591 529.194 68.2383 530.698 68.2383ZM537.961 68.541H539.63V70.3477C539.767 69.9961 540.102 69.5697 540.636 69.0684C541.17 68.5605 541.785 68.3066 542.482 68.3066C542.515 68.3066 542.57 68.3099 542.648 68.3164C542.726 68.3229 542.86 68.3359 543.048 68.3555V70.2109C542.944 70.1914 542.847 70.1784 542.755 70.1719C542.671 70.1654 542.576 70.1621 542.472 70.1621C541.587 70.1621 540.907 70.4486 540.431 71.0215C539.956 71.5879 539.718 72.2422 539.718 72.9844V79H537.961V68.541ZM545.985 73.8926C545.985 75.0124 546.223 75.9499 546.698 76.7051C547.173 77.4603 547.935 77.8379 548.983 77.8379C549.797 77.8379 550.464 77.4896 550.985 76.793C551.512 76.0898 551.776 75.084 551.776 73.7754C551.776 72.4538 551.506 71.4772 550.966 70.8457C550.425 70.2077 549.758 69.8887 548.964 69.8887C548.078 69.8887 547.359 70.2272 546.805 70.9043C546.259 71.5814 545.985 72.5775 545.985 73.8926ZM548.632 68.3555C549.432 68.3555 550.103 68.5247 550.643 68.8633C550.956 69.0586 551.311 69.4004 551.708 69.8887V64.6055H553.397V79H551.815V77.5449C551.405 78.1895 550.92 78.6549 550.36 78.9414C549.8 79.2279 549.159 79.3711 548.436 79.3711C547.271 79.3711 546.262 78.8828 545.409 77.9062C544.556 76.9232 544.13 75.6178 544.13 73.9902C544.13 72.4668 544.517 71.1484 545.292 70.0352C546.073 68.9154 547.186 68.3555 548.632 68.3555ZM557.652 76.2168C557.652 76.7246 557.838 77.125 558.209 77.418C558.58 77.7109 559.02 77.8574 559.527 77.8574C560.146 77.8574 560.745 77.7142 561.324 77.4277C562.301 76.9525 562.789 76.1745 562.789 75.0938V73.6777C562.574 73.8145 562.298 73.9284 561.959 74.0195C561.62 74.1107 561.288 74.1758 560.963 74.2148L559.898 74.3516C559.26 74.4362 558.782 74.5697 558.463 74.752C557.923 75.0579 557.652 75.5462 557.652 76.2168ZM561.91 72.6621C562.314 72.61 562.584 72.4408 562.721 72.1543C562.799 71.998 562.838 71.7734 562.838 71.4805C562.838 70.8815 562.623 70.4486 562.193 70.1816C561.77 69.9082 561.161 69.7715 560.367 69.7715C559.449 69.7715 558.798 70.0189 558.414 70.5137C558.199 70.7871 558.059 71.194 557.994 71.7344H556.354C556.386 70.4453 556.803 69.5501 557.604 69.0488C558.411 68.541 559.345 68.2871 560.406 68.2871C561.637 68.2871 562.636 68.5215 563.404 68.9902C564.166 69.459 564.547 70.1882 564.547 71.1777V77.2031C564.547 77.3854 564.583 77.5319 564.654 77.6426C564.732 77.7533 564.892 77.8086 565.133 77.8086C565.211 77.8086 565.299 77.8053 565.396 77.7988C565.494 77.7858 565.598 77.7695 565.709 77.75V79.0488C565.436 79.127 565.227 79.1758 565.084 79.1953C564.941 79.2148 564.745 79.2246 564.498 79.2246C563.893 79.2246 563.453 79.0098 563.18 78.5801C563.036 78.3522 562.936 78.0299 562.877 77.6133C562.519 78.082 562.005 78.4889 561.334 78.834C560.663 79.179 559.924 79.3516 559.117 79.3516C558.147 79.3516 557.353 79.0586 556.734 78.4727C556.122 77.8802 555.816 77.1413 555.816 76.2559C555.816 75.2858 556.119 74.5339 556.725 74C557.33 73.4661 558.124 73.1374 559.107 73.0137L561.91 72.6621ZM567.601 64.6055H569.31V69.8105C569.694 69.3092 570.153 68.9284 570.687 68.668C571.221 68.401 571.8 68.2676 572.425 68.2676C573.727 68.2676 574.782 68.7168 575.589 69.6152C576.403 70.5072 576.81 71.8255 576.81 73.5703C576.81 75.224 576.409 76.5977 575.609 77.6914C574.808 78.7852 573.698 79.332 572.279 79.332C571.484 79.332 570.814 79.14 570.267 78.7559C569.941 78.528 569.593 78.1634 569.222 77.6621V79H567.601V64.6055ZM572.171 77.7793C573.122 77.7793 573.831 77.4017 574.3 76.6465C574.775 75.8913 575.013 74.8952 575.013 73.6582C575.013 72.5579 574.775 71.6465 574.3 70.9238C573.831 70.2012 573.138 69.8398 572.22 69.8398C571.419 69.8398 570.716 70.1361 570.111 70.7285C569.512 71.321 569.212 72.2975 569.212 73.6582C569.212 74.6413 569.336 75.4388 569.583 76.0508C570.045 77.2031 570.908 77.7793 572.171 77.7793ZM579.219 64.6543H580.977V79H579.219V64.6543ZM588.279 68.3066C589.021 68.3066 589.74 68.4824 590.437 68.834C591.134 69.179 591.664 69.6283 592.029 70.1816C592.38 70.709 592.615 71.3242 592.732 72.0273C592.836 72.5091 592.888 73.2773 592.888 74.332H585.222C585.255 75.3932 585.505 76.2461 585.974 76.8906C586.443 77.5286 587.169 77.8477 588.152 77.8477C589.07 77.8477 589.802 77.5449 590.349 76.9395C590.662 76.5879 590.883 76.181 591.013 75.7188H592.742C592.696 76.1029 592.543 76.5326 592.283 77.0078C592.029 77.4766 591.742 77.8607 591.423 78.1602C590.89 78.681 590.229 79.0326 589.441 79.2148C589.018 79.319 588.539 79.3711 588.005 79.3711C586.703 79.3711 585.6 78.8991 584.695 77.9551C583.79 77.0046 583.337 75.6764 583.337 73.9707C583.337 72.291 583.793 70.9271 584.705 69.8789C585.616 68.8307 586.808 68.3066 588.279 68.3066ZM591.082 72.9355C591.01 72.1738 590.844 71.5651 590.584 71.1094C590.102 70.263 589.298 69.8398 588.171 69.8398C587.364 69.8398 586.687 70.1328 586.14 70.7188C585.593 71.2982 585.304 72.0371 585.271 72.9355H591.082ZM379.152 90.6055H380.861V95.8105C381.245 95.3092 381.704 94.9284 382.238 94.668C382.772 94.401 383.352 94.2676 383.977 94.2676C385.279 94.2676 386.333 94.7168 387.141 95.6152C387.954 96.5072 388.361 97.8255 388.361 99.5703C388.361 101.224 387.961 102.598 387.16 103.691C386.359 104.785 385.249 105.332 383.83 105.332C383.036 105.332 382.365 105.14 381.818 104.756C381.493 104.528 381.145 104.163 380.773 103.662V105H379.152V90.6055ZM383.723 103.779C384.673 103.779 385.383 103.402 385.852 102.646C386.327 101.891 386.564 100.895 386.564 99.6582C386.564 98.5579 386.327 97.6465 385.852 96.9238C385.383 96.2012 384.689 95.8398 383.771 95.8398C382.971 95.8398 382.268 96.1361 381.662 96.7285C381.063 97.321 380.764 98.2975 380.764 99.6582C380.764 100.641 380.887 101.439 381.135 102.051C381.597 103.203 382.46 103.779 383.723 103.779ZM397.255 94.541H399.198C398.951 95.2116 398.401 96.7415 397.548 99.1309C396.91 100.928 396.376 102.393 395.946 103.525C394.931 106.195 394.215 107.822 393.798 108.408C393.381 108.994 392.665 109.287 391.65 109.287C391.402 109.287 391.21 109.277 391.073 109.258C390.943 109.238 390.78 109.202 390.585 109.15V107.549C390.891 107.633 391.113 107.686 391.249 107.705C391.386 107.725 391.506 107.734 391.611 107.734C391.936 107.734 392.174 107.679 392.323 107.568C392.48 107.464 392.61 107.334 392.714 107.178C392.747 107.126 392.864 106.859 393.066 106.377C393.267 105.895 393.414 105.537 393.505 105.303L389.638 94.541H391.63L394.433 103.057L397.255 94.541ZM407.24 91.6211H409.017V94.541H410.687V95.9766H409.017V102.803C409.017 103.167 409.141 103.411 409.388 103.535C409.525 103.607 409.753 103.643 410.072 103.643C410.157 103.643 410.248 103.643 410.345 103.643C410.443 103.636 410.557 103.626 410.687 103.613V105C410.485 105.059 410.274 105.101 410.052 105.127C409.837 105.153 409.603 105.166 409.349 105.166C408.529 105.166 407.972 104.958 407.679 104.541C407.386 104.118 407.24 103.571 407.24 102.9V95.9766H405.824V94.541H407.24V91.6211ZM412.755 90.6055H414.513V95.957C414.929 95.4297 415.304 95.0586 415.636 94.8438C416.202 94.4727 416.908 94.2871 417.755 94.2871C419.272 94.2871 420.3 94.8177 420.841 95.8789C421.134 96.4583 421.28 97.2624 421.28 98.291V105H419.473V98.4082C419.473 97.64 419.376 97.0768 419.18 96.7188C418.861 96.1458 418.263 95.8594 417.384 95.8594C416.654 95.8594 415.994 96.11 415.401 96.6113C414.809 97.1126 414.513 98.0599 414.513 99.4531V105H412.755V90.6055ZM428.543 94.3066C429.285 94.3066 430.005 94.4824 430.701 94.834C431.398 95.179 431.928 95.6283 432.293 96.1816C432.645 96.709 432.879 97.3242 432.996 98.0273C433.1 98.5091 433.152 99.2773 433.152 100.332H425.486C425.519 101.393 425.77 102.246 426.238 102.891C426.707 103.529 427.433 103.848 428.416 103.848C429.334 103.848 430.066 103.545 430.613 102.939C430.926 102.588 431.147 102.181 431.277 101.719H433.006C432.96 102.103 432.807 102.533 432.547 103.008C432.293 103.477 432.007 103.861 431.688 104.16C431.154 104.681 430.493 105.033 429.705 105.215C429.282 105.319 428.803 105.371 428.27 105.371C426.967 105.371 425.864 104.899 424.959 103.955C424.054 103.005 423.602 101.676 423.602 99.9707C423.602 98.291 424.057 96.9271 424.969 95.8789C425.88 94.8307 427.072 94.3066 428.543 94.3066ZM431.346 98.9355C431.274 98.1738 431.108 97.5651 430.848 97.1094C430.366 96.263 429.562 95.8398 428.436 95.8398C427.628 95.8398 426.951 96.1328 426.404 96.7188C425.857 97.2982 425.568 98.0371 425.535 98.9355H431.346ZM442.297 94.541L444.309 102.783L446.35 94.541H448.323L450.373 102.734L452.512 94.541H454.27L451.233 105H449.407L447.278 96.9043L445.217 105H443.391L440.373 94.541H442.297ZM460.595 94.3066C461.338 94.3066 462.057 94.4824 462.754 94.834C463.45 95.179 463.981 95.6283 464.345 96.1816C464.697 96.709 464.931 97.3242 465.048 98.0273C465.153 98.5091 465.205 99.2773 465.205 100.332H457.539C457.571 101.393 457.822 102.246 458.291 102.891C458.759 103.529 459.485 103.848 460.468 103.848C461.386 103.848 462.119 103.545 462.666 102.939C462.978 102.588 463.199 102.181 463.33 101.719H465.058C465.013 102.103 464.86 102.533 464.599 103.008C464.345 103.477 464.059 103.861 463.74 104.16C463.206 104.681 462.545 105.033 461.757 105.215C461.334 105.319 460.856 105.371 460.322 105.371C459.02 105.371 457.916 104.899 457.011 103.955C456.106 103.005 455.654 101.676 455.654 99.9707C455.654 98.291 456.11 96.9271 457.021 95.8789C457.933 94.8307 459.124 94.3066 460.595 94.3066ZM463.398 98.9355C463.326 98.1738 463.16 97.5651 462.9 97.1094C462.418 96.263 461.614 95.8398 460.488 95.8398C459.681 95.8398 459.004 96.1328 458.457 96.7188C457.91 97.2982 457.62 98.0371 457.588 98.9355H463.398ZM469.02 102.217C469.02 102.725 469.206 103.125 469.577 103.418C469.948 103.711 470.387 103.857 470.895 103.857C471.514 103.857 472.113 103.714 472.692 103.428C473.669 102.952 474.157 102.174 474.157 101.094V99.6777C473.942 99.8145 473.665 99.9284 473.327 100.02C472.988 100.111 472.656 100.176 472.331 100.215L471.266 100.352C470.628 100.436 470.15 100.57 469.831 100.752C469.29 101.058 469.02 101.546 469.02 102.217ZM473.278 98.6621C473.682 98.61 473.952 98.4408 474.089 98.1543C474.167 97.998 474.206 97.7734 474.206 97.4805C474.206 96.8815 473.991 96.4486 473.561 96.1816C473.138 95.9082 472.529 95.7715 471.735 95.7715C470.817 95.7715 470.166 96.0189 469.782 96.5137C469.567 96.7871 469.427 97.194 469.362 97.7344H467.721C467.754 96.4453 468.171 95.5501 468.971 95.0488C469.779 94.541 470.713 94.2871 471.774 94.2871C473.005 94.2871 474.004 94.5215 474.772 94.9902C475.534 95.459 475.915 96.1882 475.915 97.1777V103.203C475.915 103.385 475.951 103.532 476.022 103.643C476.1 103.753 476.26 103.809 476.501 103.809C476.579 103.809 476.667 103.805 476.764 103.799C476.862 103.786 476.966 103.77 477.077 103.75V105.049C476.804 105.127 476.595 105.176 476.452 105.195C476.309 105.215 476.113 105.225 475.866 105.225C475.261 105.225 474.821 105.01 474.548 104.58C474.404 104.352 474.304 104.03 474.245 103.613C473.887 104.082 473.373 104.489 472.702 104.834C472.031 105.179 471.292 105.352 470.485 105.352C469.515 105.352 468.721 105.059 468.102 104.473C467.49 103.88 467.184 103.141 467.184 102.256C467.184 101.286 467.487 100.534 468.093 100C468.698 99.4661 469.492 99.1374 470.475 99.0137L473.278 98.6621ZM479.154 90.6543H480.912V105H479.154V90.6543ZM484.21 91.6211H485.988V94.541H487.657V95.9766H485.988V102.803C485.988 103.167 486.111 103.411 486.359 103.535C486.495 103.607 486.723 103.643 487.042 103.643C487.127 103.643 487.218 103.643 487.316 103.643C487.413 103.636 487.527 103.626 487.657 103.613V105C487.456 105.059 487.244 105.101 487.023 105.127C486.808 105.153 486.573 105.166 486.32 105.166C485.499 105.166 484.943 104.958 484.65 104.541C484.357 104.118 484.21 103.571 484.21 102.9V95.9766H482.794V94.541H484.21V91.6211ZM489.725 90.6055H491.483V95.957C491.899 95.4297 492.274 95.0586 492.606 94.8438C493.172 94.4727 493.879 94.2871 494.725 94.2871C496.242 94.2871 497.271 94.8177 497.811 95.8789C498.104 96.4583 498.25 97.2624 498.25 98.291V105H496.444V98.4082C496.444 97.64 496.346 97.0768 496.151 96.7188C495.832 96.1458 495.233 95.8594 494.354 95.8594C493.625 95.8594 492.964 96.11 492.371 96.6113C491.779 97.1126 491.483 98.0599 491.483 99.4531V105H489.725V90.6055ZM507.691 94.541H509.634C509.387 95.2116 508.837 96.7415 507.984 99.1309C507.346 100.928 506.812 102.393 506.382 103.525C505.367 106.195 504.651 107.822 504.234 108.408C503.817 108.994 503.101 109.287 502.086 109.287C501.838 109.287 501.646 109.277 501.509 109.258C501.379 109.238 501.216 109.202 501.021 109.15V107.549C501.327 107.633 501.548 107.686 501.685 107.705C501.822 107.725 501.942 107.734 502.046 107.734C502.372 107.734 502.61 107.679 502.759 107.568C502.916 107.464 503.046 107.334 503.15 107.178C503.183 107.126 503.3 106.859 503.502 106.377C503.703 105.895 503.85 105.537 503.941 105.303L500.074 94.541H502.066L504.869 103.057L507.691 94.541Z" fill="white"/>
<path d="M780 423C780 306.233 780 240.767 780 124L772 124L772 423L780 423Z" fill="url(#paint0_linear)"/>
<path d="M171 64C171 157.726 171 210.274 171 304L179 304L179 64L171 64Z" fill="url(#paint1_linear)"/>
<path d="M199 132.5C242.833 104.333 336.9 60.8999 362.5 112.5C394.5 177 345.747 254 422 254C512 254 508 437.5 594 346C662.8 272.8 730.333 348.833 755.5 396" stroke="#83E9D7" stroke-width="4"/>
<g filter="url(#filter0_b)">
<circle cx="338" cy="93" r="14" fill="white" fill-opacity="0.7"/>
</g>
<g filter="url(#filter1_d)">
<circle cx="338" cy="93" r="9" fill="url(#paint2_linear)"/>
</g>
<defs>
<filter id="filter0_b" x="320" y="75" width="36" height="36" filterUnits="userSpaceOnUse" color-interpolation-filters="sRGB">
<feFlood flood-opacity="0" result="BackgroundImageFix"/>
<feGaussianBlur in="BackgroundImage" stdDeviation="2"/>
<feComposite in2="SourceAlpha" operator="in" result="effect1_backgroundBlur"/>
<feBlend mode="normal" in="SourceGraphic" in2="effect1_backgroundBlur" result="shape"/>
</filter>
<filter id="filter1_d" x="319" y="74" width="38" height="38" filterUnits="userSpaceOnUse" color-interpolation-filters="sRGB">
<feFlood flood-opacity="0" result="BackgroundImageFix"/>
<feColorMatrix in="SourceAlpha" type="matrix" values="0 0 0 0 0 0 0 0 0 0 0 0 0 0 0 0 0 0 127 0"/>
<feOffset/>
<feGaussianBlur stdDeviation="5"/>
<feColorMatrix type="matrix" values="0 0 0 0 0.133333 0 0 0 0 0.698039 0 0 0 0 0.984314 0 0 0 1 0"/>
<feBlend mode="normal" in2="BackgroundImageFix" result="effect1_dropShadow"/>
<feBlend mode="normal" in="SourceGraphic" in2="effect1_dropShadow" result="shape"/>
</filter>
<linearGradient id="paint0_linear" x1="771.087" y1="189.934" x2="785.457" y2="190.448" gradientUnits="userSpaceOnUse">
<stop offset="0.00222209" stop-color="#1F64D2"/>
<stop offset="0.588542" stop-color="#52CCE7"/>
<stop offset="1" stop-color="#89ECD4"/>
</linearGradient>
<linearGradient id="paint1_linear" x1="179.913" y1="251.077" x2="165.553" y2="250.437" gradientUnits="userSpaceOnUse">
<stop offset="0.00222209" stop-color="#1F64D2"/>
<stop offset="0.588542" stop-color="#52CCE7"/>
<stop offset="1" stop-color="#89ECD4"/>
</linearGradient>
<linearGradient id="paint2_linear" x1="343.031" y1="104.054" x2="327.503" y2="92.4393" gradientUnits="userSpaceOnUse">
<stop offset="0.00222209" stop-color="#1F64D2"/>
<stop offset="0.588542" stop-color="#52CCE7"/>
<stop offset="1" stop-color="#89ECD4"/>
</linearGradient>
</defs>
</svg>
