<?xml version="1.0" encoding="utf-8"?>
<!-- Generator: Adobe Illustrator 25.4.1, SVG Export Plug-In . SVG Version: 6.00 Build 0)  -->
<svg version="1.1" id="white" xmlns="http://www.w3.org/2000/svg" xmlns:xlink="http://www.w3.org/1999/xlink" x="0px" y="0px"
	 viewBox="0 0 1073.3 379.7" style="enable-background:new 0 0 1073.3 379.7;" xml:space="preserve">
<style type="text/css">
	.st0{enable-background:new    ;}
	.st1{fill:#FFFFFF;}
</style>
<g class="st0">
	<path class="st1" d="M435.8,116.7H473l52.3,118.5l52.6-118.5h34.5l-88.1,186.4L435.8,116.7z"/>
	<path class="st1" d="M635.7,217.4c1.9,16.7,7.5,30.4,17.1,41.1c9.5,10.7,22.2,16,38,16c11.8,0,22.1-3.2,30.8-9.6
		c8.7-6.4,14.9-15.5,18.6-27.3l28.9,9.4c-5.8,17.9-15.9,31.8-30.1,41.6c-14.3,9.9-30.8,14.8-49.6,14.8c-13.7,0-26-2.4-36.9-7.3
		c-10.9-4.9-20.2-11.6-27.9-20c-7.7-8.5-13.6-18.6-17.8-30.3c-4.2-11.7-6.3-24.6-6.3-38.5c0-13.5,2.1-26,6.4-37.5
		c4.3-11.5,10.3-21.5,17.9-30c7.7-8.5,16.8-15.1,27.5-19.9c10.7-4.8,22.5-7.1,35.5-7.1c14.2,0,26.5,2.7,36.9,8
		c10.5,5.3,19.2,12.3,26.1,20.7c7,8.5,12.1,18.1,15.5,28.9c3.4,10.8,5.1,21.8,5.1,32.9c0,4.9-0.3,9.5-1,13.9H635.7z M687.7,141.8
		c-14.4,0-26.1,4.7-35.2,14.1s-14.6,21.8-16.7,37.1h102.1c-0.5-7-1.9-13.5-4.4-19.7c-2.4-6.2-5.9-11.6-10.3-16.2
		c-4.4-4.6-9.6-8.4-15.5-11.1S695.1,141.8,687.7,141.8z"/>
	<path class="st1" d="M791.1,116.7h33.8v28.2h1c6-10.2,13.8-18.1,23.3-23.7c9.5-5.6,21.8-8.4,36.9-8.4v32.4
		c-21.1,0-36.5,5.2-46.2,15.5c-9.6,10.3-14.5,26.1-14.5,47.2v91.6h-34.5V116.7z"/>
	<path class="st1" d="M1039.2,268.6h-1c-7.4,11.8-16.2,20.6-26.3,26.3c-10.1,5.7-22.1,8.5-36.1,8.5c-12.5,0-24.3-2.4-35.4-7.1
		c-11-4.8-20.6-11.3-28.7-19.7c-8.1-8.4-14.5-18.4-19.2-30.1c-4.6-11.7-7-24.6-7-38.5s2.3-26.7,7-38.3c4.6-11.6,11-21.6,19-30
		s17.5-14.9,28.6-19.7c11-4.8,22.9-7.1,35.7-7.1c12.8,0,24.6,2.6,35.5,7.8c10.9,5.2,19.7,13.1,26.5,23.5h1v-27.5h34.5v182.9h-34.1
		V268.6z M979.3,274.9c8.6,0,16.5-1.7,23.7-5.1c7.2-3.4,13.5-8,18.8-13.9c5.3-5.9,9.5-12.9,12.5-21.1c3-8.1,4.5-17.1,4.5-26.8
		s-1.5-18.6-4.5-26.7c-3-8-7.2-15-12.5-20.9c-5.3-5.9-11.6-10.5-18.8-13.8c-7.2-3.2-15.1-4.9-23.7-4.9c-8.4,0-16.2,1.6-23.5,4.9
		c-7.3,3.3-13.6,7.8-18.8,13.8c-5.2,5.9-9.4,12.9-12.4,20.9c-3,8-4.5,16.9-4.5,26.7s1.5,18.7,4.5,26.8c3,8.1,7.1,15.2,12.4,21.1
		c5.2,5.9,11.5,10.6,18.8,13.9C963.1,273.2,970.9,274.9,979.3,274.9z"/>
</g>
<g>
	<circle class="st1" cx="194.5" cy="158.3" r="40.8"/>
	<rect y="325.6" class="st1" width="389" height="29.7"/>
	<path class="st1" d="M389,250.7v29.6H239.8v-24.8h0.1c0.4-0.2,0.9-0.4,1.3-0.6c0.5-0.3,1-0.5,1.5-0.8c0.3-0.1,0.7-0.3,1-0.5
		c1.2-0.7,2.4-1.3,3.6-2l1.5-0.9c31-18.4,51.8-52.3,51.8-91c0-58.5-47.4-105.9-105.9-105.9S88.8,101.2,88.8,159.7
		c0,38.7,20.8,72.5,51.8,91l1.5,0.9c1.2,0.7,2.4,1.4,3.6,2c0.3,0.2,0.7,0.3,1,0.5c0.5,0.3,1,0.6,1.5,0.8c0,0,0.1,0,0.1,0.1
		c0.3,0.2,0.7,0.3,1.1,0.5l0.1,24.8H0v-29.6h95.4c-22.2-24.1-35.7-56.2-35.7-91.4c0-74.5,60.3-134.8,134.8-134.8
		s134.8,60.3,134.9,134.8c0,35.3-13.6,67.4-35.7,91.4H389z"/>
</g>
</svg>
