<svg width="822" height="613" viewBox="0 0 822 613" fill="none" xmlns="http://www.w3.org/2000/svg">
<path d="M14.6 265.6C12.2333 265.6 10.1333 265.067 8.3 264C6.46667 262.9 5.01667 261.384 3.95 259.45C2.91667 257.517 2.4 255.234 2.4 252.6C2.4 250 2.91667 247.734 3.95 245.8C4.98333 243.834 6.41667 242.317 8.25 241.25C10.1167 240.15 12.2667 239.6 14.7 239.6C17.1 239.6 19.1667 240.15 20.9 241.25C22.6667 242.317 24.0167 243.734 24.95 245.5C25.8833 247.267 26.35 249.167 26.35 251.2C26.35 251.567 26.3333 251.934 26.3 252.3C26.3 252.667 26.3 253.084 26.3 253.55H6.55C6.65 255.45 7.08333 257.034 7.85 258.3C8.65 259.534 9.63333 260.467 10.8 261.1C12 261.734 13.2667 262.05 14.6 262.05C16.3333 262.05 17.7833 261.65 18.95 260.85C20.1167 260.05 20.9667 258.967 21.5 257.6H25.65C24.9833 259.9 23.7 261.817 21.8 263.35C19.9333 264.85 17.5333 265.6 14.6 265.6ZM14.6 243.15C12.6 243.15 10.8167 243.767 9.25 245C7.71667 246.2 6.83333 247.967 6.6 250.3H22.2C22.1 248.067 21.3333 246.317 19.9 245.05C18.4667 243.784 16.7 243.15 14.6 243.15ZM40.8867 265C38.6201 265 36.8367 264.45 35.5367 263.35C34.2367 262.25 33.5867 260.267 33.5867 257.4V243.75H29.2867V240.2H33.5867L34.1367 234.25H37.7867V240.2H45.0867V243.75H37.7867V257.4C37.7867 258.967 38.1034 260.034 38.7367 260.6C39.3701 261.134 40.4867 261.4 42.0867 261.4H44.6867V265H40.8867ZM50.4227 265V229H54.6227V244.45C55.456 242.917 56.6393 241.734 58.1727 240.9C59.706 240.034 61.3727 239.6 63.1727 239.6C66.0393 239.6 68.3393 240.5 70.0727 242.3C71.806 244.067 72.6727 246.8 72.6727 250.5V265H68.5227V250.95C68.5227 245.784 66.4393 243.2 62.2727 243.2C60.106 243.2 58.2893 243.984 56.8227 245.55C55.356 247.084 54.6227 249.284 54.6227 252.15V265H50.4227ZM90.1859 265.6C87.8193 265.6 85.7193 265.067 83.8859 264C82.0526 262.9 80.6026 261.384 79.5359 259.45C78.5026 257.517 77.9859 255.234 77.9859 252.6C77.9859 250 78.5026 247.734 79.5359 245.8C80.5693 243.834 82.0026 242.317 83.8359 241.25C85.7026 240.15 87.8526 239.6 90.2859 239.6C92.6859 239.6 94.7526 240.15 96.4859 241.25C98.2526 242.317 99.6026 243.734 100.536 245.5C101.469 247.267 101.936 249.167 101.936 251.2C101.936 251.567 101.919 251.934 101.886 252.3C101.886 252.667 101.886 253.084 101.886 253.55H82.1359C82.2359 255.45 82.6693 257.034 83.4359 258.3C84.2359 259.534 85.2193 260.467 86.3859 261.1C87.5859 261.734 88.8526 262.05 90.1859 262.05C91.9193 262.05 93.3693 261.65 94.5359 260.85C95.7026 260.05 96.5526 258.967 97.0859 257.6H101.236C100.569 259.9 99.2859 261.817 97.3859 263.35C95.5193 264.85 93.1193 265.6 90.1859 265.6ZM90.1859 243.15C88.1859 243.15 86.4026 243.767 84.8359 245C83.3026 246.2 82.4193 247.967 82.1859 250.3H97.7859C97.6859 248.067 96.9193 246.317 95.4859 245.05C94.0526 243.784 92.2859 243.15 90.1859 243.15ZM107.503 265V240.2H111.303L111.653 244.95C112.419 243.317 113.586 242.017 115.153 241.05C116.719 240.084 118.653 239.6 120.953 239.6V244H119.803C118.336 244 116.986 244.267 115.753 244.8C114.519 245.3 113.536 246.167 112.803 247.4C112.069 248.634 111.703 250.334 111.703 252.5V265H107.503ZM135.889 265.6C133.522 265.6 131.422 265.067 129.589 264C127.756 262.9 126.306 261.384 125.239 259.45C124.206 257.517 123.689 255.234 123.689 252.6C123.689 250 124.206 247.734 125.239 245.8C126.272 243.834 127.706 242.317 129.539 241.25C131.406 240.15 133.556 239.6 135.989 239.6C138.389 239.6 140.456 240.15 142.189 241.25C143.956 242.317 145.306 243.734 146.239 245.5C147.172 247.267 147.639 249.167 147.639 251.2C147.639 251.567 147.622 251.934 147.589 252.3C147.589 252.667 147.589 253.084 147.589 253.55H127.839C127.939 255.45 128.372 257.034 129.139 258.3C129.939 259.534 130.922 260.467 132.089 261.1C133.289 261.734 134.556 262.05 135.889 262.05C137.622 262.05 139.072 261.65 140.239 260.85C141.406 260.05 142.256 258.967 142.789 257.6H146.939C146.272 259.9 144.989 261.817 143.089 263.35C141.222 264.85 138.822 265.6 135.889 265.6ZM135.889 243.15C133.889 243.15 132.106 243.767 130.539 245C129.006 246.2 128.122 247.967 127.889 250.3H143.489C143.389 248.067 142.622 246.317 141.189 245.05C139.756 243.784 137.989 243.15 135.889 243.15ZM162.256 265.6C159.323 265.6 156.989 264.717 155.256 262.95C153.523 261.15 152.656 258.4 152.656 254.7V240.2H156.856V254.25C156.856 259.417 158.973 262 163.206 262C165.373 262 167.156 261.234 168.556 259.7C169.989 258.134 170.706 255.917 170.706 253.05V240.2H174.906V265H171.106L170.806 260.55C170.039 262.117 168.889 263.35 167.356 264.25C165.856 265.15 164.156 265.6 162.256 265.6ZM181.819 265V240.2H185.619L185.919 243.8C186.719 242.467 187.786 241.434 189.119 240.7C190.452 239.967 191.952 239.6 193.619 239.6C195.586 239.6 197.269 240 198.669 240.8C200.102 241.6 201.202 242.817 201.969 244.45C202.836 242.95 204.019 241.767 205.519 240.9C207.052 240.034 208.702 239.6 210.469 239.6C213.436 239.6 215.802 240.5 217.569 242.3C219.336 244.067 220.219 246.8 220.219 250.5V265H216.069V250.95C216.069 248.384 215.552 246.45 214.519 245.15C213.486 243.85 212.002 243.2 210.069 243.2C208.069 243.2 206.402 243.984 205.069 245.55C203.769 247.084 203.119 249.284 203.119 252.15V265H198.919V250.95C198.919 248.384 198.402 246.45 197.369 245.15C196.336 243.85 194.852 243.2 192.919 243.2C190.952 243.2 189.302 243.984 187.969 245.55C186.669 247.084 186.019 249.284 186.019 252.15V265H181.819Z" fill="#D22F79"/>
<path d="M307.776 19.56L311.892 5.76081L313.502 6.24103L311.735 12.1632C312.23 11.6707 312.819 11.3524 313.502 11.2083C314.189 11.0514 314.877 11.0759 315.567 11.2817C316.666 11.6095 317.445 12.2174 317.903 13.1056C318.366 13.9809 318.385 15.1277 317.962 16.546L316.305 22.104L314.714 21.6295L316.32 16.244C316.911 14.2635 316.408 13.0351 314.811 12.5587C313.98 12.311 313.194 12.4035 312.453 12.8364C311.715 13.2564 311.183 14.0158 310.855 15.1147L309.386 20.0402L307.776 19.56ZM323.185 11.5088C322.866 11.4135 322.628 11.2313 322.472 10.962C322.332 10.6839 322.31 10.3851 322.405 10.0656C322.497 9.75898 322.675 9.53393 322.941 9.39048C323.219 9.25083 323.518 9.22865 323.837 9.32394C324.144 9.41541 324.375 9.59575 324.532 9.86498C324.688 10.1342 324.72 10.4221 324.629 10.7288C324.533 11.0482 324.345 11.2841 324.063 11.4365C323.785 11.5762 323.492 11.6003 323.185 11.5088ZM318.916 22.883L321.752 13.3769L323.362 13.8571L320.526 23.3632L318.916 22.883ZM327.977 22.33C327.441 22.17 326.97 21.953 326.565 21.679L325.338 22.294C325.448 22.4381 325.593 22.579 325.775 22.7166C325.973 22.8453 326.261 23.0007 326.638 23.1827C327.019 23.352 327.557 23.5752 328.254 23.8526C329.505 24.3231 330.331 24.8895 330.731 25.5517C331.132 26.2139 331.213 26.9474 330.972 27.7524C330.809 28.3018 330.499 28.7799 330.044 29.1868C329.601 29.5974 329.019 29.8691 328.298 30.0017C327.589 30.1382 326.749 30.0616 325.778 29.772C324.922 29.5166 324.196 29.1749 323.601 28.7467C323.001 28.3313 322.585 27.8384 322.351 27.2679C322.114 26.7101 322.098 26.0863 322.304 25.3963C322.411 25.0386 322.623 24.6775 322.94 24.313C323.254 23.9613 323.728 23.6783 324.362 23.464C324.116 23.2652 323.909 23.0714 323.743 22.8827C323.593 22.6849 323.46 22.4783 323.343 22.2626L323.475 21.8218L325.584 20.6978C325.021 19.8341 324.895 18.8784 325.208 17.8307C325.395 17.2046 325.711 16.6799 326.158 16.2564C326.604 15.833 327.152 15.5582 327.802 15.432C328.455 15.2931 329.185 15.3437 329.99 15.5838C330.539 15.7477 331.015 15.973 331.416 16.2597L334.923 17.3059L334.563 18.5133L332.758 18.0583C332.968 18.7054 332.969 19.3804 332.759 20.0831C332.572 20.7092 332.249 21.232 331.79 21.6517C331.344 22.0751 330.794 22.3563 330.14 22.4952C329.503 22.6252 328.782 22.5702 327.977 22.33ZM328.372 21.0076C329.049 21.2096 329.637 21.1972 330.136 20.9704C330.652 20.7346 331.009 20.2845 331.207 19.6201C331.401 18.9684 331.345 18.4092 331.039 17.9422C330.75 17.4663 330.267 17.1274 329.59 16.9254C328.9 16.7196 328.297 16.7346 327.781 16.9703C327.282 17.1972 326.936 17.6364 326.741 18.288C326.543 18.9524 326.589 19.5226 326.878 19.9985C327.184 20.4654 327.682 20.8018 328.372 21.0076ZM323.922 25.7118C323.731 26.3506 323.858 26.9034 324.303 27.3702C324.745 27.8497 325.368 28.2095 326.173 28.4496C326.965 28.6859 327.649 28.702 328.225 28.4981C328.813 28.2979 329.193 27.9104 329.365 27.3354C329.486 26.9265 329.427 26.5192 329.186 26.1135C328.942 25.7205 328.38 25.3651 327.501 25.0472C326.813 24.7865 326.225 24.5415 325.737 24.3124C325.13 24.4373 324.695 24.6346 324.434 24.9045C324.168 25.1872 323.998 25.4563 323.922 25.7118ZM333.904 27.3537L338.02 13.5545L339.63 14.0347L337.863 19.9569C338.358 19.4644 338.947 19.1461 339.63 19.002C340.317 18.8451 341.005 18.8696 341.695 19.0754C342.794 19.4032 343.573 20.0111 344.031 20.8993C344.494 21.7746 344.513 22.9214 344.09 24.3397L342.433 29.8977L340.842 29.4232L342.448 24.0377C343.039 22.0572 342.536 20.8288 340.939 20.3524C340.108 20.1047 339.322 20.1972 338.581 20.6301C337.843 21.0501 337.311 21.8095 336.983 22.9084L335.514 27.8339L333.904 27.3537ZM353.7 33.2587C352.831 32.9996 352.211 32.5848 351.838 32.0145C351.466 31.4443 351.443 30.6097 351.771 29.5109L353.332 24.2787L351.683 23.7871L352.089 22.4263L353.738 22.918L354.629 20.7001L356.028 21.1175L355.347 23.3982L358.146 24.2328L357.74 25.5936L354.942 24.7589L353.381 29.9911C353.202 30.5916 353.201 31.0367 353.379 31.3263C353.561 31.6032 353.958 31.8331 354.572 32.016L355.568 32.3133L355.157 33.6932L353.7 33.2587ZM357.355 34.349L360.191 24.8429L361.648 25.2774L361.239 27.1382C361.719 26.5997 362.315 26.2348 363.026 26.0434C363.737 25.852 364.533 25.8878 365.415 26.1508L364.912 27.8373L364.471 27.7059C363.909 27.5382 363.361 27.486 362.827 27.5494C362.297 27.6001 361.821 27.8198 361.399 28.2087C360.977 28.5977 360.642 29.2074 360.395 30.0379L358.965 34.8292L357.355 34.349ZM367.412 37.5991C366.619 37.3628 366.001 37.0324 365.558 36.6078C365.114 36.1832 364.831 35.7092 364.709 35.1858C364.587 34.6624 364.604 34.1388 364.76 33.6149C365.049 32.6438 365.643 32.0069 366.54 31.7041C367.438 31.4013 368.525 31.4405 369.803 31.8216L372.371 32.5876L372.405 32.4727C372.653 31.6421 372.623 30.9513 372.314 30.4001C372.009 29.8361 371.493 29.4454 370.764 29.2282C370.138 29.0414 369.548 29.0392 368.992 29.2214C368.454 29.3947 368.037 29.7644 367.743 30.3306L366.095 29.839C366.365 29.1681 366.768 28.6553 367.305 28.3007C367.855 27.9499 368.466 27.7427 369.139 27.6791C369.816 27.6027 370.493 27.6654 371.17 27.8674C372.499 28.2638 373.389 28.9188 373.84 29.8325C374.307 30.7373 374.366 31.7774 374.015 32.9529L372.272 38.7984L370.834 38.3696L371.247 36.6353C370.819 37.0919 370.285 37.4337 369.647 37.6607C369.026 37.8788 368.28 37.8583 367.412 37.5991ZM368.067 36.3127C368.68 36.4956 369.251 36.4922 369.781 36.3023C370.324 36.1163 370.786 35.8021 371.169 35.3596C371.551 34.9171 371.826 34.4148 371.994 33.8526L371.999 33.8334L369.565 33.1074C368.62 32.8253 367.9 32.7913 367.404 33.0054C366.926 33.2105 366.614 33.5558 366.469 34.0413C366.321 34.5396 366.379 34.9955 366.646 35.4088C366.929 35.8132 367.402 36.1145 368.067 36.3127ZM374.687 39.5188L377.522 30.0127L378.979 30.4472L378.566 32.1815C379.052 31.6724 379.634 31.3312 380.311 31.1577C380.989 30.9842 381.692 31.0061 382.421 31.2233C383.545 31.5587 384.336 32.1705 384.795 33.0586C385.27 33.9378 385.296 35.0865 384.873 36.5048L383.215 42.0628L381.606 41.5826L383.212 36.197C383.803 34.2166 383.28 32.9825 381.645 32.4946C380.827 32.2507 380.054 32.3471 379.325 32.7837C378.614 33.2114 378.094 33.9746 377.766 35.0734L376.297 39.999L374.687 39.5188ZM389.227 44.1065C388.09 43.7673 387.23 43.1978 386.648 42.398C386.066 41.5982 385.857 40.6873 386.023 39.6653L387.671 40.157C387.625 40.6858 387.757 41.1983 388.068 41.6946C388.396 42.182 388.924 42.5343 389.652 42.7515C390.33 42.9535 390.87 42.9616 391.273 42.7758C391.68 42.5772 391.943 42.2798 392.061 41.8837C392.232 41.3088 392.136 40.8626 391.772 40.5452C391.42 40.2315 390.89 39.8856 390.182 39.5075C389.701 39.2528 389.234 38.9534 388.78 38.6093C388.326 38.2652 387.978 37.8692 387.736 37.4213C387.498 36.9607 387.464 36.4428 387.636 35.8679C387.884 35.0374 388.392 34.4517 389.162 34.1107C389.948 33.7609 390.871 33.7441 391.932 34.0604C392.941 34.3615 393.689 34.8629 394.175 35.5645C394.678 36.2572 394.842 37.0851 394.666 38.0483L393.075 37.5738C393.156 37.0693 393.058 36.6295 392.78 36.2544C392.519 35.8704 392.094 35.5908 391.507 35.4155C390.932 35.2439 390.448 35.2319 390.057 35.3794C389.677 35.5307 389.429 35.8044 389.311 36.2005C389.196 36.5838 389.305 36.9431 389.636 37.2785C389.98 37.6177 390.474 37.9668 391.119 38.3259C391.668 38.629 392.176 38.9545 392.643 39.3024C393.126 39.6414 393.479 40.0457 393.701 40.5153C393.939 40.976 393.955 41.5513 393.749 42.2412C393.507 43.1011 392.969 43.713 392.137 44.0771C391.322 44.4321 390.352 44.4419 389.227 44.1065ZM398.331 46.822C397.539 46.5857 396.921 46.2553 396.477 45.8307C396.033 45.4061 395.75 44.9321 395.628 44.4087C395.506 43.8853 395.523 43.3617 395.679 42.8378C395.969 41.8668 396.562 41.2298 397.46 40.927C398.357 40.6242 399.445 40.6634 400.722 41.0445L403.29 41.8106L403.325 41.6956C403.572 40.8651 403.542 40.1742 403.233 39.623C402.929 39.059 402.412 38.6683 401.684 38.4511C401.058 38.2644 400.467 38.2621 399.912 38.4443C399.373 38.6176 398.957 38.9873 398.662 39.5535L397.014 39.0619C397.284 38.391 397.687 37.8782 398.224 37.5236C398.774 37.1728 399.386 36.9656 400.059 36.902C400.735 36.8256 401.412 36.8884 402.09 37.0904C403.418 37.4867 404.308 38.1418 404.759 39.0555C405.227 39.9602 405.285 41.0003 404.935 42.1758L403.191 48.0213L401.754 47.5925L402.167 45.8582C401.738 46.3148 401.205 46.6566 400.567 46.8837C399.945 47.1017 399.2 47.0812 398.331 46.822ZM398.986 45.5356C399.599 45.7185 400.171 45.7151 400.701 45.5252C401.243 45.3392 401.705 45.025 402.088 44.5825C402.47 44.14 402.745 43.6377 402.913 43.0755L402.919 43.0563L400.485 42.3303C399.539 42.0482 398.819 42.0143 398.324 42.2283C397.845 42.4334 397.533 42.7787 397.389 43.2642C397.24 43.7625 397.299 44.2184 397.565 44.6317C397.848 45.0361 398.322 45.3374 398.986 45.5356ZM409.907 50.2751C409 50.0045 408.243 49.5562 407.637 48.9301C407.047 48.295 406.652 47.544 406.452 46.6772C406.268 45.8014 406.324 44.8652 406.621 43.8686C406.919 42.872 407.382 42.0641 408.012 41.445C408.659 40.8169 409.401 40.4052 410.238 40.2097C411.092 40.0053 411.973 40.0384 412.88 40.309C414.004 40.6444 414.862 41.2203 415.454 42.0367C416.058 42.857 416.315 43.7895 416.226 44.8343L414.578 44.3427C414.625 43.7168 414.448 43.1698 414.045 42.7018C413.645 42.2209 413.114 41.8814 412.449 41.6832C411.913 41.5232 411.368 41.5068 410.815 41.6341C410.262 41.7614 409.759 42.0495 409.305 42.4985C408.851 42.9475 408.506 43.5681 408.27 44.3602C408.033 45.1524 407.982 45.8606 408.116 46.4849C408.25 47.1092 408.511 47.6324 408.9 48.0545C409.293 48.4639 409.757 48.7486 410.294 48.9086C410.958 49.1068 411.587 49.1205 412.181 48.9497C412.778 48.7662 413.231 48.3932 413.537 47.8308L415.186 48.3224C414.708 49.2235 413.99 49.8581 413.032 50.2261C412.073 50.5942 411.032 50.6105 409.907 50.2751ZM420.031 53.0444C419.162 52.7853 418.541 52.3705 418.169 51.8003C417.796 51.23 417.774 50.3954 418.102 49.2966L419.662 44.0644L418.014 43.5728L418.42 42.212L420.068 42.7037L420.959 40.4858L422.358 40.9032L421.678 43.1839L424.476 44.0185L424.07 45.3793L421.272 44.5446L419.712 49.7768C419.532 50.3773 419.532 50.8224 419.71 51.112C419.892 51.3889 420.289 51.6188 420.902 51.8017L421.899 52.099L421.487 53.4789L420.031 53.0444ZM428.128 42.812C427.809 42.7167 427.571 42.5345 427.414 42.2652C427.275 41.987 427.253 41.6882 427.348 41.3688C427.439 41.0622 427.618 40.8371 427.883 40.6937C428.161 40.554 428.46 40.5318 428.78 40.6271C429.086 40.7186 429.318 40.8989 429.474 41.1682C429.63 41.4374 429.663 41.7253 429.571 42.032C429.476 42.3514 429.287 42.5873 429.005 42.7397C428.727 42.8794 428.435 42.9035 428.128 42.812ZM423.859 54.1862L426.694 44.6801L428.304 45.1603L425.469 54.6664L423.859 54.1862ZM432.534 57.0245C431.64 56.7578 430.896 56.3132 430.303 55.6909C429.709 55.0686 429.312 54.3241 429.111 53.4572C428.927 52.5814 428.986 51.6388 429.287 50.6294C429.588 49.6201 430.06 48.8077 430.703 48.1924C431.349 47.5643 432.091 47.1526 432.929 46.9572C433.779 46.7655 434.651 46.8031 435.546 47.0699C436.44 47.3367 437.184 47.7812 437.777 48.4035C438.371 49.0258 438.76 49.7749 438.944 50.6507C439.144 51.5175 439.094 52.4556 438.793 53.465C438.492 54.4744 438.018 55.2931 437.372 55.9212C436.729 56.5365 435.982 56.9399 435.132 57.1316C434.295 57.327 433.429 57.2913 432.534 57.0245ZM432.946 55.6446C433.495 55.8085 434.047 55.8268 434.599 55.6995C435.152 55.5722 435.655 55.2841 436.109 54.8351C436.563 54.3861 436.908 53.7655 437.145 52.9734C437.381 52.1812 437.432 51.4729 437.299 50.8486C437.178 50.2282 436.921 49.7133 436.528 49.3039C436.135 48.8946 435.671 48.6099 435.134 48.4498C434.584 48.2859 434.033 48.2676 433.481 48.3949C432.928 48.5222 432.424 48.8104 431.971 49.2594C431.517 49.7083 431.171 50.3289 430.935 51.1211C430.699 51.9133 430.648 52.6215 430.781 53.2458C430.915 53.8701 431.172 54.385 431.552 54.7905C431.945 55.1998 432.409 55.4846 432.946 55.6446ZM439.614 58.8858L442.449 49.3797L443.906 49.8141L443.493 51.5485C443.979 51.0394 444.56 50.6982 445.238 50.5247C445.916 50.3512 446.619 50.3731 447.348 50.5903C448.472 50.9257 449.263 51.5375 449.722 52.4256C450.197 53.3048 450.223 54.4535 449.8 55.8718L448.142 61.4298L446.532 60.9496L448.139 55.564C448.73 53.5836 448.207 52.3495 446.572 51.8616C445.754 51.6177 444.981 51.7141 444.252 52.1507C443.54 52.5784 443.021 53.3416 442.693 54.4404L441.224 59.366L439.614 58.8858ZM454.154 63.4735C453.017 63.1343 452.157 62.5648 451.575 61.765C450.993 60.9651 450.784 60.0543 450.95 59.0323L452.598 59.524C452.552 60.0528 452.684 60.5653 452.995 61.0616C453.323 61.549 453.851 61.9012 454.579 62.1185C455.257 62.3205 455.797 62.3286 456.2 62.1428C456.607 61.9442 456.87 61.6468 456.988 61.2507C457.159 60.6758 457.063 60.2296 456.698 59.9122C456.347 59.5985 455.817 59.2526 455.109 58.8745C454.628 58.6198 454.161 58.3204 453.707 57.9763C453.253 57.6322 452.905 57.2362 452.663 56.7883C452.425 56.3277 452.391 55.8098 452.563 55.2349C452.811 54.4044 453.319 53.8187 454.089 53.4777C454.875 53.1279 455.798 53.1111 456.859 53.4274C457.868 53.7285 458.616 54.2299 459.102 54.9315C459.605 55.6242 459.769 56.4521 459.593 57.4153L458.002 56.9408C458.083 56.4363 457.985 55.9965 457.707 55.6214C457.446 55.2374 457.021 54.9578 456.434 54.7824C455.859 54.6109 455.375 54.5989 454.984 54.7464C454.604 54.8977 454.356 55.1714 454.238 55.5675C454.123 55.9508 454.232 56.3101 454.563 56.6455C454.907 56.9847 455.401 57.3338 456.046 57.6929C456.595 57.996 457.103 58.3215 457.57 58.6694C458.053 59.0084 458.406 59.4127 458.627 59.8823C458.866 60.343 458.882 60.9183 458.676 61.6082C458.434 62.4681 457.896 63.08 457.064 63.444C456.249 63.7991 455.279 63.8089 454.154 63.4735ZM300.861 44.6295L303.291 36.4842L301.854 36.0554L302.26 34.6947L303.697 35.1234L304.189 33.4752C304.463 32.5552 304.893 31.9531 305.479 31.6686C306.065 31.3842 306.798 31.3735 307.68 31.6364L308.638 31.9223L308.227 33.3022L307.517 33.0907C307.032 32.9458 306.656 32.9452 306.391 33.0886C306.129 33.2193 305.928 33.521 305.787 33.9937L305.307 35.6036L307.645 36.3011L307.239 37.6619L304.901 36.9644L302.471 45.1097L300.861 44.6295ZM310.557 47.7721C309.65 47.5015 308.906 47.057 308.325 46.4385C307.748 45.8072 307.366 45.0601 307.178 44.1971C307.003 43.3379 307.066 42.4036 307.367 41.3942C307.664 40.3976 308.122 39.5878 308.739 38.9649C309.36 38.3292 310.083 37.9117 310.907 37.7125C311.749 37.5043 312.636 37.5393 313.568 37.8175C314.488 38.0919 315.218 38.539 315.756 39.1588C316.311 39.7697 316.667 40.4671 316.823 41.251C316.978 42.0349 316.94 42.8165 316.708 43.5959C316.666 43.7365 316.617 43.8751 316.563 44.0118C316.521 44.1524 316.473 44.3121 316.42 44.491L308.849 42.2328C308.67 42.9725 308.655 43.629 308.804 44.2022C308.97 44.7664 309.24 45.2366 309.615 45.6127C310.003 45.9927 310.452 46.2589 310.963 46.4114C311.627 46.6096 312.229 46.622 312.768 46.4488C313.306 46.2755 313.756 45.9574 314.117 45.4946L315.707 45.9691C315.189 46.7745 314.478 47.3624 313.574 47.7329C312.687 48.0944 311.682 48.1075 310.557 47.7721ZM313.124 39.1668C312.357 38.9381 311.603 38.9706 310.862 39.2642C310.137 39.5489 309.596 40.1251 309.24 40.9928L315.22 42.7764C315.437 41.9089 315.343 41.1505 314.938 40.5011C314.534 39.8517 313.929 39.4069 313.124 39.1668ZM321.469 51.0269C320.562 50.7563 319.818 50.3118 319.237 49.6933C318.66 49.0621 318.278 48.3149 318.09 47.4519C317.915 46.5927 317.978 45.6584 318.279 44.649C318.576 43.6524 319.033 42.8426 319.65 42.2197C320.271 41.584 320.994 41.1665 321.819 40.9673C322.66 40.7591 323.547 40.7941 324.48 41.0723C325.4 41.3467 326.129 41.7938 326.668 42.4137C327.223 43.0245 327.578 43.7219 327.734 44.5058C327.89 45.2897 327.852 46.0713 327.619 46.8507C327.577 46.9913 327.529 47.1299 327.474 47.2667C327.432 47.4072 327.385 47.5669 327.331 47.7458L319.761 45.4876C319.582 46.2274 319.567 46.8838 319.716 47.457C319.882 48.0212 320.152 48.4914 320.527 48.8676C320.914 49.2475 321.364 49.5137 321.875 49.6662C322.539 49.8644 323.141 49.8768 323.679 49.7036C324.218 49.5303 324.668 49.2123 325.028 48.7494L326.619 49.2239C326.101 50.0293 325.39 50.6172 324.486 50.9877C323.599 51.3493 322.593 51.3623 321.469 51.0269ZM324.036 42.4216C323.269 42.1929 322.515 42.2254 321.773 42.519C321.048 42.8037 320.508 43.3799 320.152 44.2476L326.131 46.0313C326.348 45.1638 326.255 44.4053 325.85 43.7559C325.445 43.1065 324.841 42.6617 324.036 42.4216ZM331.748 54.0931C330.611 53.7539 329.751 53.1844 329.169 52.3846C328.586 51.5847 328.378 50.6738 328.544 49.6519L330.192 50.1436C330.146 50.6723 330.278 51.1849 330.589 51.6812C330.917 52.1685 331.445 52.5208 332.173 52.7381C332.85 52.9401 333.39 52.9482 333.794 52.7623C334.201 52.5638 334.463 52.2664 334.582 51.8703C334.753 51.2954 334.657 50.8492 334.292 50.5317C333.94 50.2181 333.411 49.8722 332.702 49.494C332.222 49.2394 331.755 48.94 331.301 48.5959C330.847 48.2518 330.499 47.8558 330.257 47.4079C330.018 46.9472 329.985 46.4294 330.157 45.8545C330.404 45.0239 330.913 44.4382 331.682 44.0973C332.469 43.7474 333.392 43.7307 334.452 44.047C335.462 44.3481 336.21 44.8494 336.696 45.5511C337.199 46.2438 337.363 47.0717 337.187 48.0349L335.596 47.5604C335.677 47.0558 335.578 46.616 335.301 46.241C335.04 45.857 334.615 45.5773 334.027 45.402C333.452 45.2305 332.969 45.2185 332.577 45.366C332.198 45.5173 331.949 45.791 331.831 46.1871C331.717 46.5704 331.825 46.9297 332.157 47.2651C332.501 47.6042 332.995 47.9534 333.639 48.3125C334.189 48.6156 334.697 48.9411 335.164 49.289C335.647 49.628 335.999 50.0323 336.221 50.5019C336.459 50.9625 336.476 51.5379 336.27 52.2278C336.027 53.0877 335.49 53.6996 334.658 54.0636C333.842 54.4187 332.872 54.4285 331.748 54.0931ZM345.924 58.3216C345.132 58.0853 344.514 57.7548 344.07 57.3303C343.626 56.9057 343.343 56.4317 343.221 55.9083C343.099 55.3848 343.116 54.8612 343.272 54.3373C343.562 53.3663 344.155 52.7294 345.052 52.4266C345.95 52.1238 347.037 52.1629 348.315 52.544L350.883 53.3101L350.917 53.1951C351.165 52.3646 351.135 51.6737 350.826 51.1225C350.521 50.5585 350.005 50.1679 349.276 49.9506C348.65 49.7639 348.06 49.7616 347.504 49.9438C346.966 50.1171 346.549 50.4868 346.255 51.0531L344.607 50.5614C344.877 49.8905 345.28 49.3778 345.817 49.0232C346.367 48.6724 346.978 48.4651 347.651 48.4015C348.328 48.3251 349.005 48.3879 349.682 48.5899C351.011 48.9863 351.901 49.6413 352.352 50.555C352.82 51.4597 352.878 52.4998 352.527 53.6753L350.784 59.5208L349.346 59.092L349.759 57.3577C349.331 57.8143 348.798 58.1561 348.159 58.3832C347.538 58.6013 346.793 58.5807 345.924 58.3216ZM346.579 57.0351C347.192 57.2181 347.764 57.2146 348.293 57.0248C348.836 56.8388 349.298 56.5245 349.681 56.082C350.063 55.6395 350.338 55.1372 350.506 54.575L350.512 54.5559L348.078 53.8298C347.132 53.5478 346.412 53.5138 345.916 53.7278C345.438 53.9329 345.126 54.2782 344.981 54.7638C344.833 55.2621 344.892 55.7179 345.158 56.1313C345.441 56.5357 345.914 56.837 346.579 57.0351ZM353.199 60.2412L356.034 50.7351L357.491 51.1696L357.082 53.0303C357.563 52.4919 358.159 52.127 358.87 51.9356C359.581 51.7442 360.377 51.78 361.259 52.043L360.755 53.7295L360.315 53.598C359.752 53.4304 359.205 53.3782 358.671 53.4416C358.141 53.4923 357.665 53.712 357.243 54.1009C356.821 54.4898 356.486 55.0995 356.238 55.9301L354.809 60.7214L353.199 60.2412ZM364.011 63.7168C363.104 63.4462 362.36 63.0017 361.779 62.3832C361.202 61.7519 360.82 61.0048 360.632 60.1418C360.457 59.2826 360.52 58.3483 360.821 57.3389C361.118 56.3423 361.576 55.5325 362.193 54.9096C362.814 54.2739 363.536 53.8564 364.361 53.6572C365.202 53.449 366.089 53.484 367.022 53.7622C367.942 54.0366 368.671 54.4837 369.21 55.1035C369.765 55.7144 370.121 56.4118 370.276 57.1957C370.432 57.9796 370.394 58.7612 370.161 59.5406C370.119 59.6812 370.071 59.8198 370.016 59.9565C369.975 60.0971 369.927 60.2568 369.874 60.4357L362.303 58.1775C362.124 58.9172 362.109 59.5737 362.258 60.1469C362.424 60.7111 362.694 61.1813 363.069 61.5574C363.457 61.9374 363.906 62.2036 364.417 62.3561C365.081 62.5543 365.683 62.5667 366.222 62.3935C366.76 62.2202 367.21 61.9021 367.571 61.4393L369.161 61.9138C368.643 62.7192 367.932 63.3071 367.028 63.6776C366.141 64.0391 365.135 64.0522 364.011 63.7168ZM366.578 55.1115C365.811 54.8828 365.057 54.9153 364.316 55.2089C363.591 55.4936 363.05 56.0698 362.694 56.9375L368.674 58.7211C368.891 57.8536 368.797 57.0952 368.392 56.4458C367.988 55.7964 367.383 55.3516 366.578 55.1115ZM380.052 68.5017C379.158 68.235 378.414 67.7904 377.82 67.1681C377.227 66.5458 376.83 65.8013 376.629 64.9344C376.445 64.0586 376.504 63.116 376.805 62.1066C377.106 61.0973 377.578 60.2849 378.22 59.6696C378.867 59.0415 379.609 58.6298 380.446 58.4344C381.297 58.2427 382.169 58.2803 383.063 58.5471C383.958 58.8139 384.702 59.2584 385.295 59.8807C385.889 60.503 386.278 61.2521 386.462 62.1279C386.662 62.9947 386.612 63.9328 386.311 64.9422C386.01 65.9516 385.536 66.7703 384.889 67.3984C384.247 68.0137 383.5 68.4172 382.65 68.6088C381.813 68.8042 380.947 68.7685 380.052 68.5017ZM380.464 67.1218C381.013 67.2857 381.564 67.304 382.117 67.1767C382.67 67.0494 383.173 66.7613 383.627 66.3123C384.081 65.8633 384.426 65.2427 384.663 64.4506C384.899 63.6584 384.95 62.9501 384.816 62.3259C384.695 61.7054 384.439 61.1905 384.046 60.7811C383.653 60.3718 383.188 60.0871 382.652 59.927C382.102 59.7631 381.551 59.7448 380.998 59.8722C380.446 59.9995 379.942 60.2876 379.488 60.7366C379.034 61.1855 378.689 61.8061 378.453 62.5983C378.217 63.3905 378.165 64.0987 378.299 64.723C378.433 65.3473 378.69 65.8622 379.07 66.2677C379.463 66.6771 379.927 66.9618 380.464 67.1218ZM387.132 70.363L389.967 60.8569L391.424 61.2914L391.011 63.0257C391.497 62.5166 392.078 62.1754 392.756 62.0019C393.434 61.8284 394.137 61.8503 394.865 62.0675C395.99 62.4029 396.781 63.0147 397.24 63.9028C397.715 64.782 397.741 65.9307 397.318 67.349L395.66 72.907L394.05 72.4268L395.657 67.0412C396.248 65.0608 395.725 63.8267 394.09 63.3388C393.272 63.0949 392.499 63.1913 391.77 63.6279C391.058 64.0556 390.538 64.8188 390.211 65.9176L388.741 70.8432L387.132 70.363ZM398.099 73.6345L402.215 59.8354L403.825 60.3156L399.709 74.1148L398.099 73.6345ZM402.125 79.427L406.015 74.9938L405.459 74.828L404.244 65.1156L405.988 65.6359L406.925 73.9713L412.466 67.5682L414.134 68.0655L403.812 79.9301L402.125 79.427ZM296.006 70.5636C295.214 70.3273 294.596 69.9969 294.152 69.5723C293.708 69.1477 293.425 68.6737 293.303 68.1503C293.181 67.6269 293.198 67.1033 293.354 66.5794C293.644 65.6084 294.237 64.9714 295.134 64.6686C296.032 64.3658 297.119 64.405 298.397 64.7861L300.965 65.5522L300.999 65.4372C301.247 64.6067 301.217 63.9158 300.908 63.3646C300.603 62.8006 300.087 62.4099 299.358 62.1927C298.732 62.006 298.142 62.0037 297.586 62.1859C297.048 62.3592 296.631 62.7289 296.337 63.2951L294.689 62.8035C294.959 62.1326 295.362 61.6198 295.899 61.2652C296.449 60.9144 297.06 60.7072 297.733 60.6436C298.41 60.5672 299.087 60.63 299.764 60.8319C301.093 61.2283 301.983 61.8834 302.434 62.797C302.902 63.7018 302.96 64.7419 302.609 65.9174L300.866 71.7629L299.428 71.3341L299.841 69.5998C299.413 70.0564 298.88 70.3982 298.241 70.6253C297.62 70.8433 296.875 70.8228 296.006 70.5636ZM296.661 69.2772C297.274 69.4601 297.846 69.4567 298.375 69.2668C298.918 69.0808 299.38 68.7666 299.763 68.3241C300.145 67.8816 300.42 67.3793 300.588 66.8171L300.594 66.7979L298.16 66.0719C297.214 65.7898 296.494 65.7558 295.998 65.9699C295.52 66.175 295.208 66.5203 295.063 67.0058C294.915 67.5041 294.974 67.96 295.24 68.3733C295.523 68.7777 295.996 69.079 296.661 69.2772ZM303.798 72.6376L306.228 64.4923L304.791 64.0635L305.196 62.7028L306.634 63.1315L307.126 61.4833C307.4 60.5633 307.83 59.9612 308.416 59.6767C309.002 59.3923 309.735 59.3816 310.617 59.6445L311.575 59.9304L311.163 61.3103L310.454 61.0988C309.969 60.9539 309.593 60.9533 309.328 61.0967C309.066 61.2274 308.865 61.5291 308.724 62.0018L308.244 63.6117L310.582 64.3092L310.176 65.67L307.838 64.9725L305.408 73.1178L303.798 72.6376ZM310.181 74.5414L312.61 66.396L311.173 65.9673L311.579 64.6065L313.016 65.0353L313.508 63.3871C313.782 62.4671 314.212 61.8649 314.798 61.5805C315.384 61.296 316.117 61.2853 316.999 61.5483L317.957 61.8341L317.546 63.2141L316.837 63.0025C316.351 62.8577 315.976 62.857 315.71 63.0005C315.449 63.1311 315.247 63.4329 315.106 63.9056L314.626 65.5155L316.964 66.213L316.558 67.5737L314.22 66.8763L311.79 75.0216L310.181 74.5414ZM319.934 77.7011C319.039 77.4344 318.296 76.9898 317.702 76.3675C317.108 75.7452 316.711 75.0007 316.511 74.1338C316.327 73.258 316.385 72.3154 316.686 71.306C316.987 70.2967 317.459 69.4843 318.102 68.869C318.749 68.2409 319.491 67.8292 320.328 67.6338C321.178 67.4421 322.051 67.4797 322.945 67.7465C323.839 68.0133 324.583 68.4578 325.177 69.0801C325.77 69.7024 326.159 70.4515 326.343 71.3273C326.544 72.1941 326.494 73.1322 326.192 74.1416C325.891 75.151 325.418 75.9697 324.771 76.5978C324.128 77.2131 323.382 77.6165 322.532 77.8082C321.694 78.0036 320.828 77.9679 319.934 77.7011ZM320.345 76.3212C320.895 76.4851 321.446 76.5034 321.999 76.3761C322.552 76.2488 323.055 75.9607 323.509 75.5117C323.963 75.0627 324.308 74.4421 324.544 73.6499C324.781 72.8578 324.832 72.1495 324.698 71.5252C324.577 70.9048 324.32 70.3899 323.927 69.9805C323.535 69.5712 323.07 69.2865 322.533 69.1264C321.984 68.9625 321.433 68.9442 320.88 69.0715C320.327 69.1988 319.824 69.487 319.37 69.936C318.916 70.3849 318.571 71.0055 318.335 71.7977C318.098 72.5899 318.047 73.2981 318.181 73.9224C318.315 74.5467 318.572 75.0616 318.951 75.4671C319.344 75.8764 319.809 76.1611 320.345 76.3212ZM327.013 79.5624L329.849 70.0563L331.305 70.4907L330.896 72.3515C331.377 71.8131 331.973 71.4482 332.684 71.2568C333.395 71.0653 334.191 71.1011 335.073 71.3641L334.57 73.0507L334.129 72.9192C333.567 72.7515 333.019 72.6994 332.485 72.7628C331.955 72.8134 331.479 73.0332 331.057 73.4221C330.635 73.811 330.3 74.4207 330.052 75.2512L328.623 80.0426L327.013 79.5624ZM337.864 83.0494C336.918 82.7674 336.152 82.3024 335.567 81.6546C334.993 81.0105 334.621 80.2525 334.45 79.3805C334.292 78.5124 334.355 77.5991 334.641 76.6408C334.927 75.6826 335.378 74.892 335.996 74.2691C336.616 73.6334 337.341 73.2095 338.17 72.9975C339.002 72.7727 339.897 72.8032 340.856 73.089C341.635 73.3215 342.277 73.687 342.783 74.1856C343.288 74.6842 343.621 75.2705 343.781 75.9445L345.537 70.0607L347.146 70.5409L343.03 84.3401L341.574 83.9056L341.889 82.2883C341.445 82.6568 340.881 82.9406 340.195 83.1396C339.51 83.3386 338.733 83.3086 337.864 83.0494ZM338.453 81.7018C339.092 81.8923 339.698 81.9131 340.272 81.764C340.861 81.606 341.37 81.2987 341.799 80.8421C342.24 80.3893 342.567 79.8052 342.781 79.0897C342.994 78.3742 343.04 77.7062 342.919 77.0857C342.811 76.469 342.552 75.9394 342.141 75.4969C341.747 75.0454 341.23 74.7244 340.592 74.5339C339.966 74.3471 339.358 74.3327 338.768 74.4907C338.195 74.6398 337.687 74.9407 337.246 75.3935C336.818 75.8501 336.497 76.4361 336.284 77.1517C336.07 77.8672 336.018 78.5333 336.126 79.1499C336.247 79.7704 336.504 80.3064 336.898 80.7579C337.309 81.2004 337.827 81.515 338.453 81.7018ZM348.748 86.2962C347.956 86.0599 347.338 85.7294 346.894 85.3049C346.451 84.8803 346.168 84.4063 346.045 83.8829C345.923 83.3594 345.94 82.8358 346.097 82.3119C346.386 81.3409 346.98 80.704 347.877 80.4012C348.774 80.0984 349.862 80.1375 351.14 80.5186L353.708 81.2847L353.742 81.1697C353.99 80.3392 353.959 79.6483 353.651 79.0971C353.346 78.5331 352.829 78.1425 352.101 77.9252C351.475 77.7385 350.884 77.7362 350.329 77.9184C349.79 78.0917 349.374 78.4614 349.08 79.0277L347.432 78.536C347.701 77.8651 348.105 77.3524 348.642 76.9978C349.192 76.647 349.803 76.4398 350.476 76.3761C351.153 76.2997 351.83 76.3625 352.507 76.5645C353.836 76.9609 354.726 77.6159 355.177 78.5296C355.644 79.4343 355.703 80.4744 355.352 81.6499L353.608 87.4954L352.171 87.0666L352.584 85.3323C352.155 85.7889 351.622 86.1307 350.984 86.3578C350.362 86.5759 349.617 86.5553 348.748 86.2962ZM349.403 85.0097C350.017 85.1927 350.588 85.1892 351.118 84.9994C351.66 84.8134 352.123 84.4991 352.505 84.0566C352.888 83.6141 353.163 83.1118 353.33 82.5496L353.336 82.5305L350.902 81.8044C349.957 81.5224 349.236 81.4884 348.741 81.7024C348.263 81.9075 347.951 82.2528 347.806 82.7384C347.657 83.2367 347.716 83.6925 347.982 84.1059C348.265 84.5103 348.739 84.8116 349.403 85.0097ZM361.034 89.9608C360.254 89.7283 359.606 89.3609 359.088 88.8585C358.582 88.3599 358.256 87.7755 358.108 87.1053L357.48 88.6503L356.023 88.2158L360.14 74.4166L361.75 74.8969L360 80.7615C360.444 80.393 361.002 80.1073 361.675 79.9045C362.361 79.7055 363.144 79.7374 364.026 80.0004C364.971 80.2824 365.731 80.7455 366.304 81.3895C366.877 82.0336 367.243 82.7897 367.401 83.6578C367.572 84.5298 367.515 85.445 367.229 86.4033C366.943 87.3615 366.49 88.1585 365.869 88.7942C365.265 89.4209 364.54 89.8448 363.695 90.0658C362.866 90.2778 361.979 90.2428 361.034 89.9608ZM361.279 88.5102C361.917 88.7008 362.523 88.7216 363.097 88.5725C363.674 88.4107 364.183 88.1034 364.624 87.6506C365.065 87.1978 365.392 86.6137 365.606 85.8982C365.819 85.1826 365.865 84.5146 365.744 83.8942C365.623 83.2737 365.364 82.7441 364.966 82.3054C364.572 81.8539 364.056 81.5329 363.417 81.3423C362.778 81.1518 362.17 81.1374 361.593 81.2992C361.02 81.4483 360.513 81.7492 360.071 82.202C359.63 82.6548 359.303 83.2389 359.089 83.9544C358.876 84.6699 358.83 85.3379 358.951 85.9584C359.072 86.5789 359.329 87.1149 359.724 87.5663C360.121 88.005 360.64 88.3197 361.279 88.5102ZM368.058 91.8056L372.174 78.0064L373.784 78.4866L369.668 92.2858L368.058 91.8056ZM376.512 94.5778C375.605 94.3072 374.861 93.8626 374.28 93.2441C373.703 92.6129 373.321 91.8657 373.133 91.0027C372.958 90.1435 373.021 89.2092 373.322 88.1998C373.619 87.2032 374.076 86.3934 374.694 85.7705C375.315 85.1348 376.037 84.7174 376.862 84.5181C377.703 84.3099 378.59 84.3449 379.523 84.6231C380.443 84.8975 381.172 85.3447 381.711 85.9645C382.266 86.5753 382.622 87.2727 382.777 88.0566C382.933 88.8405 382.895 89.6222 382.662 90.4016C382.62 90.5421 382.572 90.6807 382.517 90.8175C382.476 90.958 382.428 91.1177 382.375 91.2966L374.804 89.0385C374.625 89.7782 374.61 90.4346 374.759 91.0078C374.925 91.572 375.195 92.0422 375.57 92.4184C375.958 92.7984 376.407 93.0646 376.918 93.217C377.582 93.4152 378.184 93.4277 378.723 93.2544C379.261 93.0812 379.711 92.7631 380.072 92.3002L381.662 92.7747C381.144 93.5801 380.433 94.168 379.529 94.5385C378.642 94.9001 377.636 94.9132 376.512 94.5778ZM379.079 85.9724C378.312 85.7438 377.558 85.7762 376.817 86.0699C376.092 86.3545 375.551 86.9307 375.195 87.7984L381.175 89.5821C381.392 88.7146 381.298 87.9561 380.893 87.3067C380.489 86.6573 379.884 86.2126 379.079 85.9724ZM393.301 99.5857C392.521 99.3532 391.873 98.9857 391.355 98.4834C390.849 97.9848 390.523 97.4004 390.375 96.7302L389.747 98.2752L388.29 97.8407L392.407 84.0415L394.016 84.5217L392.267 90.3864C392.711 90.0179 393.269 89.7322 393.942 89.5294C394.627 89.3303 395.411 89.3623 396.293 89.6253C397.238 89.9073 397.997 90.3704 398.571 91.0144C399.144 91.6584 399.51 92.4145 399.668 93.2827C399.839 94.1547 399.782 95.0699 399.496 96.0281C399.21 96.9864 398.757 97.7834 398.136 98.4191C397.532 99.0458 396.807 99.4697 395.962 99.6907C395.133 99.9027 394.246 99.8677 393.301 99.5857ZM393.546 98.1351C394.184 98.3257 394.79 98.3464 395.364 98.1974C395.941 98.0356 396.45 97.7283 396.891 97.2755C397.332 96.8227 397.659 96.2385 397.873 95.523C398.086 94.8075 398.132 94.1395 398.011 93.519C397.89 92.8986 397.631 92.369 397.233 91.9303C396.839 91.4788 396.323 91.1578 395.684 90.9672C395.045 90.7766 394.437 90.7623 393.86 90.9241C393.287 91.0731 392.78 91.3741 392.338 91.8268C391.897 92.2796 391.57 92.8638 391.356 93.5793C391.143 94.2948 391.097 94.9628 391.218 95.5833C391.339 96.2038 391.596 96.7398 391.99 97.1912C392.388 97.6299 392.907 97.9446 393.546 98.1351ZM399.335 105.727L403.224 101.294L402.669 101.128L401.454 91.4154L403.198 91.9356L404.135 100.271L409.676 93.8679L411.344 94.3653L401.021 106.23L399.335 105.727ZM419.036 107.012C418.167 106.753 417.546 106.338 417.174 105.768C416.801 105.197 416.779 104.363 417.107 103.264L418.667 98.0317L417.019 97.54L417.425 96.1793L419.073 96.6709L419.964 94.4531L421.363 94.8705L420.683 97.1512L423.481 97.9858L423.075 99.3466L420.277 98.5119L418.717 103.744C418.537 104.345 418.537 104.79 418.715 105.079C418.897 105.356 419.294 105.586 419.907 105.769L420.904 106.066L420.492 107.446L419.036 107.012ZM422.691 108.102L426.807 94.3028L428.417 94.7831L426.651 100.705C427.145 100.213 427.734 99.8945 428.417 99.7504C429.104 99.5935 429.792 99.6179 430.482 99.8237C431.581 100.152 432.36 100.759 432.819 101.648C433.281 102.523 433.301 103.67 432.878 105.088L431.22 110.646L429.629 110.172L431.235 104.786C431.826 102.806 431.323 101.577 429.726 101.101C428.895 100.853 428.109 100.946 427.368 101.378C426.631 101.798 426.098 102.558 425.77 103.657L424.301 108.582L422.691 108.102ZM437.864 112.878C436.957 112.608 436.213 112.163 435.632 111.545C435.055 110.914 434.673 110.166 434.485 109.303C434.31 108.444 434.373 107.51 434.674 106.5C434.971 105.504 435.429 104.694 436.046 104.071C436.667 103.435 437.39 103.018 438.214 102.819C439.056 102.611 439.943 102.646 440.875 102.924C441.795 103.198 442.524 103.645 443.063 104.265C443.618 104.876 443.974 105.573 444.13 106.357C444.285 107.141 444.247 107.923 444.015 108.702C443.973 108.843 443.924 108.981 443.87 109.118C443.828 109.259 443.78 109.418 443.727 109.597L436.156 107.339C435.977 108.079 435.962 108.735 436.111 109.308C436.277 109.873 436.547 110.343 436.922 110.719C437.31 111.099 437.759 111.365 438.27 111.518C438.934 111.716 439.536 111.728 440.075 111.555C440.613 111.382 441.063 111.064 441.424 110.601L443.014 111.075C442.496 111.881 441.785 112.469 440.881 112.839C439.994 113.201 438.989 113.214 437.864 112.878ZM440.431 104.273C439.664 104.044 438.91 104.077 438.169 104.371C437.444 104.655 436.903 105.231 436.547 106.099L442.527 107.883C442.744 107.015 442.65 106.257 442.245 105.607C441.841 104.958 441.236 104.513 440.431 104.273ZM287.397 94.8772L287.453 84.5422L289.063 85.0224L288.852 93.0781L293.299 86.2858L295.119 86.8289L295.138 94.9532L299.355 88.0924L300.984 88.5783L295.369 97.2555L293.721 96.7638L293.721 88.2276L289.045 95.3689L287.397 94.8772ZM303.779 100.014C302.872 99.7437 302.128 99.2992 301.547 98.6807C300.97 98.0494 300.588 97.3023 300.4 96.4393C300.225 95.58 300.288 94.6457 300.589 93.6363C300.886 92.6397 301.343 91.83 301.96 91.2071C302.581 90.5714 303.304 90.1539 304.129 89.9546C304.97 89.7464 305.857 89.7814 306.79 90.0597C307.71 90.3341 308.439 90.7812 308.978 91.401C309.533 92.0119 309.888 92.7093 310.044 93.4932C310.2 94.277 310.162 95.0587 309.929 95.8381C309.887 95.9786 309.839 96.1173 309.784 96.254C309.742 96.3946 309.695 96.5543 309.641 96.7332L302.071 94.475C301.892 95.2147 301.877 95.8712 302.026 96.4444C302.192 97.0086 302.462 97.4788 302.837 97.8549C303.224 98.2349 303.674 98.5011 304.185 98.6535C304.849 98.8517 305.451 98.8642 305.989 98.6909C306.528 98.5177 306.978 98.1996 307.338 97.7367L308.929 98.2112C308.411 99.0166 307.699 99.6046 306.796 99.9751C305.909 100.337 304.903 100.35 303.779 100.014ZM306.346 91.409C305.579 91.1803 304.825 91.2128 304.083 91.5064C303.358 91.7911 302.818 92.3672 302.462 93.235L308.441 95.0186C308.658 94.1511 308.565 93.3927 308.16 92.7433C307.755 92.0938 307.151 91.6491 306.346 91.409ZM313.579 102.938C312.787 102.701 312.169 102.371 311.725 101.946C311.281 101.522 310.998 101.048 310.876 100.524C310.754 100.001 310.771 99.4772 310.927 98.9533C311.217 97.9823 311.81 97.3453 312.708 97.0425C313.605 96.7397 314.692 96.7789 315.97 97.16L318.538 97.9261L318.573 97.8111C318.82 96.9806 318.79 96.2897 318.481 95.7385C318.176 95.1745 317.66 94.7839 316.931 94.5666C316.305 94.3799 315.715 94.3776 315.159 94.5598C314.621 94.7331 314.204 95.1028 313.91 95.669L312.262 95.1774C312.532 94.5065 312.935 93.9937 313.472 93.6391C314.022 93.2883 314.634 93.0811 315.306 93.0175C315.983 92.9411 316.66 93.0039 317.337 93.2059C318.666 93.6022 319.556 94.2573 320.007 95.171C320.475 96.0757 320.533 97.1158 320.182 98.2913L318.439 104.137L317.001 103.708L317.414 101.974C316.986 102.43 316.453 102.772 315.814 102.999C315.193 103.217 314.448 103.197 313.579 102.938ZM314.234 101.651C314.847 101.834 315.419 101.831 315.948 101.641C316.491 101.455 316.953 101.14 317.336 100.698C317.718 100.256 317.993 99.7532 318.161 99.191L318.167 99.1718L315.733 98.4458C314.787 98.1637 314.067 98.1298 313.572 98.3438C313.093 98.5489 312.781 98.8942 312.636 99.3797C312.488 99.878 312.547 100.334 312.813 100.747C313.096 101.152 313.569 101.453 314.234 101.651ZM320.854 104.857L324.97 91.058L326.58 91.5382L322.464 105.337L320.854 104.857ZM328.859 107.245C327.99 106.986 327.369 106.571 326.997 106.001C326.624 105.431 326.602 104.596 326.93 103.497L328.491 98.265L326.842 97.7733L327.248 96.4126L328.896 96.9042L329.788 94.6864L331.187 95.1038L330.506 97.3845L333.304 98.2191L332.899 99.5799L330.1 98.7452L328.54 103.977C328.361 104.578 328.36 105.023 328.538 105.313C328.72 105.589 329.117 105.819 329.731 106.002L330.727 106.3L330.316 107.679L328.859 107.245ZM332.514 108.335L336.63 94.5361L338.24 95.0164L336.474 100.939C336.969 100.446 337.557 100.128 338.24 99.9836C338.927 99.8268 339.616 99.8512 340.306 100.057C341.404 100.385 342.183 100.993 342.642 101.881C343.104 102.756 343.124 103.903 342.701 105.321L341.043 110.879L339.452 110.405L341.059 105.019C341.649 103.039 341.146 101.81 339.549 101.334C338.719 101.086 337.933 101.179 337.191 101.612C336.454 102.032 335.921 102.791 335.593 103.89L334.124 108.816L332.514 108.335ZM342.978 116.048L346.868 111.615L346.312 111.449L345.098 101.737L346.842 102.257L347.778 110.593L353.32 104.189L354.987 104.687L344.665 116.551L342.978 116.048Z" fill="white"/>
<path d="M659.76 220V212.22H658.4V210.08H659.76V208.92C659.76 207.72 660.06 206.867 660.66 206.36C661.274 205.854 662.1 205.6 663.14 205.6H664.24V207.78H663.54C663.1 207.78 662.787 207.867 662.6 208.04C662.414 208.214 662.32 208.507 662.32 208.92V210.08H664.46V212.22H662.32V220H659.76ZM669.517 220.24C668.664 220.24 667.964 220.107 667.417 219.84C666.87 219.56 666.464 219.194 666.197 218.74C665.93 218.287 665.797 217.787 665.797 217.24C665.797 216.32 666.157 215.574 666.877 215C667.597 214.427 668.677 214.14 670.117 214.14H672.637V213.9C672.637 213.22 672.444 212.72 672.057 212.4C671.67 212.08 671.19 211.92 670.617 211.92C670.097 211.92 669.644 212.047 669.257 212.3C668.87 212.54 668.63 212.9 668.537 213.38H666.037C666.104 212.66 666.344 212.034 666.757 211.5C667.184 210.967 667.73 210.56 668.397 210.28C669.064 209.987 669.81 209.84 670.637 209.84C672.05 209.84 673.164 210.194 673.977 210.9C674.79 211.607 675.197 212.607 675.197 213.9V220H673.017L672.777 218.4C672.484 218.934 672.07 219.374 671.537 219.72C671.017 220.067 670.344 220.24 669.517 220.24ZM670.097 218.24C670.83 218.24 671.397 218 671.797 217.52C672.21 217.04 672.47 216.447 672.577 215.74H670.397C669.717 215.74 669.23 215.867 668.937 216.12C668.644 216.36 668.497 216.66 668.497 217.02C668.497 217.407 668.644 217.707 668.937 217.92C669.23 218.134 669.617 218.24 670.097 218.24ZM681.74 220.24C680.86 220.24 680.087 220.1 679.42 219.82C678.753 219.527 678.22 219.127 677.82 218.62C677.42 218.114 677.18 217.527 677.1 216.86H679.68C679.76 217.247 679.973 217.58 680.32 217.86C680.68 218.127 681.14 218.26 681.7 218.26C682.26 218.26 682.667 218.147 682.92 217.92C683.187 217.694 683.32 217.434 683.32 217.14C683.32 216.714 683.133 216.427 682.76 216.28C682.387 216.12 681.867 215.967 681.2 215.82C680.773 215.727 680.34 215.614 679.9 215.48C679.46 215.347 679.053 215.18 678.68 214.98C678.32 214.767 678.027 214.5 677.8 214.18C677.573 213.847 677.46 213.44 677.46 212.96C677.46 212.08 677.807 211.34 678.5 210.74C679.207 210.14 680.193 209.84 681.46 209.84C682.633 209.84 683.567 210.114 684.26 210.66C684.967 211.207 685.387 211.96 685.52 212.92H683.1C682.953 212.187 682.4 211.82 681.44 211.82C680.96 211.82 680.587 211.914 680.32 212.1C680.067 212.287 679.94 212.52 679.94 212.8C679.94 213.094 680.133 213.327 680.52 213.5C680.907 213.674 681.42 213.834 682.06 213.98C682.753 214.14 683.387 214.32 683.96 214.52C684.547 214.707 685.013 214.994 685.36 215.38C685.707 215.754 685.88 216.294 685.88 217C685.893 217.614 685.733 218.167 685.4 218.66C685.067 219.154 684.587 219.54 683.96 219.82C683.333 220.1 682.593 220.24 681.74 220.24ZM692.255 220C691.215 220 690.382 219.747 689.755 219.24C689.129 218.734 688.815 217.834 688.815 216.54V212.22H687.115V210.08H688.815L689.115 207.42H691.375V210.08H694.055V212.22H691.375V216.56C691.375 217.04 691.475 217.374 691.675 217.56C691.889 217.734 692.249 217.82 692.755 217.82H693.995V220H692.255ZM700.819 220.24C699.819 220.24 698.933 220.027 698.159 219.6C697.386 219.174 696.779 218.574 696.339 217.8C695.899 217.027 695.679 216.134 695.679 215.12C695.679 214.094 695.893 213.18 696.319 212.38C696.759 211.58 697.359 210.96 698.119 210.52C698.893 210.067 699.799 209.84 700.839 209.84C701.813 209.84 702.673 210.054 703.419 210.48C704.166 210.907 704.746 211.494 705.159 212.24C705.586 212.974 705.799 213.794 705.799 214.7C705.799 214.847 705.793 215 705.779 215.16C705.779 215.32 705.773 215.487 705.759 215.66H698.219C698.273 216.434 698.539 217.04 699.019 217.48C699.513 217.92 700.106 218.14 700.799 218.14C701.319 218.14 701.753 218.027 702.099 217.8C702.459 217.56 702.726 217.254 702.899 216.88H705.499C705.313 217.507 704.999 218.08 704.559 218.6C704.133 219.107 703.599 219.507 702.959 219.8C702.333 220.094 701.619 220.24 700.819 220.24ZM700.839 211.92C700.213 211.92 699.659 212.1 699.179 212.46C698.699 212.807 698.393 213.34 698.259 214.06H703.199C703.159 213.407 702.919 212.887 702.479 212.5C702.039 212.114 701.493 211.92 700.839 211.92ZM707.953 220V210.08H710.233L710.473 211.94C710.833 211.3 711.319 210.794 711.933 210.42C712.559 210.034 713.293 209.84 714.133 209.84V212.54H713.413C712.853 212.54 712.353 212.627 711.913 212.8C711.473 212.974 711.126 213.274 710.873 213.7C710.633 214.127 710.513 214.72 710.513 215.48V220H707.953ZM664.16 272.24C663.147 272.24 662.254 272.02 661.48 271.58C660.707 271.14 660.094 270.527 659.64 269.74C659.2 268.954 658.98 268.054 658.98 267.04C658.98 266.027 659.2 265.127 659.64 264.34C660.094 263.554 660.707 262.94 661.48 262.5C662.254 262.06 663.147 261.84 664.16 261.84C665.427 261.84 666.494 262.174 667.36 262.84C668.227 263.494 668.78 264.4 669.02 265.56H666.32C666.187 265.08 665.92 264.707 665.52 264.44C665.134 264.16 664.674 264.02 664.14 264.02C663.434 264.02 662.834 264.287 662.34 264.82C661.847 265.354 661.6 266.094 661.6 267.04C661.6 267.987 661.847 268.727 662.34 269.26C662.834 269.794 663.434 270.06 664.14 270.06C664.674 270.06 665.134 269.927 665.52 269.66C665.92 269.394 666.187 269.014 666.32 268.52H669.02C668.78 269.64 668.227 270.54 667.36 271.22C666.494 271.9 665.427 272.24 664.16 272.24ZM671.292 272V257.6H673.852V263.6C674.186 263.054 674.632 262.627 675.192 262.32C675.766 262 676.419 261.84 677.152 261.84C678.379 261.84 679.326 262.227 679.992 263C680.672 263.774 681.012 264.907 681.012 266.4V272H678.472V266.64C678.472 265.787 678.299 265.134 677.952 264.68C677.619 264.227 677.086 264 676.352 264C675.632 264 675.032 264.254 674.552 264.76C674.086 265.267 673.852 265.974 673.852 266.88V272H671.292ZM688.28 272.24C687.28 272.24 686.394 272.027 685.62 271.6C684.847 271.174 684.24 270.574 683.8 269.8C683.36 269.027 683.14 268.134 683.14 267.12C683.14 266.094 683.354 265.18 683.78 264.38C684.22 263.58 684.82 262.96 685.58 262.52C686.354 262.067 687.26 261.84 688.3 261.84C689.274 261.84 690.134 262.054 690.88 262.48C691.627 262.907 692.207 263.494 692.62 264.24C693.047 264.974 693.26 265.794 693.26 266.7C693.26 266.847 693.254 267 693.24 267.16C693.24 267.32 693.234 267.487 693.22 267.66H685.68C685.734 268.434 686 269.04 686.48 269.48C686.974 269.92 687.567 270.14 688.26 270.14C688.78 270.14 689.214 270.027 689.56 269.8C689.92 269.56 690.187 269.254 690.36 268.88H692.96C692.774 269.507 692.46 270.08 692.02 270.6C691.594 271.107 691.06 271.507 690.42 271.8C689.794 272.094 689.08 272.24 688.28 272.24ZM688.3 263.92C687.674 263.92 687.12 264.1 686.64 264.46C686.16 264.807 685.854 265.34 685.72 266.06H690.66C690.62 265.407 690.38 264.887 689.94 264.5C689.5 264.114 688.954 263.92 688.3 263.92ZM698.834 272.24C697.98 272.24 697.28 272.107 696.734 271.84C696.187 271.56 695.78 271.194 695.514 270.74C695.247 270.287 695.114 269.787 695.114 269.24C695.114 268.32 695.474 267.574 696.194 267C696.914 266.427 697.994 266.14 699.434 266.14H701.954V265.9C701.954 265.22 701.76 264.72 701.374 264.4C700.987 264.08 700.507 263.92 699.934 263.92C699.414 263.92 698.96 264.047 698.574 264.3C698.187 264.54 697.947 264.9 697.854 265.38H695.354C695.42 264.66 695.66 264.034 696.074 263.5C696.5 262.967 697.047 262.56 697.714 262.28C698.38 261.987 699.127 261.84 699.954 261.84C701.367 261.84 702.48 262.194 703.294 262.9C704.107 263.607 704.514 264.607 704.514 265.9V272H702.334L702.094 270.4C701.8 270.934 701.387 271.374 700.854 271.72C700.334 272.067 699.66 272.24 698.834 272.24ZM699.414 270.24C700.147 270.24 700.714 270 701.114 269.52C701.527 269.04 701.787 268.447 701.894 267.74H699.714C699.034 267.74 698.547 267.867 698.254 268.12C697.96 268.36 697.814 268.66 697.814 269.02C697.814 269.407 697.96 269.707 698.254 269.92C698.547 270.134 698.934 270.24 699.414 270.24ZM706.956 276.4V262.08H709.236L709.516 263.5C709.836 263.06 710.256 262.674 710.776 262.34C711.31 262.007 711.996 261.84 712.836 261.84C713.77 261.84 714.603 262.067 715.336 262.52C716.07 262.974 716.65 263.594 717.076 264.38C717.503 265.167 717.716 266.06 717.716 267.06C717.716 268.06 717.503 268.954 717.076 269.74C716.65 270.514 716.07 271.127 715.336 271.58C714.603 272.02 713.77 272.24 712.836 272.24C712.09 272.24 711.436 272.1 710.876 271.82C710.316 271.54 709.863 271.147 709.516 270.64V276.4H706.956ZM712.296 270C713.11 270 713.783 269.727 714.316 269.18C714.85 268.634 715.116 267.927 715.116 267.06C715.116 266.194 714.85 265.48 714.316 264.92C713.783 264.36 713.11 264.08 712.296 264.08C711.47 264.08 710.79 264.36 710.256 264.92C709.736 265.467 709.476 266.174 709.476 267.04C709.476 267.907 709.736 268.62 710.256 269.18C710.79 269.727 711.47 270 712.296 270ZM724.823 272.24C723.823 272.24 722.937 272.027 722.163 271.6C721.39 271.174 720.783 270.574 720.343 269.8C719.903 269.027 719.683 268.134 719.683 267.12C719.683 266.094 719.897 265.18 720.323 264.38C720.763 263.58 721.363 262.96 722.123 262.52C722.897 262.067 723.803 261.84 724.843 261.84C725.817 261.84 726.677 262.054 727.423 262.48C728.17 262.907 728.75 263.494 729.163 264.24C729.59 264.974 729.803 265.794 729.803 266.7C729.803 266.847 729.797 267 729.783 267.16C729.783 267.32 729.777 267.487 729.763 267.66H722.223C722.277 268.434 722.543 269.04 723.023 269.48C723.517 269.92 724.11 270.14 724.803 270.14C725.323 270.14 725.757 270.027 726.103 269.8C726.463 269.56 726.73 269.254 726.903 268.88H729.503C729.317 269.507 729.003 270.08 728.563 270.6C728.137 271.107 727.603 271.507 726.963 271.8C726.337 272.094 725.623 272.24 724.823 272.24ZM724.843 263.92C724.217 263.92 723.663 264.1 723.183 264.46C722.703 264.807 722.397 265.34 722.263 266.06H727.203C727.163 265.407 726.923 264.887 726.483 264.5C726.043 264.114 725.497 263.92 724.843 263.92ZM731.956 272V262.08H734.236L734.476 263.94C734.836 263.3 735.323 262.794 735.936 262.42C736.563 262.034 737.296 261.84 738.136 261.84V264.54H737.416C736.856 264.54 736.356 264.627 735.916 264.8C735.476 264.974 735.13 265.274 734.876 265.7C734.636 266.127 734.516 266.72 734.516 267.48V272H731.956ZM660.68 312.54C660.214 312.54 659.827 312.4 659.52 312.12C659.227 311.84 659.08 311.487 659.08 311.06C659.08 310.634 659.227 310.287 659.52 310.02C659.827 309.74 660.214 309.6 660.68 309.6C661.147 309.6 661.527 309.74 661.82 310.02C662.127 310.287 662.28 310.634 662.28 311.06C662.28 311.487 662.127 311.84 661.82 312.12C661.527 312.4 661.147 312.54 660.68 312.54ZM659.4 324V314.08H661.96V324H659.4ZM664.632 324V314.08H666.892L667.092 315.76C667.399 315.174 667.839 314.707 668.412 314.36C668.999 314.014 669.686 313.84 670.472 313.84C671.699 313.84 672.652 314.227 673.332 315C674.012 315.774 674.352 316.907 674.352 318.4V324H671.792V318.64C671.792 317.787 671.619 317.134 671.272 316.68C670.926 316.227 670.386 316 669.652 316C668.932 316 668.339 316.254 667.872 316.76C667.419 317.267 667.192 317.974 667.192 318.88V324H664.632ZM681.22 324C680.18 324 679.347 323.747 678.72 323.24C678.094 322.734 677.78 321.834 677.78 320.54V316.22H676.08V314.08H677.78L678.08 311.42H680.34V314.08H683.02V316.22H680.34V320.56C680.34 321.04 680.44 321.374 680.64 321.56C680.854 321.734 681.214 321.82 681.72 321.82H682.96V324H681.22ZM689.784 324.24C688.784 324.24 687.898 324.027 687.124 323.6C686.351 323.174 685.744 322.574 685.304 321.8C684.864 321.027 684.644 320.134 684.644 319.12C684.644 318.094 684.858 317.18 685.284 316.38C685.724 315.58 686.324 314.96 687.084 314.52C687.858 314.067 688.764 313.84 689.804 313.84C690.778 313.84 691.638 314.054 692.384 314.48C693.131 314.907 693.711 315.494 694.124 316.24C694.551 316.974 694.764 317.794 694.764 318.7C694.764 318.847 694.758 319 694.744 319.16C694.744 319.32 694.738 319.487 694.724 319.66H687.184C687.238 320.434 687.504 321.04 687.984 321.48C688.478 321.92 689.071 322.14 689.764 322.14C690.284 322.14 690.718 322.027 691.064 321.8C691.424 321.56 691.691 321.254 691.864 320.88H694.464C694.278 321.507 693.964 322.08 693.524 322.6C693.098 323.107 692.564 323.507 691.924 323.8C691.298 324.094 690.584 324.24 689.784 324.24ZM689.804 315.92C689.178 315.92 688.624 316.1 688.144 316.46C687.664 316.807 687.358 317.34 687.224 318.06H692.164C692.124 317.407 691.884 316.887 691.444 316.5C691.004 316.114 690.458 315.92 689.804 315.92ZM696.917 324V314.08H699.197L699.437 315.94C699.797 315.3 700.284 314.794 700.897 314.42C701.524 314.034 702.257 313.84 703.097 313.84V316.54H702.377C701.817 316.54 701.317 316.627 700.877 316.8C700.437 316.974 700.091 317.274 699.837 317.7C699.597 318.127 699.477 318.72 699.477 319.48V324H696.917ZM709.431 324.24C708.471 324.24 707.605 324.02 706.831 323.58C706.071 323.14 705.465 322.534 705.011 321.76C704.571 320.974 704.351 320.067 704.351 319.04C704.351 318.014 704.578 317.114 705.031 316.34C705.485 315.554 706.091 314.94 706.851 314.5C707.625 314.06 708.491 313.84 709.451 313.84C710.398 313.84 711.251 314.06 712.011 314.5C712.785 314.94 713.391 315.554 713.831 316.34C714.285 317.114 714.511 318.014 714.511 319.04C714.511 320.067 714.285 320.974 713.831 321.76C713.391 322.534 712.785 323.14 712.011 323.58C711.238 324.02 710.378 324.24 709.431 324.24ZM709.431 322.02C710.098 322.02 710.678 321.774 711.171 321.28C711.665 320.774 711.911 320.027 711.911 319.04C711.911 318.054 711.665 317.314 711.171 316.82C710.678 316.314 710.105 316.06 709.451 316.06C708.771 316.06 708.185 316.314 707.691 316.82C707.211 317.314 706.971 318.054 706.971 319.04C706.971 320.027 707.211 320.774 707.691 321.28C708.185 321.774 708.765 322.02 709.431 322.02ZM716.8 328.4V314.08H719.08L719.36 315.5C719.68 315.06 720.1 314.674 720.62 314.34C721.154 314.007 721.84 313.84 722.68 313.84C723.614 313.84 724.447 314.067 725.18 314.52C725.914 314.974 726.494 315.594 726.92 316.38C727.347 317.167 727.56 318.06 727.56 319.06C727.56 320.06 727.347 320.954 726.92 321.74C726.494 322.514 725.914 323.127 725.18 323.58C724.447 324.02 723.614 324.24 722.68 324.24C721.934 324.24 721.28 324.1 720.72 323.82C720.16 323.54 719.707 323.147 719.36 322.64V328.4H716.8ZM722.14 322C722.954 322 723.627 321.727 724.16 321.18C724.694 320.634 724.96 319.927 724.96 319.06C724.96 318.194 724.694 317.48 724.16 316.92C723.627 316.36 722.954 316.08 722.14 316.08C721.314 316.08 720.634 316.36 720.1 316.92C719.58 317.467 719.32 318.174 719.32 319.04C719.32 319.907 719.58 320.62 720.1 321.18C720.634 321.727 721.314 322 722.14 322ZM734.667 324.24C733.667 324.24 732.78 324.027 732.007 323.6C731.234 323.174 730.627 322.574 730.187 321.8C729.747 321.027 729.527 320.134 729.527 319.12C729.527 318.094 729.74 317.18 730.167 316.38C730.607 315.58 731.207 314.96 731.967 314.52C732.74 314.067 733.647 313.84 734.687 313.84C735.66 313.84 736.52 314.054 737.267 314.48C738.014 314.907 738.594 315.494 739.007 316.24C739.434 316.974 739.647 317.794 739.647 318.7C739.647 318.847 739.64 319 739.627 319.16C739.627 319.32 739.62 319.487 739.607 319.66H732.067C732.12 320.434 732.387 321.04 732.867 321.48C733.36 321.92 733.954 322.14 734.647 322.14C735.167 322.14 735.6 322.027 735.947 321.8C736.307 321.56 736.574 321.254 736.747 320.88H739.347C739.16 321.507 738.847 322.08 738.407 322.6C737.98 323.107 737.447 323.507 736.807 323.8C736.18 324.094 735.467 324.24 734.667 324.24ZM734.687 315.92C734.06 315.92 733.507 316.1 733.027 316.46C732.547 316.807 732.24 317.34 732.107 318.06H737.047C737.007 317.407 736.767 316.887 736.327 316.5C735.887 316.114 735.34 315.92 734.687 315.92ZM741.8 324V314.08H744.08L744.32 315.94C744.68 315.3 745.167 314.794 745.78 314.42C746.407 314.034 747.14 313.84 747.98 313.84V316.54H747.26C746.7 316.54 746.2 316.627 745.76 316.8C745.32 316.974 744.974 317.274 744.72 317.7C744.48 318.127 744.36 318.72 744.36 319.48V324H741.8ZM753.15 324.24C752.297 324.24 751.597 324.107 751.05 323.84C750.503 323.56 750.097 323.194 749.83 322.74C749.563 322.287 749.43 321.787 749.43 321.24C749.43 320.32 749.79 319.574 750.51 319C751.23 318.427 752.31 318.14 753.75 318.14H756.27V317.9C756.27 317.22 756.077 316.72 755.69 316.4C755.303 316.08 754.823 315.92 754.25 315.92C753.73 315.92 753.277 316.047 752.89 316.3C752.503 316.54 752.263 316.9 752.17 317.38H749.67C749.737 316.66 749.977 316.034 750.39 315.5C750.817 314.967 751.363 314.56 752.03 314.28C752.697 313.987 753.443 313.84 754.27 313.84C755.683 313.84 756.797 314.194 757.61 314.9C758.423 315.607 758.83 316.607 758.83 317.9V324H756.65L756.41 322.4C756.117 322.934 755.703 323.374 755.17 323.72C754.65 324.067 753.977 324.24 753.15 324.24ZM753.73 322.24C754.463 322.24 755.03 322 755.43 321.52C755.843 321.04 756.103 320.447 756.21 319.74H754.03C753.35 319.74 752.863 319.867 752.57 320.12C752.277 320.36 752.13 320.66 752.13 321.02C752.13 321.407 752.277 321.707 752.57 321.92C752.863 322.134 753.25 322.24 753.73 322.24ZM767.153 324.24C766.406 324.24 765.753 324.1 765.193 323.82C764.633 323.54 764.18 323.147 763.833 322.64L763.553 324H761.273V309.6H763.833V315.5C764.153 315.06 764.573 314.674 765.093 314.34C765.626 314.007 766.313 313.84 767.153 313.84C768.086 313.84 768.92 314.067 769.653 314.52C770.386 314.974 770.966 315.594 771.393 316.38C771.82 317.167 772.033 318.06 772.033 319.06C772.033 320.06 771.82 320.954 771.393 321.74C770.966 322.514 770.386 323.127 769.653 323.58C768.92 324.02 768.086 324.24 767.153 324.24ZM766.613 322C767.426 322 768.1 321.727 768.633 321.18C769.166 320.634 769.433 319.927 769.433 319.06C769.433 318.194 769.166 317.48 768.633 316.92C768.1 316.36 767.426 316.08 766.613 316.08C765.786 316.08 765.106 316.36 764.573 316.92C764.053 317.467 763.793 318.174 763.793 319.04C763.793 319.907 764.053 320.62 764.573 321.18C765.106 321.727 765.786 322 766.613 322ZM774.32 324V309.6H776.88V324H774.32ZM784.316 324.24C783.316 324.24 782.429 324.027 781.656 323.6C780.882 323.174 780.276 322.574 779.836 321.8C779.396 321.027 779.176 320.134 779.176 319.12C779.176 318.094 779.389 317.18 779.816 316.38C780.256 315.58 780.856 314.96 781.616 314.52C782.389 314.067 783.296 313.84 784.336 313.84C785.309 313.84 786.169 314.054 786.916 314.48C787.662 314.907 788.242 315.494 788.656 316.24C789.082 316.974 789.296 317.794 789.296 318.7C789.296 318.847 789.289 319 789.276 319.16C789.276 319.32 789.269 319.487 789.256 319.66H781.716C781.769 320.434 782.036 321.04 782.516 321.48C783.009 321.92 783.602 322.14 784.296 322.14C784.816 322.14 785.249 322.027 785.596 321.8C785.956 321.56 786.222 321.254 786.396 320.88H788.996C788.809 321.507 788.496 322.08 788.056 322.6C787.629 323.107 787.096 323.507 786.456 323.8C785.829 324.094 785.116 324.24 784.316 324.24ZM784.336 315.92C783.709 315.92 783.156 316.1 782.676 316.46C782.196 316.807 781.889 317.34 781.756 318.06H786.696C786.656 317.407 786.416 316.887 785.976 316.5C785.536 316.114 784.989 315.92 784.336 315.92ZM663.02 376.24C661.78 376.24 660.82 375.854 660.14 375.08C659.474 374.307 659.14 373.174 659.14 371.68V366.08H661.68V371.44C661.68 372.294 661.854 372.947 662.2 373.4C662.547 373.854 663.094 374.08 663.84 374.08C664.547 374.08 665.127 373.827 665.58 373.32C666.047 372.814 666.28 372.107 666.28 371.2V366.08H668.84V376H666.58L666.38 374.32C666.074 374.907 665.627 375.374 665.04 375.72C664.467 376.067 663.794 376.24 663.02 376.24ZM671.468 380.4V366.08H673.748L674.028 367.5C674.348 367.06 674.768 366.674 675.288 366.34C675.822 366.007 676.508 365.84 677.348 365.84C678.282 365.84 679.115 366.067 679.848 366.52C680.582 366.974 681.162 367.594 681.588 368.38C682.015 369.167 682.228 370.06 682.228 371.06C682.228 372.06 682.015 372.954 681.588 373.74C681.162 374.514 680.582 375.127 679.848 375.58C679.115 376.02 678.282 376.24 677.348 376.24C676.602 376.24 675.948 376.1 675.388 375.82C674.828 375.54 674.375 375.147 674.028 374.64V380.4H671.468ZM676.808 374C677.622 374 678.295 373.727 678.828 373.18C679.362 372.634 679.628 371.927 679.628 371.06C679.628 370.194 679.362 369.48 678.828 368.92C678.295 368.36 677.622 368.08 676.808 368.08C675.982 368.08 675.302 368.36 674.768 368.92C674.248 369.467 673.988 370.174 673.988 371.04C673.988 371.907 674.248 372.62 674.768 373.18C675.302 373.727 675.982 374 676.808 374ZM688.09 373.04C687.61 373.04 687.163 372.987 686.75 372.88L686.01 373.62C686.237 373.74 686.543 373.84 686.93 373.92C687.317 374 687.943 374.08 688.81 374.16C690.13 374.28 691.09 374.594 691.69 375.1C692.29 375.607 692.59 376.307 692.59 377.2C692.59 377.787 692.43 378.34 692.11 378.86C691.79 379.394 691.297 379.82 690.63 380.14C689.963 380.474 689.11 380.64 688.07 380.64C686.657 380.64 685.517 380.374 684.65 379.84C683.783 379.32 683.35 378.534 683.35 377.48C683.35 376.587 683.783 375.814 684.65 375.16C684.383 375.04 684.15 374.914 683.95 374.78C683.763 374.647 683.597 374.507 683.45 374.36V373.9L685.19 372.06C684.417 371.38 684.03 370.507 684.03 369.44C684.03 368.774 684.19 368.167 684.51 367.62C684.843 367.074 685.31 366.64 685.91 366.32C686.51 366 687.237 365.84 688.09 365.84C688.65 365.84 689.17 365.92 689.65 366.08H693.41V367.64L691.71 367.76C691.977 368.267 692.11 368.827 692.11 369.44C692.11 370.107 691.95 370.714 691.63 371.26C691.31 371.807 690.843 372.24 690.23 372.56C689.63 372.88 688.917 373.04 688.09 373.04ZM688.09 371.08C688.61 371.08 689.037 370.94 689.37 370.66C689.717 370.38 689.89 369.98 689.89 369.46C689.89 368.94 689.717 368.54 689.37 368.26C689.037 367.98 688.61 367.84 688.09 367.84C687.543 367.84 687.103 367.98 686.77 368.26C686.437 368.54 686.27 368.94 686.27 369.46C686.27 369.98 686.437 370.38 686.77 370.66C687.103 370.94 687.543 371.08 688.09 371.08ZM685.69 377.22C685.69 377.714 685.917 378.08 686.37 378.32C686.837 378.574 687.403 378.7 688.07 378.7C688.71 378.7 689.23 378.567 689.63 378.3C690.03 378.047 690.23 377.7 690.23 377.26C690.23 376.9 690.097 376.6 689.83 376.36C689.577 376.12 689.063 375.974 688.29 375.92C687.743 375.88 687.237 375.82 686.77 375.74C686.383 375.954 686.103 376.187 685.93 376.44C685.77 376.694 685.69 376.954 685.69 377.22ZM695.277 376V366.08H697.557L697.797 367.94C698.157 367.3 698.643 366.794 699.257 366.42C699.883 366.034 700.617 365.84 701.457 365.84V368.54H700.737C700.177 368.54 699.677 368.627 699.237 368.8C698.797 368.974 698.45 369.274 698.197 369.7C697.957 370.127 697.837 370.72 697.837 371.48V376H695.277ZM706.626 376.24C705.773 376.24 705.073 376.107 704.526 375.84C703.98 375.56 703.573 375.194 703.306 374.74C703.04 374.287 702.906 373.787 702.906 373.24C702.906 372.32 703.266 371.574 703.986 371C704.706 370.427 705.786 370.14 707.226 370.14H709.746V369.9C709.746 369.22 709.553 368.72 709.166 368.4C708.78 368.08 708.3 367.92 707.726 367.92C707.206 367.92 706.753 368.047 706.366 368.3C705.98 368.54 705.74 368.9 705.646 369.38H703.146C703.213 368.66 703.453 368.034 703.866 367.5C704.293 366.967 704.84 366.56 705.506 366.28C706.173 365.987 706.92 365.84 707.746 365.84C709.16 365.84 710.273 366.194 711.086 366.9C711.9 367.607 712.306 368.607 712.306 369.9V376H710.126L709.886 374.4C709.593 374.934 709.18 375.374 708.646 375.72C708.126 376.067 707.453 376.24 706.626 376.24ZM707.206 374.24C707.94 374.24 708.506 374 708.906 373.52C709.32 373.04 709.58 372.447 709.686 371.74H707.506C706.826 371.74 706.34 371.867 706.046 372.12C705.753 372.36 705.606 372.66 705.606 373.02C705.606 373.407 705.753 373.707 706.046 373.92C706.34 374.134 706.726 374.24 707.206 374.24ZM719.309 376.24C718.376 376.24 717.543 376.014 716.809 375.56C716.076 375.107 715.496 374.487 715.069 373.7C714.643 372.914 714.429 372.02 714.429 371.02C714.429 370.02 714.643 369.134 715.069 368.36C715.496 367.574 716.076 366.96 716.809 366.52C717.543 366.067 718.376 365.84 719.309 365.84C720.056 365.84 720.709 365.98 721.269 366.26C721.829 366.54 722.283 366.934 722.629 367.44V361.6H725.189V376H722.909L722.629 374.58C722.309 375.02 721.883 375.407 721.349 375.74C720.829 376.074 720.149 376.24 719.309 376.24ZM719.849 374C720.676 374 721.349 373.727 721.869 373.18C722.403 372.62 722.669 371.907 722.669 371.04C722.669 370.174 722.403 369.467 721.869 368.92C721.349 368.36 720.676 368.08 719.849 368.08C719.036 368.08 718.363 368.354 717.829 368.9C717.296 369.447 717.029 370.154 717.029 371.02C717.029 371.887 717.296 372.6 717.829 373.16C718.363 373.72 719.036 374 719.849 374ZM731.216 376.24C730.363 376.24 729.663 376.107 729.116 375.84C728.57 375.56 728.163 375.194 727.896 374.74C727.63 374.287 727.496 373.787 727.496 373.24C727.496 372.32 727.856 371.574 728.576 371C729.296 370.427 730.376 370.14 731.816 370.14H734.336V369.9C734.336 369.22 734.143 368.72 733.756 368.4C733.37 368.08 732.89 367.92 732.316 367.92C731.796 367.92 731.343 368.047 730.956 368.3C730.57 368.54 730.33 368.9 730.236 369.38H727.736C727.803 368.66 728.043 368.034 728.456 367.5C728.883 366.967 729.43 366.56 730.096 366.28C730.763 365.987 731.51 365.84 732.336 365.84C733.75 365.84 734.863 366.194 735.676 366.9C736.49 367.607 736.896 368.607 736.896 369.9V376H734.716L734.476 374.4C734.183 374.934 733.77 375.374 733.236 375.72C732.716 376.067 732.043 376.24 731.216 376.24ZM731.796 374.24C732.53 374.24 733.096 374 733.496 373.52C733.91 373.04 734.17 372.447 734.276 371.74H732.096C731.416 371.74 730.93 371.867 730.636 372.12C730.343 372.36 730.196 372.66 730.196 373.02C730.196 373.407 730.343 373.707 730.636 373.92C730.93 374.134 731.316 374.24 731.796 374.24ZM745.219 376.24C744.473 376.24 743.819 376.1 743.259 375.82C742.699 375.54 742.246 375.147 741.899 374.64L741.619 376H739.339V361.6H741.899V367.5C742.219 367.06 742.639 366.674 743.159 366.34C743.693 366.007 744.379 365.84 745.219 365.84C746.153 365.84 746.986 366.067 747.719 366.52C748.453 366.974 749.033 367.594 749.459 368.38C749.886 369.167 750.099 370.06 750.099 371.06C750.099 372.06 749.886 372.954 749.459 373.74C749.033 374.514 748.453 375.127 747.719 375.58C746.986 376.02 746.153 376.24 745.219 376.24ZM744.679 374C745.493 374 746.166 373.727 746.699 373.18C747.233 372.634 747.499 371.927 747.499 371.06C747.499 370.194 747.233 369.48 746.699 368.92C746.166 368.36 745.493 368.08 744.679 368.08C743.853 368.08 743.173 368.36 742.639 368.92C742.119 369.467 741.859 370.174 741.859 371.04C741.859 371.907 742.119 372.62 742.639 373.18C743.173 373.727 743.853 374 744.679 374ZM752.386 376V361.6H754.946V376H752.386ZM762.382 376.24C761.382 376.24 760.495 376.027 759.722 375.6C758.949 375.174 758.342 374.574 757.902 373.8C757.462 373.027 757.242 372.134 757.242 371.12C757.242 370.094 757.455 369.18 757.882 368.38C758.322 367.58 758.922 366.96 759.682 366.52C760.455 366.067 761.362 365.84 762.402 365.84C763.375 365.84 764.235 366.054 764.982 366.48C765.729 366.907 766.309 367.494 766.722 368.24C767.149 368.974 767.362 369.794 767.362 370.7C767.362 370.847 767.355 371 767.342 371.16C767.342 371.32 767.335 371.487 767.322 371.66H759.782C759.835 372.434 760.102 373.04 760.582 373.48C761.075 373.92 761.669 374.14 762.362 374.14C762.882 374.14 763.315 374.027 763.662 373.8C764.022 373.56 764.289 373.254 764.462 372.88H767.062C766.875 373.507 766.562 374.08 766.122 374.6C765.695 375.107 765.162 375.507 764.522 375.8C763.895 376.094 763.182 376.24 762.382 376.24ZM762.402 367.92C761.775 367.92 761.222 368.1 760.742 368.46C760.262 368.807 759.955 369.34 759.822 370.06H764.762C764.722 369.407 764.482 368.887 764.042 368.5C763.602 368.114 763.055 367.92 762.402 367.92Z" fill="#4FFFC0"/>
<path d="M533.45 609V573.2H537.25L537.65 577.3C538.45 576.1 539.584 575.017 541.05 574.05C542.55 573.083 544.45 572.6 546.75 572.6C549.217 572.6 551.367 573.167 553.2 574.3C555.034 575.433 556.45 576.983 557.45 578.95C558.484 580.917 559 583.15 559 585.65C559 588.15 558.484 590.383 557.45 592.35C556.45 594.283 555.017 595.817 553.15 596.95C551.317 598.05 549.167 598.6 546.7 598.6C544.667 598.6 542.85 598.183 541.25 597.35C539.684 596.517 538.484 595.35 537.65 593.85V609H533.45ZM546.25 594.95C547.917 594.95 549.384 594.567 550.65 593.8C551.917 593 552.917 591.9 553.65 590.5C554.384 589.1 554.75 587.467 554.75 585.6C554.75 583.733 554.384 582.1 553.65 580.7C552.917 579.3 551.917 578.217 550.65 577.45C549.384 576.65 547.917 576.25 546.25 576.25C544.584 576.25 543.117 576.65 541.85 577.45C540.584 578.217 539.584 579.3 538.85 580.7C538.117 582.1 537.75 583.733 537.75 585.6C537.75 587.467 538.117 589.1 538.85 590.5C539.584 591.9 540.584 593 541.85 593.8C543.117 594.567 544.584 594.95 546.25 594.95ZM576.147 598.6C573.813 598.6 571.713 598.067 569.847 597C567.98 595.933 566.497 594.433 565.397 592.5C564.33 590.533 563.797 588.233 563.797 585.6C563.797 582.967 564.347 580.683 565.447 578.75C566.547 576.783 568.03 575.267 569.897 574.2C571.797 573.133 573.913 572.6 576.247 572.6C578.58 572.6 580.68 573.133 582.547 574.2C584.413 575.267 585.88 576.783 586.947 578.75C588.047 580.683 588.597 582.967 588.597 585.6C588.597 588.233 588.047 590.533 586.947 592.5C585.847 594.433 584.347 595.933 582.447 597C580.58 598.067 578.48 598.6 576.147 598.6ZM576.147 595C577.58 595 578.913 594.65 580.147 593.95C581.38 593.25 582.38 592.2 583.147 590.8C583.913 589.4 584.297 587.667 584.297 585.6C584.297 583.533 583.913 581.8 583.147 580.4C582.413 579 581.43 577.95 580.197 577.25C578.963 576.55 577.647 576.2 576.247 576.2C574.813 576.2 573.48 576.55 572.247 577.25C571.013 577.95 570.013 579 569.247 580.4C568.48 581.8 568.097 583.533 568.097 585.6C568.097 587.667 568.48 589.4 569.247 590.8C570.013 592.2 570.997 593.25 572.197 593.95C573.43 594.65 574.747 595 576.147 595ZM594.437 598V562H598.637V598H594.437ZM605.521 598V562H609.721V583.65L619.871 573.2H625.021L614.021 584.4L626.421 598H621.071L609.721 585.15V598H605.521ZM638.771 598.6C636.704 598.6 634.987 598.25 633.621 597.55C632.254 596.85 631.237 595.917 630.571 594.75C629.904 593.583 629.571 592.317 629.571 590.95C629.571 588.417 630.537 586.467 632.471 585.1C634.404 583.733 637.037 583.05 640.371 583.05H647.071V582.75C647.071 580.583 646.504 578.95 645.371 577.85C644.237 576.717 642.721 576.15 640.821 576.15C639.187 576.15 637.771 576.567 636.571 577.4C635.404 578.2 634.671 579.383 634.371 580.95H630.071C630.237 579.15 630.837 577.633 631.871 576.4C632.937 575.167 634.254 574.233 635.821 573.6C637.387 572.933 639.054 572.6 640.821 572.6C644.287 572.6 646.887 573.533 648.621 575.4C650.387 577.233 651.271 579.683 651.271 582.75V598H647.521L647.271 593.55C646.571 594.95 645.537 596.15 644.171 597.15C642.837 598.117 641.037 598.6 638.771 598.6ZM639.421 595.05C641.021 595.05 642.387 594.633 643.521 593.8C644.687 592.967 645.571 591.883 646.171 590.55C646.771 589.217 647.071 587.817 647.071 586.35V586.3H640.721C638.254 586.3 636.504 586.733 635.471 587.6C634.471 588.433 633.971 589.483 633.971 590.75C633.971 592.05 634.437 593.1 635.371 593.9C636.337 594.667 637.687 595.05 639.421 595.05ZM668.821 598.6C666.355 598.6 664.188 598.033 662.321 596.9C660.488 595.767 659.055 594.217 658.021 592.25C657.021 590.283 656.521 588.05 656.521 585.55C656.521 583.05 657.038 580.833 658.071 578.9C659.105 576.933 660.538 575.4 662.371 574.3C664.205 573.167 666.371 572.6 668.871 572.6C670.905 572.6 672.705 573.017 674.271 573.85C675.838 574.683 677.055 575.85 677.921 577.35V562H682.121V598H678.321L677.921 593.9C677.121 595.1 675.971 596.183 674.471 597.15C672.971 598.117 671.088 598.6 668.821 598.6ZM669.271 594.95C670.938 594.95 672.405 594.567 673.671 593.8C674.971 593 675.971 591.9 676.671 590.5C677.405 589.1 677.771 587.467 677.771 585.6C677.771 583.733 677.405 582.1 676.671 580.7C675.971 579.3 674.971 578.217 673.671 577.45C672.405 576.65 670.938 576.25 669.271 576.25C667.638 576.25 666.171 576.65 664.871 577.45C663.605 578.217 662.605 579.3 661.871 580.7C661.171 582.1 660.821 583.733 660.821 585.6C660.821 587.467 661.171 589.1 661.871 590.5C662.605 591.9 663.605 593 664.871 593.8C666.171 594.567 667.638 594.95 669.271 594.95ZM700.268 598.6C697.934 598.6 695.834 598.067 693.968 597C692.101 595.933 690.618 594.433 689.518 592.5C688.451 590.533 687.918 588.233 687.918 585.6C687.918 582.967 688.468 580.683 689.568 578.75C690.668 576.783 692.151 575.267 694.018 574.2C695.918 573.133 698.034 572.6 700.368 572.6C702.701 572.6 704.801 573.133 706.668 574.2C708.534 575.267 710.001 576.783 711.068 578.75C712.168 580.683 712.718 582.967 712.718 585.6C712.718 588.233 712.168 590.533 711.068 592.5C709.968 594.433 708.468 595.933 706.568 597C704.701 598.067 702.601 598.6 700.268 598.6ZM700.268 595C701.701 595 703.034 594.65 704.268 593.95C705.501 593.25 706.501 592.2 707.268 590.8C708.034 589.4 708.418 587.667 708.418 585.6C708.418 583.533 708.034 581.8 707.268 580.4C706.534 579 705.551 577.95 704.318 577.25C703.084 576.55 701.768 576.2 700.368 576.2C698.934 576.2 697.601 576.55 696.368 577.25C695.134 577.95 694.134 579 693.368 580.4C692.601 581.8 692.218 583.533 692.218 585.6C692.218 587.667 692.601 589.4 693.368 590.8C694.134 592.2 695.118 593.25 696.318 593.95C697.551 594.65 698.868 595 700.268 595ZM727.381 598C725.114 598 723.331 597.45 722.031 596.35C720.731 595.25 720.081 593.267 720.081 590.4V576.75H715.781V573.2H720.081L720.631 567.25H724.281V573.2H731.581V576.75H724.281V590.4C724.281 591.967 724.598 593.033 725.231 593.6C725.864 594.133 726.981 594.4 728.581 594.4H731.181V598H727.381Z" fill="#4FFFC0"/>
<line x1="109" y1="36.0002" x2="109" y2="177" stroke="white" stroke-width="10"/>
<line x1="637" y1="200.016" x2="636" y2="515.016" stroke="white" stroke-width="10"/>
<path d="M179 106.647C179 106.647 430.746 90.0033 439.649 221.003C450.149 375.503 582.649 441.003 582.649 441.003" stroke="white"/>
</svg>
